<?xml version='1.0' encoding='UTF-8' standalone='no'?>
<svg viewBox="0 0 419 314" xmlns="http://www.w3.org/2000/svg" width="419pt" xmlns:xlink="http://www.w3.org/1999/xlink" height="314pt">
 <title>Figure 1</title>
 <desc>
Creator: GL2PS 1.4.2, (C) 1999-2020 C. Geuzaine
For: Octave
CreationDate: Mon Nov 27 22:49:38 2023
</desc>
 <defs/>
 <polygon fill="#ffffff" points="0,0 419,0 419,314 0,314"/>
 <g>
  <polygon shape-rendering="crispEdges" fill="#ffffff" points="0,314 419,314 419,0 0,0"/>
  <clipPath id="cp00419314">
   <polygon points="0,314 419,314 419,0 0,0"/>
  </clipPath>
  <g clip-path="url(#cp00419314)">
   <polygon shape-rendering="crispEdges" fill="#0000ff" points="228.73,166.718 227.73,166.718 227.23,165.852 227.73,164.986 228.73,164.986 229.23,165.852 229.23,165.852"/>
   <polygon shape-rendering="crispEdges" fill="#0000ff" points="203.846,144.166 202.846,144.166 202.346,143.3 202.846,142.434 203.846,142.434 204.346,143.3 204.346,143.3"/>
   <polygon shape-rendering="crispEdges" fill="#0000ff" points="216.529,134.83 215.529,134.83 215.029,133.964 215.529,133.098 216.529,133.098 217.029,133.964 217.029,133.964"/>
   <polygon shape-rendering="crispEdges" fill="#0000ff" points="240.619,156.668 239.619,156.668 239.119,155.802 239.619,154.936 240.619,154.936 241.119,155.802 241.119,155.802"/>
   <polygon shape-rendering="crispEdges" fill="#0000ff" points="211.817,177.789 210.817,177.789 210.317,176.923 210.817,176.057 211.817,176.057 212.317,176.923 212.317,176.923"/>
   <polygon shape-rendering="crispEdges" fill="#0000ff" points="192.254,153.992 191.254,153.992 190.754,153.126 191.254,152.26 192.254,152.26 192.754,153.126 192.754,153.126"/>
   <polygon shape-rendering="crispEdges" fill="#0000ff" points="229.06,126.85 228.06,126.85 227.56,125.984 228.06,125.117 229.06,125.117 229.56,125.984 229.56,125.984"/>
   <polygon shape-rendering="crispEdges" fill="#0000ff" points="250.864,146.791 249.864,146.791 249.364,145.925 249.864,145.059 250.864,145.059 251.364,145.925 251.364,145.925"/>
   <polygon shape-rendering="crispEdges" fill="#0000ff" points="199.76,184.45 198.76,184.45 198.26,183.584 198.76,182.718 199.76,182.718 200.26,183.584 200.26,183.584"/>
   <polygon shape-rendering="crispEdges" fill="#0000ff" points="182.491,163.373 181.491,163.373 180.991,162.507 181.491,161.641 182.491,161.641 182.991,162.507 182.991,162.507"/>
   <polygon shape-rendering="crispEdges" fill="#0000ff" points="240.467,120.506 239.467,120.506 238.967,119.64 239.467,118.774 240.467,118.774 240.967,119.64 240.967,119.64"/>
   <polygon shape-rendering="crispEdges" fill="#ff00ff" points="200.398,161.025 199.398,161.025 198.898,160.159 199.398,159.293 200.398,159.293 200.898,160.159 200.898,160.159"/>
   <polygon shape-rendering="crispEdges" fill="#ff00ff" points="237.749,146.379 236.749,146.379 236.249,145.513 236.749,144.647 237.749,144.647 238.249,145.513 238.249,145.513"/>
   <polygon shape-rendering="crispEdges" fill="#ff00ff" points="234.992,147.797 233.992,147.797 233.492,146.931 233.992,146.065 234.992,146.065 235.492,146.931 235.492,146.931"/>
   <polygon shape-rendering="crispEdges" fill="#ff00ff" points="197.342,162.841 196.342,162.841 195.842,161.975 196.342,161.109 197.342,161.109 197.842,161.975 197.842,161.975"/>
   <polygon shape-rendering="crispEdges" fill="#ff00ff" points="202.939,159.705 201.939,159.705 201.439,158.839 201.939,157.973 202.939,157.973 203.439,158.839 203.439,158.839"/>
   <polygon shape-rendering="crispEdges" fill="#ff00ff" points="241.059,144.408 240.059,144.408 239.559,143.542 240.059,142.676 241.059,142.676 241.559,143.542 241.559,143.542"/>
   <polygon shape-rendering="crispEdges" fill="#ff00ff" points="232.707,148.831 231.707,148.831 231.207,147.965 231.707,147.099 232.707,147.099 233.207,147.965 233.207,147.965"/>
   <polygon shape-rendering="crispEdges" fill="#ff00ff" points="205.051,158.731 204.051,158.731 203.551,157.865 204.051,156.999 205.051,156.999 205.551,157.865 205.551,157.865"/>
   <polygon shape-rendering="crispEdges" fill="#ff00ff" points="230.804,149.598 229.804,149.598 229.304,148.732 229.804,147.866 230.804,147.866 231.304,148.732 231.304,148.732"/>
   <polygon shape-rendering="crispEdges" fill="#ff00ff" points="193.731,165.354 192.731,165.354 192.231,164.488 192.731,163.622 193.731,163.622 194.231,164.488 194.231,164.488"/>
   <polygon shape-rendering="crispEdges" fill="#ff00ff" points="206.816,157.999 205.816,157.999 205.316,157.133 205.816,156.267 206.816,156.267 207.316,157.133 207.316,157.133"/>
   <polygon shape-rendering="crispEdges" fill="#ff00ff" points="229.205,150.178 228.205,150.178 227.705,149.312 228.205,148.446 229.205,148.446 229.705,149.312 229.705,149.312"/>
   <polygon shape-rendering="crispEdges" fill="#ff00ff" points="244.922,141.673 243.922,141.673 243.422,140.807 243.922,139.941 244.922,139.941 245.422,140.807 245.422,140.807"/>
   <polygon shape-rendering="crispEdges" fill="#ff00ff" points="208.305,157.439 207.305,157.439 206.805,156.573 207.305,155.707 208.305,155.707 208.805,156.573 208.805,156.573"/>
   <polygon shape-rendering="crispEdges" fill="#ff00ff" points="227.85,150.625 226.85,150.625 226.35,149.759 226.85,148.893 227.85,148.893 228.35,149.759 228.35,149.759"/>
   <polygon shape-rendering="crispEdges" fill="#ff00ff" points="209.572,157.001 208.572,157.001 208.072,156.135 208.572,155.269 209.572,155.269 210.072,156.135"/>
   <polygon shape-rendering="crispEdges" fill="#0000ff" points="259.218,137.784 258.218,137.784 257.718,136.918 258.218,136.052 259.218,136.052 259.718,136.918 259.718,136.918"/>
   <polygon shape-rendering="crispEdges" fill="#ff00ff" points="226.691,150.976 225.691,150.976 225.191,150.11 225.691,149.243 226.691,149.243 227.191,150.11 227.191,150.11"/>
   <polygon shape-rendering="crispEdges" fill="#ff00ff" points="210.661,156.653 209.661,156.653 209.161,155.787 209.661,154.921 210.661,154.921 211.161,155.787"/>
   <polygon shape-rendering="crispEdges" fill="#ff00ff" points="225.692,151.256 224.692,151.256 224.192,150.39 224.692,149.524 225.692,149.524 226.192,150.39 226.192,150.39"/>
   <polygon shape-rendering="crispEdges" fill="#ff00ff" points="189.717,168.761 188.717,168.761 188.217,167.895 188.717,167.029 189.717,167.029 190.217,167.895 190.217,167.895"/>
   <polygon shape-rendering="crispEdges" fill="#ff00ff" points="211.602,156.372 210.602,156.372 210.102,155.506 210.602,154.64 211.602,154.64 212.102,155.506"/>
   <polygon shape-rendering="crispEdges" fill="#ff00ff" points="224.823,151.484 223.823,151.484 223.323,150.618 223.823,149.752 224.823,149.752 225.323,150.618 225.323,150.618"/>
   <polygon shape-rendering="crispEdges" fill="#ff00ff" points="212.424,156.14 211.424,156.14 210.924,155.274 211.424,154.408 212.424,154.408 212.924,155.274"/>
   <polygon shape-rendering="crispEdges" fill="#0000ff" points="189.148,189.602 188.148,189.602 187.648,188.736 188.148,187.87 189.148,187.87 189.648,188.736 189.648,188.736"/>
   <polygon shape-rendering="crispEdges" fill="#ff00ff" points="224.063,151.673 223.063,151.673 222.563,150.807 223.063,149.941 224.063,149.941 224.563,150.807 224.563,150.807"/>
   <polygon shape-rendering="crispEdges" fill="#ff00ff" points="213.144,155.946 212.144,155.946 211.644,155.08 212.144,154.214 213.144,154.214 213.644,155.08"/>
   <polygon shape-rendering="crispEdges" fill="#ff00ff" points="249.044,138.015 248.044,138.015 247.544,137.148 248.044,136.282 249.044,136.282 249.544,137.148 249.544,137.148"/>
   <polygon shape-rendering="crispEdges" fill="#ff00ff" points="223.393,151.832 222.393,151.832 221.893,150.965 222.393,150.099 223.393,150.099 223.893,150.965 223.893,150.965"/>
   <polygon shape-rendering="crispEdges" fill="#0000ff" points="174.588,171.795 173.588,171.795 173.088,170.929 173.588,170.063 174.588,170.063 175.088,170.929 175.088,170.929"/>
   <polygon shape-rendering="crispEdges" fill="#ff00ff" points="213.779,155.781 212.779,155.781 212.279,154.915 212.779,154.049 213.779,154.049 214.279,154.915"/>
   <polygon shape-rendering="crispEdges" fill="#ff00ff" points="222.801,151.968 221.801,151.968 221.301,151.102 221.801,150.236 222.801,150.236 223.301,151.102 223.301,151.102"/>
   <polygon shape-rendering="crispEdges" fill="#ff00ff" points="214.343,155.639 213.343,155.639 212.843,154.773 213.343,153.907 214.343,153.907 214.843,154.773"/>
   <polygon shape-rendering="crispEdges" fill="#ff00ff" points="222.275,152.086 221.275,152.086 220.775,151.22 221.275,150.354 222.275,150.354 222.775,151.22 222.775,151.22"/>
   <polygon shape-rendering="crispEdges" fill="#ff00ff" points="214.845,155.514 213.845,155.514 213.345,154.648 213.845,153.782 214.845,153.782 215.345,154.648"/>
   <polygon shape-rendering="crispEdges" fill="#ff00ff" points="221.805,152.191 220.805,152.191 220.305,151.325 220.805,150.459 221.805,150.459 222.305,151.325 222.305,151.325"/>
   <polygon shape-rendering="crispEdges" fill="#ff00ff" points="215.293,155.403 214.293,155.403 213.793,154.537 214.293,153.671 215.293,153.671 215.793,154.537"/>
   <polygon shape-rendering="crispEdges" fill="#0000ff" points="250.399,115.597 249.399,115.597 248.899,114.731 249.399,113.865 250.399,113.865 250.899,114.731 250.899,114.731"/>
   <polygon shape-rendering="crispEdges" fill="#ff00ff" points="221.384,152.284 220.384,152.284 219.884,151.418 220.384,150.552 221.384,150.552 221.884,151.418 221.884,151.418"/>
   <polygon shape-rendering="crispEdges" fill="#ff00ff" points="214.695,155.303 214.195,154.437 214.695,153.571 215.695,153.571 216.195,154.437"/>
   <polygon shape-rendering="crispEdges" fill="#ff00ff" points="221.006,152.37 220.006,152.37 219.506,151.504 220.006,150.638 221.006,150.638 221.506,151.504 221.506,151.504"/>
   <polygon shape-rendering="crispEdges" fill="#ff00ff" points="215.057,155.212 214.557,154.346 215.057,153.48 216.057,153.48 216.557,154.346"/>
   <polygon shape-rendering="crispEdges" fill="#ff00ff" points="220.666,152.448 219.666,152.448 219.166,151.582 219.666,150.716 220.666,150.716 221.166,151.582 221.166,151.582"/>
   <polygon shape-rendering="crispEdges" fill="#ff00ff" points="215.382,155.128 214.882,154.262 215.382,153.396 216.382,153.396 216.882,154.262"/>
   <polygon shape-rendering="crispEdges" fill="#ff00ff" points="185.969,173.023 184.969,173.023 184.469,172.157 184.969,171.291 185.969,171.291 186.469,172.157 186.469,172.157"/>
   <polygon shape-rendering="crispEdges" fill="#ff00ff" points="220.359,152.521 219.359,152.521 218.859,151.655 219.359,150.789 220.359,150.789 220.859,151.655 220.859,151.655"/>
   <polygon shape-rendering="crispEdges" fill="#ff00ff" points="215.676,155.05 215.176,154.184 215.676,153.318 216.676,153.318 217.176,154.184"/>
   <polygon shape-rendering="crispEdges" fill="#ff00ff" points="220.081,152.589 219.081,152.589 218.581,151.723 219.081,150.857 220.081,150.857 220.581,151.723 220.581,151.723"/>
   <polygon shape-rendering="crispEdges" fill="#ff00ff" points="216.942,154.977 215.942,154.977 217.442,154.111"/>
   <polygon shape-rendering="crispEdges" fill="#ff00ff" points="218.331,151.788 218.831,150.922 219.831,150.922 220.331,151.788"/>
   <polygon shape-rendering="crispEdges" fill="#ff00ff" points="217.182,154.908 216.182,154.908 217.682,154.042"/>
   <polygon shape-rendering="crispEdges" fill="#ff00ff" points="218.104,151.849 218.604,150.983 219.604,150.983 220.104,151.849"/>
   <polygon shape-rendering="crispEdges" fill="#ff00ff" points="217.399,154.842 216.399,154.842 217.899,153.976"/>
   <polygon shape-rendering="crispEdges" fill="#ff00ff" points="217.898,151.908 218.398,151.042 219.398,151.042 219.898,151.908"/>
   <polygon shape-rendering="crispEdges" fill="#0000ff" points="265.917,129.879 264.917,129.879 264.417,129.013 264.917,128.147 265.917,128.147 266.417,129.013 266.417,129.013"/>
   <polygon shape-rendering="crispEdges" fill="#ff00ff" points="217.596,154.78 216.596,154.78 218.096,153.914"/>
   <polygon shape-rendering="crispEdges" fill="#ff00ff" points="217.712,151.965 218.212,151.099 219.212,151.099 219.712,151.965"/>
   <polygon shape-rendering="crispEdges" fill="#ff00ff" points="217.774,154.72 216.774,154.72 218.274,153.854"/>
   <polygon shape-rendering="crispEdges" fill="#ff00ff" points="252.459,133.66 251.459,133.66 250.959,132.794 251.459,131.928 252.459,131.928 252.959,132.794 252.959,132.794"/>
   <polygon shape-rendering="crispEdges" fill="#ff00ff" points="217.543,152.019 218.043,151.153 219.043,151.153 219.543,152.019"/>
   <polygon shape-rendering="crispEdges" fill="#ff00ff" points="217.935,154.662 216.935,154.662 218.435,153.796"/>
   <polygon shape-rendering="crispEdges" fill="#ff00ff" points="217.391,152.072 217.891,151.206 218.891,151.206 219.391,152.072"/>
   <polygon shape-rendering="crispEdges" fill="#ff00ff" points="218.08,154.606 217.08,154.606 216.58,153.74 218.58,153.74"/>
   <polygon shape-rendering="crispEdges" fill="#ff00ff" points="217.254,152.123 217.754,151.257 218.754,151.257 219.254,152.123"/>
   <polygon shape-rendering="crispEdges" fill="#ff00ff" points="218.211,154.553 217.211,154.553 216.711,153.686 218.711,153.686"/>
   <polygon shape-rendering="crispEdges" fill="#ff00ff" points="217.129,152.173 217.629,151.307 218.629,151.307 219.129,152.173 219.129,152.173"/>
   <polygon shape-rendering="crispEdges" fill="#ff00ff" points="218.33,154.501 217.33,154.501 216.83,153.635 218.83,153.635"/>
   <polygon shape-rendering="crispEdges" fill="#0000ff" points="180.038,193.567 179.038,193.567 178.538,192.701 179.038,191.835 180.038,191.835 180.538,192.701 180.538,192.701"/>
   <polygon shape-rendering="crispEdges" fill="#ff00ff" points="217.018,152.221 217.518,151.355 218.518,151.355 219.018,152.221 219.018,152.221"/>
   <polygon shape-rendering="crispEdges" fill="#ff00ff" points="218.436,154.451 217.436,154.451 216.936,153.584 218.936,153.584"/>
   <polygon shape-rendering="crispEdges" fill="#ff00ff" points="216.917,152.268 217.417,151.402 218.417,151.402 218.917,152.268 218.917,152.268"/>
   <polygon shape-rendering="crispEdges" fill="#ff00ff" points="218.531,154.402 217.531,154.402 217.031,153.536 219.031,153.536"/>
   <polygon shape-rendering="crispEdges" fill="#ff00ff" points="216.828,152.313 217.328,151.447 218.328,151.447 218.828,152.313 218.828,152.313"/>
   <polygon shape-rendering="crispEdges" fill="#ff00ff" points="218.616,154.355 217.616,154.355 219.116,153.489"/>
   <polygon shape-rendering="crispEdges" fill="#ff00ff" points="216.748,152.357 217.248,151.491 218.248,151.491 218.748,152.357"/>
   <polygon shape-rendering="crispEdges" fill="#0000ff" points="168.234,179.145 167.234,179.145 166.734,178.279 167.234,177.413 168.234,177.413 168.734,178.279 168.734,178.279"/>
   <polygon shape-rendering="crispEdges" fill="#ff00ff" points="218.691,154.31 217.691,154.31 219.191,153.444"/>
   <polygon shape-rendering="crispEdges" fill="#ff00ff" points="216.677,152.399 217.177,151.533 218.177,151.533 218.677,152.399"/>
   <polygon shape-rendering="crispEdges" fill="#ff00ff" points="218.758,154.266 217.758,154.266 219.258,153.4"/>
   <polygon shape-rendering="crispEdges" fill="#ff00ff" points="216.614,152.441 217.114,151.575 218.114,151.575 218.614,152.441"/>
   <polygon shape-rendering="crispEdges" fill="#ff00ff" points="218.816,154.224 217.816,154.224 219.316,153.358"/>
   <polygon shape-rendering="crispEdges" fill="#ff00ff" points="216.56,152.48 217.06,151.614 218.06,151.614 218.56,152.48"/>
   <polygon shape-rendering="crispEdges" fill="#ff00ff" points="218.867,154.184 217.867,154.184 219.367,153.318"/>
   <polygon shape-rendering="crispEdges" fill="#ff00ff" points="216.512,152.518 217.012,151.652 218.012,151.652 218.512,152.518"/>
   <polygon shape-rendering="crispEdges" fill="#ff00ff" points="218.911,154.145 217.911,154.145 219.411,153.279"/>
   <polygon shape-rendering="crispEdges" fill="#ff00ff" points="216.472,152.555 216.972,151.689 217.972,151.689 218.472,152.555"/>
   <polygon shape-rendering="crispEdges" fill="#ff00ff" points="218.949,154.108 217.949,154.108 219.449,153.242"/>
   <polygon shape-rendering="crispEdges" fill="#ff00ff" points="216.437,152.59 216.937,151.724 217.937,151.724 218.437,152.59"/>
   <polygon shape-rendering="crispEdges" fill="#ff00ff" points="218.98,154.073 217.98,154.073 219.48,153.207"/>
   <polygon shape-rendering="crispEdges" fill="#0000ff" points="258.902,111.785 257.902,111.785 257.402,110.919 257.902,110.053 258.902,110.053 259.402,110.919 259.402,110.919"/>
   <polygon shape-rendering="crispEdges" fill="#ff00ff" points="216.409,152.624 216.909,151.758 217.909,151.758 218.409,152.624"/>
   <polygon shape-rendering="crispEdges" fill="#ff00ff" points="219.006,154.039 218.006,154.039 219.506,153.173"/>
   <polygon shape-rendering="crispEdges" fill="#ff00ff" points="216.385,152.656 216.885,151.79 217.885,151.79 218.385,152.656"/>
   <polygon shape-rendering="crispEdges" fill="#ff00ff" points="219.027,154.007 218.027,154.007 219.527,153.141"/>
   <polygon shape-rendering="crispEdges" fill="#ff00ff" points="216.367,152.687 216.867,151.821 217.867,151.821 218.367,152.687"/>
   <polygon shape-rendering="crispEdges" fill="#ff00ff" points="219.042,153.977 218.042,153.977 219.542,153.111"/>
   <polygon shape-rendering="crispEdges" fill="#ff00ff" points="216.354,152.715 216.854,151.849 217.854,151.849 218.354,152.715"/>
   <polygon shape-rendering="crispEdges" fill="#ff00ff" points="219.053,153.949 218.053,153.949 219.553,153.083"/>
   <polygon shape-rendering="crispEdges" fill="#ff00ff" points="183.979,177.34 182.979,177.34 182.479,176.474 182.979,175.608 183.979,175.608 184.479,176.474 184.479,176.474"/>
   <polygon shape-rendering="crispEdges" fill="#ff00ff" points="216.345,152.742 216.845,151.876 217.845,151.876 218.345,152.742"/>
   <polygon shape-rendering="crispEdges" fill="#ff00ff" points="219.06,153.922 218.06,153.922 219.56,153.056"/>
   <polygon shape-rendering="crispEdges" fill="#ff00ff" points="216.34,152.768 216.84,151.902 217.84,151.902 218.34,152.768"/>
   <polygon shape-rendering="crispEdges" fill="#ff00ff" points="216.339,152.791 216.839,151.925 217.839,151.925 218.339,152.791"/>
   <polygon shape-rendering="crispEdges" fill="#0000ff" points="271.32,123.042 270.32,123.042 269.82,122.176 270.32,121.31 271.32,121.31 271.82,122.176 271.82,122.176"/>
   <polygon shape-rendering="crispEdges" fill="#ff00ff" points="217.365,152.881 217.865,152.015 218.865,152.015 219.365,152.881"/>
   <polygon shape-rendering="crispEdges" fill="#0000ff" points="172.264,196.664 171.264,196.664 170.764,195.798 171.264,194.932 172.264,194.932 172.764,195.798 172.764,195.798"/>
   <polygon shape-rendering="crispEdges" fill="#ff00ff" points="217.216,153.761 216.716,152.895 218.716,152.895"/>
   <polygon shape-rendering="crispEdges" fill="#ff00ff" points="217.216,152.029 218.216,152.029 218.716,152.895 218.716,152.895"/>
   <polygon shape-rendering="crispEdges" fill="#ff00ff" points="217.243,153.75 216.743,152.884 218.743,152.884"/>
   <polygon shape-rendering="crispEdges" fill="#ff00ff" points="217.243,152.018 218.243,152.018 218.743,152.884 218.743,152.884"/>
   <polygon shape-rendering="crispEdges" fill="#0000ff" points="163.076,185.496 162.076,185.496 161.576,184.63 162.076,183.764 163.076,183.764 163.576,184.63 163.576,184.63"/>
   <polygon shape-rendering="crispEdges" fill="#ff00ff" points="217.351,153.69 216.851,152.824 218.851,152.824"/>
   <polygon shape-rendering="crispEdges" fill="#ff00ff" points="251.893,127.432 250.893,127.432 250.393,126.566 250.893,125.7 251.893,125.7 252.393,126.566 252.393,126.566"/>
   <polygon shape-rendering="crispEdges" fill="#0000ff" points="266.165,108.77 265.165,108.77 264.665,107.904 265.165,107.038 266.165,107.038 266.665,107.904 266.665,107.904"/>
   <polygon shape-rendering="crispEdges" fill="#ff00ff" points="216.864,153.2 217.364,152.334 218.864,153.2"/>
   <polygon shape-rendering="crispEdges" fill="#ff00ff" points="185.303,180.014 184.303,180.014 183.803,179.148 184.303,178.282 185.303,178.282 185.803,179.148 185.803,179.148"/>
   <polygon shape-rendering="crispEdges" fill="#ff00ff" points="217.568,153.245 217.068,152.379 219.068,152.379"/>
   <polygon shape-rendering="crispEdges" fill="#ff00ff" points="217.568,151.513 218.568,151.513 219.068,152.379 219.068,152.379"/>
   <polygon shape-rendering="crispEdges" fill="#0000ff" points="275.738,117.148 274.738,117.148 274.238,116.282 274.738,115.415 275.738,115.415 276.238,116.282 276.238,116.282"/>
   <polygon shape-rendering="crispEdges" fill="#ff00ff" points="217.348,154.317 216.848,153.451 218.848,153.451"/>
   <polygon shape-rendering="crispEdges" fill="#ff00ff" points="217.556,151.5 218.556,151.5 219.056,152.366 219.056,152.366"/>
   <polygon shape-rendering="crispEdges" fill="#ff00ff" points="218.362,154.329 217.362,154.329 216.862,153.463 218.862,153.463"/>
   <polygon shape-rendering="crispEdges" fill="#ff00ff" points="217.541,151.488 218.541,151.488 219.041,152.354 219.041,152.354"/>
   <polygon shape-rendering="crispEdges" fill="#ff00ff" points="218.378,154.339 217.378,154.339 216.878,153.473 218.878,153.473"/>
   <polygon shape-rendering="crispEdges" fill="#ff00ff" points="217.523,151.479 218.523,151.479 219.023,152.345 219.023,152.345"/>
   <polygon shape-rendering="crispEdges" fill="#ff00ff" points="218.397,154.347 217.397,154.347 216.897,153.481 218.897,153.481"/>
   <polygon shape-rendering="crispEdges" fill="#ff00ff" points="217.503,151.473 218.503,151.473 219.003,152.339 219.003,152.339"/>
   <polygon shape-rendering="crispEdges" fill="#ff00ff" points="218.418,154.352 217.418,154.352 216.918,153.486 218.918,153.486"/>
   <polygon shape-rendering="crispEdges" fill="#ff00ff" points="217.48,151.47 218.48,151.47 218.98,152.336 218.98,152.336"/>
   <polygon shape-rendering="crispEdges" fill="#ff00ff" points="218.442,154.353 217.442,154.353 216.942,153.487 218.942,153.487"/>
   <polygon shape-rendering="crispEdges" fill="#ff00ff" points="217.454,151.469 218.454,151.469 218.954,152.335 218.954,152.335"/>
   <polygon shape-rendering="crispEdges" fill="#ff00ff" points="218.469,154.352 217.469,154.352 216.969,153.486 218.969,153.486"/>
   <polygon shape-rendering="crispEdges" fill="#ff00ff" points="216.925,152.339 217.425,151.473 218.425,151.473 218.925,152.339 218.925,152.339"/>
   <polygon shape-rendering="crispEdges" fill="#ff00ff" points="218.499,154.346 217.499,154.346 216.999,153.48 218.999,153.48"/>
   <polygon shape-rendering="crispEdges" fill="#0000ff" points="165.617,199.137 164.617,199.137 164.117,198.271 164.617,197.405 165.617,197.405 166.117,198.271 166.117,198.271"/>
   <polygon shape-rendering="crispEdges" fill="#ff00ff" points="216.893,152.346 217.393,151.48 218.393,151.48 218.893,152.346 218.893,152.346"/>
   <polygon shape-rendering="crispEdges" fill="#ff00ff" points="218.532,154.337 217.532,154.337 217.032,153.471 219.032,153.471"/>
   <polygon shape-rendering="crispEdges" fill="#ff00ff" points="216.858,152.357 217.358,151.491 218.358,151.491 218.858,152.357 218.858,152.357"/>
   <polygon shape-rendering="crispEdges" fill="#ff00ff" points="218.568,154.323 217.568,154.323 217.068,153.457 219.068,153.457"/>
   <polygon shape-rendering="crispEdges" fill="#ff00ff" points="216.82,152.373 217.32,151.507 218.32,151.507 218.82,152.373 218.82,152.373"/>
   <polygon shape-rendering="crispEdges" fill="#ff00ff" points="218.607,154.304 217.607,154.304 217.107,153.438 219.107,153.438"/>
   <polygon shape-rendering="crispEdges" fill="#ff00ff" points="216.779,152.394 217.279,151.528 218.279,151.528 218.779,152.394 218.779,152.394"/>
   <polygon shape-rendering="crispEdges" fill="#ff00ff" points="218.648,154.281 217.648,154.281 217.148,153.415 219.148,153.415"/>
   <polygon shape-rendering="crispEdges" fill="#ff00ff" points="216.734,152.42 217.234,151.554 218.234,151.554 218.734,152.42 218.734,152.42"/>
   <polygon shape-rendering="crispEdges" fill="#0000ff" points="158.827,190.978 157.827,190.978 157.327,190.112 157.827,189.246 158.827,189.246 159.327,190.112 159.327,190.112"/>
   <polygon shape-rendering="crispEdges" fill="#ff00ff" points="218.694,154.251 217.694,154.251 217.194,153.385 219.194,153.385"/>
   <polygon shape-rendering="crispEdges" fill="#ff00ff" points="216.686,152.452 217.186,151.586 218.186,151.586 218.686,152.452 218.686,152.452"/>
   <polygon shape-rendering="crispEdges" fill="#ff00ff" points="218.742,154.216 217.742,154.216 217.242,153.35 219.242,153.35"/>
   <polygon shape-rendering="crispEdges" fill="#ff00ff" points="216.634,152.491 217.134,151.625 218.134,151.625 218.634,152.491 218.634,152.491"/>
   <polygon shape-rendering="crispEdges" fill="#ff00ff" points="218.794,154.174 217.794,154.174 217.294,153.308 219.294,153.308"/>
   <polygon shape-rendering="crispEdges" fill="#ff00ff" points="216.579,152.536 217.079,151.67 218.079,151.67 218.579,152.536 218.579,152.536"/>
   <polygon shape-rendering="crispEdges" fill="#ff00ff" points="218.85,154.124 217.85,154.124 217.35,153.258 219.35,153.258"/>
   <polygon shape-rendering="crispEdges" fill="#ff00ff" points="216.52,152.588 217.02,151.722 218.02,151.722 218.52,152.588 218.52,152.588"/>
   <polygon shape-rendering="crispEdges" fill="#ff00ff" points="218.91,154.068 217.91,154.068 217.41,153.202 217.91,152.335 219.41,153.202"/>
   <polygon shape-rendering="crispEdges" fill="#ff00ff" points="216.456,152.649 216.956,151.783 217.956,151.783 218.456,152.649 218.456,152.649"/>
   <polygon shape-rendering="crispEdges" fill="#ff00ff" points="218.973,154.002 217.973,154.002 217.473,153.136 219.473,153.136"/>
   <polygon shape-rendering="crispEdges" fill="#ff00ff" points="248.489,126.557 247.489,126.557 246.989,125.691 247.489,124.825 248.489,124.825 248.989,125.691 248.989,125.691"/>
   <polygon shape-rendering="crispEdges" fill="#ff00ff" points="216.389,152.718 216.889,151.852 217.889,151.852 218.389,152.718 218.389,152.718"/>
   <polygon shape-rendering="crispEdges" fill="#ff00ff" points="219.04,153.928 218.04,153.928 217.54,153.062 218.04,152.196 219.04,152.196 219.54,153.062"/>
   <polygon shape-rendering="crispEdges" fill="#0000ff" points="272.39,106.333 271.39,106.333 270.89,105.467 271.39,104.601 272.39,104.601 272.89,105.467 272.89,105.467"/>
   <polygon shape-rendering="crispEdges" fill="#ff00ff" points="217.816,153.663 216.816,153.663 218.316,152.797"/>
   <polygon shape-rendering="crispEdges" fill="#ff00ff" points="216.316,152.797 216.816,151.931 217.816,151.931 218.316,152.797 218.316,152.797"/>
   <polygon shape-rendering="crispEdges" fill="#ff00ff" points="219.112,153.844 218.112,153.844 217.612,152.978 218.112,152.112 219.112,152.112 219.612,152.978"/>
   <polygon shape-rendering="crispEdges" fill="#ff00ff" points="217.74,153.752 216.74,153.752 218.24,152.886"/>
   <polygon shape-rendering="crispEdges" fill="#ff00ff" points="216.24,152.886 216.74,152.02 217.74,152.02 218.24,152.886 218.24,152.886"/>
   <polygon shape-rendering="crispEdges" fill="#ff00ff" points="219.189,153.749 218.189,153.749 217.689,152.883 218.189,152.017 219.189,152.017 219.689,152.883"/>
   <polygon shape-rendering="crispEdges" fill="#ff00ff" points="217.658,153.853 216.658,153.853 218.158,152.987"/>
   <polygon shape-rendering="crispEdges" fill="#ff00ff" points="216.158,152.987 216.658,152.12 217.658,152.12 218.158,152.987 218.158,152.987"/>
   <polygon shape-rendering="crispEdges" fill="#ff00ff" points="219.27,153.642 218.27,153.642 217.77,152.776 218.27,151.91 219.27,151.91 219.77,152.776"/>
   <polygon shape-rendering="crispEdges" fill="#ff00ff" points="217.57,153.965 216.57,153.965 216.07,153.099 216.57,152.233 217.57,152.233 218.07,153.099 218.07,153.099"/>
   <polygon shape-rendering="crispEdges" fill="#ff00ff" points="219.357,153.523 218.357,153.523 217.857,152.657 218.357,151.791 219.357,151.791 219.857,152.657"/>
   <polygon shape-rendering="crispEdges" fill="#ff00ff" points="217.476,154.091 216.476,154.091 215.976,153.225 216.476,152.359 217.476,152.359 217.976,153.225 217.976,153.225"/>
   <polygon shape-rendering="crispEdges" fill="#ff00ff" points="219.45,153.39 218.45,153.39 217.95,152.524 218.45,151.658 219.45,151.658 219.95,152.524"/>
   <polygon shape-rendering="crispEdges" fill="#ff00ff" points="217.376,154.231 216.376,154.231 215.876,153.365 216.376,152.499 217.376,152.499 217.876,153.365 217.876,153.365"/>
   <polygon shape-rendering="crispEdges" fill="#ff00ff" points="219.549,153.241 218.549,153.241 218.049,152.375 218.549,151.509 219.549,151.509 220.049,152.375"/>
   <polygon shape-rendering="crispEdges" fill="#ff00ff" points="217.269,154.387 216.269,154.387 215.769,153.521 216.269,152.655 217.269,152.655 217.769,153.521 217.769,153.521"/>
   <polygon shape-rendering="crispEdges" fill="#ff00ff" points="219.656,153.076 218.656,153.076 218.156,152.21 218.656,151.344 219.656,151.344 220.156,152.21"/>
   <polygon shape-rendering="crispEdges" fill="#ff00ff" points="189.584,179.947 188.584,179.947 188.084,179.081 188.584,178.215 189.584,178.215 190.084,179.081 190.084,179.081"/>
   <polygon shape-rendering="crispEdges" fill="#ff00ff" points="217.154,154.561 216.154,154.561 215.654,153.695 216.154,152.829 217.154,152.829 217.654,153.695 217.654,153.695"/>
   <polygon shape-rendering="crispEdges" fill="#ff00ff" points="219.77,152.893 218.77,152.893 218.27,152.027 218.77,151.161 219.77,151.161 220.27,152.027"/>
   <polygon shape-rendering="crispEdges" fill="#ff00ff" points="217.03,154.754 216.03,154.754 215.53,153.888 216.03,153.022 217.03,153.022 217.53,153.888 217.53,153.888"/>
   <polygon shape-rendering="crispEdges" fill="#ff00ff" points="219.893,152.689 218.893,152.689 218.393,151.823 218.893,150.957 220.393,151.823"/>
   <polygon shape-rendering="crispEdges" fill="#0000ff" points="279.411,112.056 278.411,112.056 277.911,111.19 278.411,110.324 279.411,110.324 279.911,111.19 279.911,111.19"/>
   <polygon shape-rendering="crispEdges" fill="#ff00ff" points="216.895,154.969 215.895,154.969 215.395,154.103 215.895,153.236 216.895,153.236 217.395,154.103 217.395,154.103"/>
   <polygon shape-rendering="crispEdges" fill="#ff00ff" points="220.026,152.463 219.026,152.463 218.526,151.597 219.026,150.731 220.526,151.597"/>
   <polygon shape-rendering="crispEdges" fill="#ff00ff" points="216.75,155.207 215.75,155.207 215.25,154.341 215.75,153.475 216.75,153.475 217.25,154.341 217.25,154.341"/>
   <polygon shape-rendering="crispEdges" fill="#ff00ff" points="220.17,152.212 219.17,152.212 218.67,151.346 219.17,150.48 220.67,151.346"/>
   <polygon shape-rendering="crispEdges" fill="#ff00ff" points="216.591,155.471 215.591,155.471 215.091,154.605 215.591,153.739 216.591,153.739 217.091,154.605 217.091,154.605"/>
   <polygon shape-rendering="crispEdges" fill="#ff00ff" points="220.328,151.933 219.328,151.933 218.828,151.067 219.328,150.201 220.328,150.201 220.828,151.067 220.828,151.067"/>
   <polygon shape-rendering="crispEdges" fill="#ff00ff" points="216.417,155.766 215.417,155.766 214.917,154.9 215.417,154.034 216.417,154.034 216.917,154.9 216.917,154.9"/>
   <polygon shape-rendering="crispEdges" fill="#ff00ff" points="220.5,151.622 219.5,151.622 219,150.756 219.5,149.89 220.5,149.89 221,150.756 221,150.756"/>
   <polygon shape-rendering="crispEdges" fill="#0000ff" points="159.904,201.159 158.904,201.159 158.404,200.293 158.904,199.427 159.904,199.427 160.404,200.293 160.404,200.293"/>
   <polygon shape-rendering="crispEdges" fill="#ff00ff" points="216.226,156.093 215.226,156.093 214.726,155.227 215.226,154.361 216.226,154.361 216.726,155.227 216.726,155.227"/>
   <polygon shape-rendering="crispEdges" fill="#ff00ff" points="220.691,151.277 219.691,151.277 219.191,150.411 219.691,149.545 220.691,149.545 221.191,150.411 221.191,150.411"/>
   <polygon shape-rendering="crispEdges" fill="#ff00ff" points="216.013,156.458 215.013,156.458 214.513,155.592 215.013,154.726 216.013,154.726 216.513,155.592 216.513,155.592"/>
   <polygon shape-rendering="crispEdges" fill="#ff00ff" points="220.903,150.891 219.903,150.891 219.403,150.025 219.903,149.159 220.903,149.159 221.403,150.025 221.403,150.025"/>
   <polygon shape-rendering="crispEdges" fill="#ff00ff" points="215.776,156.866 214.776,156.866 214.276,156 214.776,155.134 215.776,155.134 216.276,156 216.276,156"/>
   <polygon shape-rendering="crispEdges" fill="#0000ff" points="155.271,195.722 154.271,195.722 153.771,194.856 154.271,193.99 155.271,193.99 155.771,194.856 155.771,194.856"/>
   <polygon shape-rendering="crispEdges" fill="#ff00ff" points="221.14,150.46 220.14,150.46 219.64,149.594 220.14,148.728 221.14,148.728 221.64,149.594 221.64,149.594"/>
   <polygon shape-rendering="crispEdges" fill="#ff00ff" points="243.422,128.187 242.422,128.187 241.922,127.321 242.422,126.455 243.422,126.455 243.922,127.321 243.922,127.321"/>
   <polygon shape-rendering="crispEdges" fill="#ff00ff" points="215.509,157.323 214.509,157.323 214.009,156.457 214.509,155.591 215.509,155.591 216.009,156.457 216.009,156.457"/>
   <polygon shape-rendering="crispEdges" fill="#ff00ff" points="221.408,149.977 220.408,149.977 219.908,149.111 220.408,148.245 221.408,148.245 221.908,149.111 221.908,149.111"/>
   <polygon shape-rendering="crispEdges" fill="#ff00ff" points="215.207,157.836 214.207,157.836 213.707,156.97 214.207,156.104 215.207,156.104 215.707,156.97 215.707,156.97"/>
   <polygon shape-rendering="crispEdges" fill="#ff00ff" points="221.713,149.434 220.713,149.434 220.213,148.568 220.713,147.702 222.213,148.568"/>
   <polygon shape-rendering="crispEdges" fill="#ff00ff" points="214.86,158.414 213.86,158.414 213.36,157.548 213.86,156.682 214.86,156.682 215.36,157.548 215.36,157.548"/>
   <polygon shape-rendering="crispEdges" fill="#ff00ff" points="222.065,148.82 221.065,148.82 220.565,147.954 221.065,147.088 222.065,147.088 222.565,147.954"/>
   <polygon shape-rendering="crispEdges" fill="#0000ff" points="277.753,104.319 276.753,104.319 276.253,103.453 276.753,102.587 277.753,102.587 278.253,103.453 278.253,103.453"/>
   <polygon shape-rendering="crispEdges" fill="#ff00ff" points="194.795,177.838 193.795,177.838 193.295,176.972 193.795,176.106 194.795,176.106 195.295,176.972 195.295,176.972"/>
   <polygon shape-rendering="crispEdges" fill="#ff00ff" points="214.458,159.069 213.458,159.069 212.958,158.203 213.458,157.337 214.458,157.337 214.958,158.203 214.958,158.203"/>
   <polygon shape-rendering="crispEdges" fill="#ff00ff" points="222.473,148.124 221.473,148.124 220.973,147.258 221.473,146.392 222.473,146.392 222.973,147.258"/>
   <polygon shape-rendering="crispEdges" fill="#ff00ff" points="213.988,159.813 212.988,159.813 212.488,158.947 212.988,158.081 213.988,158.081 214.488,158.947 214.488,158.947"/>
   <polygon shape-rendering="crispEdges" fill="#ff00ff" points="222.954,147.331 221.954,147.331 221.454,146.465 221.954,145.599 222.954,145.599 223.454,146.465 223.454,146.465"/>
   <polygon shape-rendering="crispEdges" fill="#ff00ff" points="213.431,160.664 212.431,160.664 211.931,159.798 212.431,158.932 213.431,158.932 213.931,159.798 213.931,159.798"/>
   <polygon shape-rendering="crispEdges" fill="#ff00ff" points="223.528,146.422 222.528,146.422 222.028,145.556 222.528,144.69 223.528,144.69 224.028,145.556 224.028,145.556"/>
   <polygon shape-rendering="crispEdges" fill="#ff00ff" points="238.535,131.012 237.535,131.012 237.035,130.146 237.535,129.28 238.535,129.28 239.035,130.146 239.035,130.146"/>
   <polygon shape-rendering="crispEdges" fill="#ff00ff" points="212.762,161.643 211.762,161.643 211.262,160.777 211.762,159.911 212.762,159.911 213.262,160.777 213.262,160.777"/>
   <polygon shape-rendering="crispEdges" fill="#ff00ff" points="224.222,145.373 223.222,145.373 222.722,144.507 223.222,143.641 224.222,143.641 224.722,144.507 224.722,144.507"/>
   <polygon shape-rendering="crispEdges" fill="#ff00ff" points="211.947,162.776 210.947,162.776 210.447,161.91 210.947,161.044 211.947,161.044 212.447,161.91 212.447,161.91"/>
   <polygon shape-rendering="crispEdges" fill="#ff00ff" points="199.444,174.977 198.444,174.977 197.944,174.111 198.444,173.245 199.444,173.245 199.944,174.111 199.944,174.111"/>
   <polygon shape-rendering="crispEdges" fill="#ff00ff" points="225.075,144.154 224.075,144.154 223.575,143.288 224.075,142.422 225.075,142.422 225.575,143.288 225.575,143.288"/>
   <polygon shape-rendering="crispEdges" fill="#0000ff" points="282.511,107.645 281.511,107.645 281.011,106.779 281.511,105.912 282.511,105.912 283.011,106.779 283.011,106.779"/>
   <polygon shape-rendering="crispEdges" fill="#ff00ff" points="210.937,164.096 209.937,164.096 209.437,163.23 209.937,162.364 210.937,162.364 211.437,163.23 211.437,163.23"/>
   <polygon shape-rendering="crispEdges" fill="#ff00ff" points="226.139,142.729 225.139,142.729 224.639,141.862 225.139,140.996 226.139,140.996 226.639,141.862 226.639,141.862"/>
   <polygon shape-rendering="crispEdges" fill="#ff00ff" points="234.566,134.001 233.566,134.001 233.066,133.135 233.566,132.269 234.566,132.269 235.066,133.135 235.066,133.135"/>
   <polygon shape-rendering="crispEdges" fill="#ff00ff" points="209.665,165.646 208.665,165.646 208.165,164.78 208.665,163.913 209.665,163.913 210.165,164.78 210.165,164.78"/>
   <polygon shape-rendering="crispEdges" fill="#ff00ff" points="227.491,141.05 226.491,141.05 225.991,140.184 226.491,139.318 227.491,139.318 227.991,140.184 227.991,140.184"/>
   <polygon shape-rendering="crispEdges" fill="#ff00ff" points="203.117,172.147 202.117,172.147 201.617,171.281 202.117,170.415 203.117,170.415 203.617,171.281 203.617,171.281"/>
   <polygon shape-rendering="crispEdges" fill="#ff00ff" points="208.035,167.473 207.035,167.473 206.535,166.607 207.035,165.741 208.035,165.741 208.535,166.607 208.535,166.607"/>
   <polygon shape-rendering="crispEdges" fill="#ff00ff" points="229.238,139.064 228.238,139.064 227.738,138.198 228.238,137.332 229.238,137.332 229.738,138.198 229.738,138.198"/>
   <polygon shape-rendering="crispEdges" fill="#ff00ff" points="231.532,136.721 230.532,136.721 230.032,135.855 230.532,134.989 231.532,134.989 232.032,135.855 232.032,135.855"/>
   <polygon shape-rendering="crispEdges" fill="#ff00ff" points="205.913,169.629 204.913,169.629 204.413,168.763 204.913,167.897 205.913,167.897 206.413,168.763 206.413,168.763"/>
   <polygon shape-rendering="crispEdges" fill="#0000ff" points="154.967,202.848 153.967,202.848 153.467,201.982 153.967,201.116 154.967,201.116 155.467,201.982 155.467,201.982"/>
   <polygon shape-rendering="crispEdges" fill="#0000ff" points="152.25,199.839 151.25,199.839 150.75,198.973 151.25,198.107 152.25,198.107 152.75,198.973 152.75,198.973"/>
   <polygon shape-rendering="crispEdges" fill="#0000ff" points="282.397,102.619 281.397,102.619 280.897,101.753 281.397,100.887 282.397,100.887 282.897,101.753 282.897,101.753"/>
   <polygon shape-rendering="crispEdges" fill="#0000ff" points="285.165,103.808 284.165,103.808 283.665,102.942 284.165,102.076 285.165,102.076 285.665,102.942 285.665,102.942"/>
   <polygon shape-rendering="crispEdges" fill="#0000ff" points="150.679,204.289 149.679,204.289 149.179,203.423 149.679,202.557 150.679,202.557 151.179,203.423 151.179,203.423"/>
   <polygon shape-rendering="crispEdges" fill="#0000ff" points="149.652,203.424 148.652,203.424 148.152,202.558 148.652,201.692 149.652,201.692 150.152,202.558 150.152,202.558"/>
   <polygon shape-rendering="crispEdges" fill="#0000ff" points="286.438,101.158 285.438,101.158 284.938,100.292 285.438,99.4259 286.438,99.4259 286.938,100.292"/>
   <polygon shape-rendering="crispEdges" fill="#0000ff" points="287.464,100.463 286.464,100.463 285.964,99.5966 286.464,98.7305 287.464,98.7305 287.964,99.5966 287.964,99.5966"/>
   <polygon shape-rendering="crispEdges" fill="#0000ff" points="146.938,205.541 145.938,205.541 145.438,204.675 145.938,203.809 146.938,203.809 147.438,204.675 147.438,204.675"/>
   <polygon shape-rendering="crispEdges" fill="#0000ff" points="147.39,206.554 146.39,206.554 145.89,205.688 146.39,204.822 147.39,204.822 147.89,205.688 147.89,205.688"/>
   <polygon shape-rendering="crispEdges" fill="#0000ff" points="289.969,99.8811 288.969,99.8811 288.469,99.015 288.969,98.149 289.969,98.149 290.469,99.015 290.469,99.015"/>
   <polygon shape-rendering="crispEdges" fill="#0000ff" points="289.477,97.5373 288.477,97.5373 287.977,96.6713 288.477,95.8053 289.477,95.8053 289.977,96.6713 289.977,96.6713"/>
   <polygon shape-rendering="crispEdges" fill="#0000ff" points="143.663,206.646 142.663,206.646 142.163,205.78 142.663,204.913 143.663,204.913 144.163,205.78 144.163,205.78"/>
   <polygon shape-rendering="crispEdges" fill="#0000ff" points="145.404,209.292 144.404,209.292 143.904,208.426 144.404,207.56 145.404,207.56 145.904,208.426 145.904,208.426"/>
   <polygon shape-rendering="crispEdges" fill="#0000ff" points="293.062,98.7494 292.062,98.7494 291.562,97.8834 292.062,97.0173 293.062,97.0173 293.562,97.8834 293.562,97.8834"/>
   <polygon shape-rendering="crispEdges" fill="#0000ff" points="291.255,94.9754 290.256,94.9754 289.756,94.1093 290.256,93.2433 291.255,93.2433 291.755,94.1093 291.755,94.1093"/>
   <polygon shape-rendering="crispEdges" fill="#0000ff" points="140.789,207.633 139.789,207.633 139.289,206.767 139.789,205.901 140.789,205.901 141.289,206.767 141.289,206.767"/>
   <polygon shape-rendering="crispEdges" fill="#0000ff" points="143.645,211.691 142.645,211.691 142.145,210.825 142.645,209.959 143.645,209.959 144.145,210.825 144.145,210.825"/>
   <polygon shape-rendering="crispEdges" fill="#0000ff" points="295.779,97.7341 294.779,97.7341 294.279,96.8681 294.779,96.0021 295.779,96.0021 296.279,96.8681 296.279,96.8681"/>
   <polygon shape-rendering="crispEdges" fill="#0000ff" points="292.839,92.7292 291.839,92.7292 291.339,91.8632 291.839,90.9972 292.839,90.9972 293.339,91.8632 293.339,91.8632"/>
   <polygon shape-rendering="crispEdges" fill="#0000ff" points="138.261,208.527 137.261,208.527 136.761,207.661 137.261,206.795 138.261,206.795 138.761,207.661 138.761,207.661"/>
   <polygon shape-rendering="crispEdges" fill="#0000ff" points="142.076,213.794 141.076,213.794 140.576,212.928 141.076,212.062 142.076,212.062 142.576,212.928 142.576,212.928"/>
   <polygon shape-rendering="crispEdges" fill="#0000ff" points="298.169,96.8139 297.169,96.8139 296.669,95.9478 297.169,95.0818 298.169,95.0818 298.669,95.9478 298.669,95.9478"/>
   <polygon shape-rendering="crispEdges" fill="#0000ff" points="294.257,90.7594 293.257,90.7594 292.757,89.8934 293.257,89.0274 294.257,89.0274 294.757,89.8934 294.757,89.8934"/>
   <polygon shape-rendering="crispEdges" fill="#0000ff" points="136.036,209.344 135.036,209.344 134.536,208.478 135.036,207.612 136.036,207.612 136.536,208.478 136.536,208.478"/>
   <polygon shape-rendering="crispEdges" fill="#0000ff" points="140.668,215.638 139.668,215.638 139.168,214.772 139.668,213.906 140.668,213.906 141.168,214.772 141.168,214.772"/>
   <polygon shape-rendering="crispEdges" fill="#0000ff" points="300.273,95.9724 299.273,95.9724 298.773,95.1064 299.273,94.2403 300.273,94.2403 300.773,95.1064 300.773,95.1064"/>
   <polygon shape-rendering="crispEdges" fill="#0000ff" points="295.534,89.0326 294.534,89.0326 294.034,88.1666 294.534,87.3006 295.534,87.3006 296.034,88.1666 296.034,88.1666"/>
   <polygon shape-rendering="crispEdges" fill="#0000ff" points="134.076,210.096 133.076,210.096 132.576,209.23 133.076,208.364 134.076,208.364 134.576,209.23 134.576,209.23"/>
   <polygon shape-rendering="crispEdges" fill="#0000ff" points="139.399,217.252 138.399,217.252 137.899,216.386 138.399,215.52 139.399,215.52 139.899,216.386 139.899,216.386"/>
   <polygon shape-rendering="crispEdges" fill="#0000ff" points="302.125,95.1974 301.125,95.1974 300.625,94.3313 301.125,93.4653 302.125,93.4653 302.625,94.3313 302.625,94.3313"/>
   <polygon shape-rendering="crispEdges" fill="#0000ff" points="296.69,87.5207 295.69,87.5207 295.19,86.6546 295.69,85.7886 296.69,85.7886 297.19,86.6546 297.19,86.6546"/>
   <polygon shape-rendering="crispEdges" fill="#0000ff" points="132.35,210.793 131.35,210.793 130.85,209.927 131.35,209.061 132.35,209.061 132.85,209.927 132.85,209.927"/>
   <polygon shape-rendering="crispEdges" fill="#0000ff" points="138.251,218.664 137.251,218.664 136.751,217.798 137.251,216.932 138.251,216.932 138.751,217.798 138.751,217.798"/>
   <polygon shape-rendering="crispEdges" fill="#0000ff" points="303.755,94.4793 302.755,94.4793 302.255,93.6133 302.755,92.7473 303.755,92.7473 304.255,93.6133 304.255,93.6133"/>
   <polygon shape-rendering="crispEdges" fill="#0000ff" points="297.739,86.1993 296.739,86.1993 296.239,85.3332 296.739,84.4672 297.739,84.4672 298.239,85.3332 298.239,85.3332"/>
   <polygon shape-rendering="crispEdges" fill="#0000ff" points="130.832,211.444 129.832,211.444 129.332,210.578 129.832,209.712 130.832,209.712 131.332,210.578 131.332,210.578"/>
   <polygon shape-rendering="crispEdges" fill="#0000ff" points="137.208,219.896 136.208,219.896 135.708,219.03 136.208,218.164 137.208,218.164 137.708,219.03 137.708,219.03"/>
   <polygon shape-rendering="crispEdges" fill="#0000ff" points="305.187,93.8108 304.187,93.8108 303.687,92.9448 304.187,92.0787 305.187,92.0787 305.687,92.9448"/>
   <polygon shape-rendering="crispEdges" fill="#0000ff" points="298.694,85.0476 297.694,85.0476 297.194,84.1816 297.694,83.3156 298.694,83.3156 299.194,84.1816 299.194,84.1816"/>
   <polygon shape-rendering="crispEdges" fill="#0000ff" points="129.498,212.053 128.498,212.053 127.998,211.187 128.498,210.321 129.498,210.321 129.998,211.187 129.998,211.187"/>
   <polygon shape-rendering="crispEdges" fill="#0000ff" points="136.259,220.968 135.259,220.968 134.759,220.101 135.259,219.235 136.259,219.235 136.759,220.101 136.759,220.101"/>
   <polygon shape-rendering="crispEdges" fill="#0000ff" points="306.442,93.186 305.442,93.186 304.942,92.32 305.442,91.4539 306.442,91.4539 306.942,92.32"/>
   <polygon shape-rendering="crispEdges" fill="#0000ff" points="299.567,84.0475 298.567,84.0475 298.067,83.1815 298.567,82.3155 299.567,82.3155 300.067,83.1815"/>
   <polygon shape-rendering="crispEdges" fill="#0000ff" points="128.33,212.625 127.33,212.625 126.83,211.759 127.33,210.893 128.33,210.893 128.83,211.759 128.83,211.759"/>
   <polygon shape-rendering="crispEdges" fill="#0000ff" points="135.393,221.895 134.393,221.895 133.893,221.029 134.393,220.163 135.393,220.163 135.893,221.029 135.893,221.029"/>
   <polygon shape-rendering="crispEdges" fill="#0000ff" points="307.54,92.6004 306.54,92.6004 306.04,91.7343 306.54,90.8683 307.54,90.8683 308.04,91.7343"/>
   <polygon shape-rendering="crispEdges" fill="#0000ff" points="300.364,83.1832 299.364,83.1832 298.864,82.3172 299.364,81.4512 300.364,81.4512 300.864,82.3172"/>
   <polygon shape-rendering="crispEdges" fill="#0000ff" points="127.311,213.164 126.311,213.164 125.811,212.298 126.311,211.432 127.311,211.432 127.811,212.298 127.811,212.298"/>
   <polygon shape-rendering="crispEdges" fill="#0000ff" points="134.603,222.695 133.603,222.695 133.103,221.829 133.603,220.962 134.603,220.962 135.103,221.829 135.103,221.829"/>
   <polygon shape-rendering="crispEdges" fill="#0000ff" points="308.496,92.0501 307.496,92.0501 306.996,91.1841 307.496,90.3181 308.496,90.3181 308.996,91.1841"/>
   <polygon shape-rendering="crispEdges" fill="#0000ff" points="301.094,82.4407 300.094,82.4407 299.594,81.5746 300.094,80.7086 301.094,80.7086 301.594,81.5746"/>
   <polygon shape-rendering="crispEdges" fill="#0000ff" points="126.425,213.672 125.425,213.672 124.925,212.806 125.425,211.94 126.425,211.94 126.925,212.806 126.925,212.806"/>
   <polygon shape-rendering="crispEdges" fill="#0000ff" points="133.88,223.378 132.88,223.378 132.38,222.512 132.88,221.646 133.88,221.646 134.38,222.512 134.38,222.512"/>
   <polygon shape-rendering="crispEdges" fill="#0000ff" points="309.324,91.5324 308.324,91.5324 307.824,90.6664 308.324,89.8004 309.324,89.8004 309.824,90.6664"/>
   <polygon shape-rendering="crispEdges" fill="#0000ff" points="301.762,81.8076 300.762,81.8076 300.262,80.9416 300.762,80.0755 301.762,80.0755 302.262,80.9416"/>
   <polygon shape-rendering="crispEdges" fill="#0000ff" points="125.659,214.153 124.659,214.153 124.159,213.287 124.659,212.421 125.659,212.421 126.159,213.287 126.159,213.287"/>
   <polygon shape-rendering="crispEdges" fill="#0000ff" points="133.219,223.958 132.219,223.958 131.719,223.092 132.219,222.226 133.219,222.226 133.719,223.092 133.719,223.092"/>
   <polygon shape-rendering="crispEdges" fill="#0000ff" points="310.037,91.0448 309.037,91.0448 308.537,90.1787 309.037,89.3127 310.037,89.3127 310.537,90.1787"/>
   <polygon shape-rendering="crispEdges" fill="#0000ff" points="302.375,81.273 301.375,81.273 300.875,80.407 301.375,79.5409 302.375,79.5409 302.875,80.407"/>
   <polygon shape-rendering="crispEdges" fill="#0000ff" points="125.001,214.607 124.001,214.607 123.501,213.741 124.001,212.875 125.001,212.875 125.501,213.741 125.501,213.741"/>
   <polygon shape-rendering="crispEdges" fill="#0000ff" points="132.614,224.445 131.614,224.445 131.114,223.579 131.614,222.713 132.614,222.713 133.114,223.579 133.114,223.579"/>
   <polygon shape-rendering="crispEdges" fill="#0000ff" points="310.646,90.5852 309.646,90.5852 309.146,89.7191 309.646,88.8531 310.646,88.8531 311.146,89.7191"/>
   <polygon shape-rendering="crispEdges" fill="#0000ff" points="302.936,80.8271 301.936,80.8271 301.436,79.961 301.936,79.095 302.936,79.095 303.436,79.961"/>
   <polygon shape-rendering="crispEdges" fill="#0000ff" points="124.442,215.037 123.442,215.037 122.942,214.171 123.442,213.305 124.442,213.305 124.942,214.171 124.942,214.171"/>
   <polygon shape-rendering="crispEdges" fill="#0000ff" points="132.061,224.847 131.061,224.847 130.561,223.981 131.061,223.115 132.061,223.115 132.561,223.981 132.561,223.981"/>
   <polygon shape-rendering="crispEdges" fill="#0000ff" points="311.161,90.152 310.161,90.152 309.661,89.286 310.161,88.42 311.161,88.42 311.661,89.286"/>
   <polygon shape-rendering="crispEdges" fill="#0000ff" points="303.449,80.461 302.449,80.461 301.949,79.5949 302.449,78.7289 303.449,78.7289 303.949,79.5949"/>
   <polygon shape-rendering="crispEdges" fill="#0000ff" points="123.971,215.443 122.971,215.443 122.471,214.577 122.971,213.711 123.971,213.711 124.471,214.577 124.471,214.577"/>
   <polygon shape-rendering="crispEdges" fill="#0000ff" points="131.557,225.174 130.557,225.174 130.057,224.308 130.557,223.442 131.557,223.442 132.057,224.308 132.057,224.308"/>
   <polygon shape-rendering="crispEdges" fill="#0000ff" points="311.592,89.7439 310.592,89.7439 310.092,88.8778 310.592,88.0118 311.592,88.0118 312.092,88.8778"/>
   <polygon shape-rendering="crispEdges" fill="#0000ff" points="303.919,80.1668 302.919,80.1668 302.419,79.3008 302.919,78.4347 303.919,78.4347 304.419,79.3008"/>
   <polygon shape-rendering="crispEdges" fill="#0000ff" points="123.581,215.827 122.581,215.827 122.081,214.961 122.581,214.095 123.581,214.095 124.081,214.961 124.081,214.961"/>
   <polygon shape-rendering="crispEdges" fill="#0000ff" points="131.097,225.432 130.097,225.432 129.597,224.566 130.097,223.7 131.097,223.7 131.597,224.566 131.597,224.566"/>
   <polygon shape-rendering="crispEdges" fill="#0000ff" points="311.945,89.3596 310.945,89.3596 310.445,88.4935 310.945,87.6275 311.945,87.6275 312.445,88.4935"/>
   <polygon shape-rendering="crispEdges" fill="#0000ff" points="304.347,79.9373 303.347,79.9373 302.847,79.0713 303.347,78.2053 304.347,78.2053 304.847,79.0713"/>
   <polygon shape-rendering="crispEdges" fill="#0000ff" points="123.264,216.19 122.264,216.19 121.764,215.323 122.264,214.457 123.264,214.457 123.764,215.323 123.764,215.323"/>
   <polygon shape-rendering="crispEdges" fill="#0000ff" points="130.678,225.63 129.678,225.63 129.178,224.764 129.678,223.898 130.678,223.898 131.178,224.764 131.178,224.764"/>
   <polygon shape-rendering="crispEdges" fill="#0000ff" points="312.229,88.9981 311.229,88.9981 310.729,88.132 311.229,87.266 312.729,88.132"/>
   <polygon shape-rendering="crispEdges" fill="#0000ff" points="304.737,79.7661 303.737,79.7661 303.237,78.9001 303.737,78.0341 304.737,78.0341 305.237,78.9001"/>
   <polygon shape-rendering="crispEdges" fill="#0000ff" points="123.012,216.531 122.012,216.531 121.512,215.665 122.012,214.799 123.012,214.799 123.512,215.665 123.512,215.665"/>
   <polygon shape-rendering="crispEdges" fill="#0000ff" points="130.298,225.772 129.298,225.772 128.798,224.906 129.298,224.04 130.298,224.04 130.798,224.906 130.798,224.906"/>
   <polygon shape-rendering="crispEdges" fill="#0000ff" points="312.45,88.6584 311.45,88.6584 310.95,87.7924 311.45,86.9264 312.45,86.9264 312.95,87.7924 312.95,87.7924"/>
   <polygon shape-rendering="crispEdges" fill="#0000ff" points="305.092,79.6472 304.092,79.6472 303.592,78.7812 304.092,77.9152 305.092,77.9152 305.592,78.7812"/>
   <polygon shape-rendering="crispEdges" fill="#0000ff" points="122.82,216.853 121.82,216.853 121.32,215.987 121.82,215.121 122.82,215.121 123.32,215.987 123.32,215.987"/>
   <polygon shape-rendering="crispEdges" fill="#0000ff" points="129.953,225.865 128.953,225.865 128.453,224.999 128.953,224.133 129.953,224.133 130.453,224.999 130.453,224.999"/>
   <polygon shape-rendering="crispEdges" fill="#0000ff" points="312.614,88.3399 311.614,88.3399 311.114,87.4739 311.614,86.6078 312.614,86.6078 313.114,87.4739 313.114,87.4739"/>
   <polygon shape-rendering="crispEdges" fill="#0000ff" points="305.413,79.5753 304.413,79.5753 303.913,78.7092 304.413,77.8432 305.413,77.8432 305.913,78.7092"/>
   <polygon shape-rendering="crispEdges" fill="#0000ff" points="122.682,217.156 121.682,217.156 121.182,216.289 121.682,215.423 122.682,215.423 123.182,216.289 123.182,216.289"/>
   <polygon shape-rendering="crispEdges" fill="#0000ff" points="129.643,225.913 128.643,225.913 128.143,225.047 128.643,224.181 129.643,224.181 130.143,225.047 130.143,225.047"/>
   <polygon shape-rendering="crispEdges" fill="#0000ff" points="312.727,88.0417 311.727,88.0417 311.227,87.1756 311.727,86.3096 312.727,86.3096 313.227,87.1756 313.227,87.1756"/>
   <polygon shape-rendering="crispEdges" fill="#0000ff" points="305.703,79.5453 304.703,79.5453 304.203,78.6792 304.703,77.8132 305.703,77.8132 306.203,78.6792 306.203,78.6792"/>
   <polygon shape-rendering="crispEdges" fill="#0000ff" points="122.592,217.439 121.592,217.439 121.092,216.573 121.592,215.707 122.592,215.707 123.092,216.573 123.092,216.573"/>
   <polygon shape-rendering="crispEdges" fill="#0000ff" points="129.364,225.922 128.364,225.922 127.864,225.056 128.364,224.19 129.364,224.19 129.864,225.056 129.864,225.056"/>
   <polygon shape-rendering="crispEdges" fill="#0000ff" points="312.793,87.763 311.793,87.763 311.293,86.897 311.793,86.031 312.793,86.031 313.293,86.897 313.293,86.897"/>
   <polygon shape-rendering="crispEdges" fill="#0000ff" points="305.964,79.5527 304.964,79.5527 304.464,78.6867 304.964,77.8206 305.964,77.8206 306.464,78.6867 306.464,78.6867"/>
   <polygon shape-rendering="crispEdges" fill="#0000ff" points="122.547,217.705 121.547,217.705 121.047,216.839 121.547,215.973 122.547,215.973 123.047,216.839 123.047,216.839"/>
   <polygon shape-rendering="crispEdges" fill="#0000ff" points="129.114,225.896 128.114,225.896 127.614,225.03 128.114,224.164 129.114,224.164 129.614,225.03 129.614,225.03"/>
   <polygon shape-rendering="crispEdges" fill="#0000ff" points="312.817,87.5034 311.817,87.5034 311.317,86.6374 311.817,85.7714 312.817,85.7714 313.317,86.6374 313.317,86.6374"/>
   <polygon shape-rendering="crispEdges" fill="#0000ff" points="306.196,79.5934 305.196,79.5934 304.696,78.7274 305.196,77.8613 306.196,77.8613 306.696,78.7274 306.696,78.7274"/>
   <polygon shape-rendering="crispEdges" fill="#0000ff" points="122.54,217.953 121.54,217.953 121.04,217.087 121.54,216.221 122.54,216.221 123.04,217.087 123.04,217.087"/>
   <polygon shape-rendering="crispEdges" fill="#0000ff" points="128.892,225.839 127.892,225.839 127.392,224.973 127.892,224.107 128.892,224.107 129.392,224.973 129.392,224.973"/>
   <polygon shape-rendering="crispEdges" fill="#0000ff" points="312.804,87.2621 311.804,87.2621 311.304,86.3961 311.804,85.53 312.804,85.53 313.304,86.3961 313.304,86.3961"/>
   <polygon shape-rendering="crispEdges" fill="#0000ff" points="306.403,79.6636 305.403,79.6636 304.903,78.7975 305.403,77.9315 306.403,77.9315 306.903,78.7975 306.903,78.7975"/>
   <polygon shape-rendering="crispEdges" fill="#0000ff" points="122.569,218.184 121.569,218.184 121.069,217.318 121.569,216.452 122.569,216.452 123.069,217.318 123.069,217.318"/>
   <polygon shape-rendering="crispEdges" fill="#0000ff" points="128.696,225.754 127.696,225.754 127.196,224.888 127.696,224.022 128.696,224.022 129.196,224.888 129.196,224.888"/>
   <polygon shape-rendering="crispEdges" fill="#0000ff" points="312.758,87.0385 311.758,87.0385 311.258,86.1725 311.758,85.3065 312.758,85.3065 313.258,86.1725 313.258,86.1725"/>
   <polygon shape-rendering="crispEdges" fill="#0000ff" points="306.586,79.7597 305.586,79.7597 305.086,78.8936 305.586,78.0276 306.586,78.0276 307.086,78.8936 307.086,78.8936"/>
   <polygon shape-rendering="crispEdges" fill="#0000ff" points="121.63,218.398 121.13,217.532 121.63,216.666 122.63,216.666 123.13,217.532 123.13,217.532"/>
   <polygon shape-rendering="crispEdges" fill="#0000ff" points="128.525,225.645 127.525,225.645 127.025,224.779 127.525,223.913 128.525,223.913 129.025,224.779 129.025,224.779"/>
   <polygon shape-rendering="crispEdges" fill="#0000ff" points="312.682,86.832 311.682,86.832 311.182,85.966 311.682,85.1 312.682,85.1 313.182,85.966 313.182,85.966"/>
   <polygon shape-rendering="crispEdges" fill="#0000ff" points="306.746,79.8785 305.746,79.8785 305.246,79.0124 305.746,78.1464 306.746,78.1464 307.246,79.0124 307.246,79.0124"/>
   <polygon shape-rendering="crispEdges" fill="#0000ff" points="121.718,218.596 121.218,217.73 121.718,216.864 122.718,216.864 123.218,217.73 123.218,217.73"/>
   <polygon shape-rendering="crispEdges" fill="#0000ff" points="128.376,225.515 127.376,225.515 126.876,224.649 127.376,223.783 128.376,223.783 128.876,224.649 128.876,224.649"/>
   <polygon shape-rendering="crispEdges" fill="#0000ff" points="312.579,86.6421 311.579,86.6421 311.079,85.776 311.579,84.91 312.579,84.91 313.079,85.776 313.079,85.776"/>
   <polygon shape-rendering="crispEdges" fill="#0000ff" points="305.884,80.017 305.384,79.151 305.884,78.2849 306.884,78.2849 307.384,79.151 307.384,79.151"/>
   <polygon shape-rendering="crispEdges" fill="#0000ff" points="122.831,218.779 121.831,218.779 121.331,217.913 121.831,217.047 122.831,217.047 123.331,217.913 123.331,217.913"/>
   <polygon shape-rendering="crispEdges" fill="#0000ff" points="128.249,225.367 127.249,225.367 126.749,224.501 127.249,223.635 128.249,223.635 128.749,224.501 128.749,224.501"/>
   <polygon shape-rendering="crispEdges" fill="#0000ff" points="312.454,86.468 311.454,86.468 310.954,85.602 311.454,84.736 312.454,84.736 312.954,85.602 312.954,85.602"/>
   <polygon shape-rendering="crispEdges" fill="#0000ff" points="306.003,80.1724 305.503,79.3064 306.003,78.4404 307.003,78.4404 307.503,79.3064 307.503,79.3064"/>
   <polygon shape-rendering="crispEdges" fill="#0000ff" points="122.966,218.946 121.966,218.946 121.466,218.08 121.966,217.214 122.966,217.214 123.466,218.08 123.466,218.08"/>
   <polygon shape-rendering="crispEdges" fill="#0000ff" points="128.141,225.203 127.141,225.203 126.641,224.337 127.141,223.471 128.141,223.471 128.641,224.337 128.641,224.337"/>
   <polygon shape-rendering="crispEdges" fill="#0000ff" points="312.307,86.3093 311.307,86.3093 310.807,85.4433 311.307,84.5773 312.307,84.5773 312.807,85.4433 312.807,85.4433"/>
   <polygon shape-rendering="crispEdges" fill="#0000ff" points="307.103,80.3423 306.103,80.3423 305.603,79.4763 306.103,78.6102 307.103,78.6102 307.603,79.4763 307.603,79.4763"/>
   <polygon shape-rendering="crispEdges" fill="#0000ff" points="123.12,219.099 122.12,219.099 121.62,218.233 122.12,217.367 123.12,217.367 123.62,218.233 123.62,218.233"/>
   <polygon shape-rendering="crispEdges" fill="#0000ff" points="128.052,225.026 127.052,225.026 126.552,224.16 127.052,223.294 128.052,223.294 128.552,224.16 128.552,224.16"/>
   <polygon shape-rendering="crispEdges" fill="#0000ff" points="312.144,86.1653 311.144,86.1653 310.644,85.2993 311.144,84.4333 312.144,84.4333 312.644,85.2993 312.644,85.2993"/>
   <polygon shape-rendering="crispEdges" fill="#0000ff" points="307.185,80.5242 306.185,80.5242 305.685,79.6582 306.185,78.7921 307.185,78.7921 307.685,79.6582 307.685,79.6582"/>
   <polygon shape-rendering="crispEdges" fill="#0000ff" points="123.291,219.238 122.291,219.238 121.791,218.372 122.291,217.506 123.291,217.506 123.791,218.372 123.791,218.372"/>
   <polygon shape-rendering="crispEdges" fill="#0000ff" points="127.98,224.839 126.98,224.839 126.48,223.973 126.98,223.107 127.98,223.107 128.48,223.973 128.48,223.973"/>
   <polygon shape-rendering="crispEdges" fill="#0000ff" points="311.965,86.0354 310.965,86.0354 310.465,85.1694 310.965,84.3034 311.965,84.3034 312.465,85.1694 312.465,85.1694"/>
   <polygon shape-rendering="crispEdges" fill="#0000ff" points="307.251,80.716 306.251,80.716 305.751,79.8499 306.251,78.9839 307.251,78.9839 307.751,79.8499 307.751,79.8499"/>
   <polygon shape-rendering="crispEdges" fill="#0000ff" points="123.475,219.364 122.475,219.364 121.975,218.498 122.475,217.632 123.475,217.632 123.975,218.498 123.975,218.498"/>
   <polygon shape-rendering="crispEdges" fill="#0000ff" points="127.925,224.643 126.925,224.643 126.425,223.777 126.925,222.911 127.925,222.911 128.425,223.777 128.425,223.777"/>
   <polygon shape-rendering="crispEdges" fill="#0000ff" points="311.773,85.919 310.773,85.919 310.273,85.0529 310.773,84.1869 311.773,84.1869 312.273,85.0529 312.273,85.0529"/>
   <polygon shape-rendering="crispEdges" fill="#0000ff" points="307.302,80.9156 306.302,80.9156 305.802,80.0496 306.302,79.1836 307.302,79.1836 307.802,80.0496 307.802,80.0496"/>
   <polygon shape-rendering="crispEdges" fill="#0000ff" points="123.671,219.477 122.671,219.477 122.171,218.611 122.671,217.745 123.671,217.745 124.171,218.611 124.171,218.611"/>
   <polygon shape-rendering="crispEdges" fill="#0000ff" points="127.884,224.439 126.884,224.439 126.384,223.573 126.884,222.707 127.884,222.707 128.384,223.573 128.384,223.573"/>
   <polygon shape-rendering="crispEdges" fill="#0000ff" points="311.571,85.8154 310.571,85.8154 310.071,84.9493 310.571,84.0833 311.571,84.0833 312.071,84.9493 312.071,84.9493"/>
   <polygon shape-rendering="crispEdges" fill="#0000ff" points="307.339,81.1213 306.339,81.1213 305.839,80.2552 306.339,79.3892 307.339,79.3892 307.839,80.2552 307.839,80.2552"/>
   <polygon shape-rendering="crispEdges" fill="#0000ff" points="123.876,219.578 122.876,219.578 122.376,218.712 122.876,217.846 123.876,217.846 124.376,218.712 124.376,218.712"/>
   <polygon shape-rendering="crispEdges" fill="#0000ff" points="127.856,224.231 126.856,224.231 126.356,223.365 126.856,222.499 127.856,222.499 128.356,223.365 128.356,223.365"/>
   <polygon shape-rendering="crispEdges" fill="#0000ff" points="311.36,85.724 310.36,85.724 309.86,84.8579 310.36,83.9919 311.36,83.9919 311.86,84.8579 311.86,84.8579"/>
   <polygon shape-rendering="crispEdges" fill="#0000ff" points="307.364,81.3313 306.364,81.3313 305.864,80.4652 306.364,79.5992 307.364,79.5992 307.864,80.4652 307.864,80.4652"/>
   <polygon shape-rendering="crispEdges" fill="#0000ff" points="124.09,219.667 123.09,219.667 122.59,218.801 123.09,217.935 124.09,217.935 124.59,218.801 124.59,218.801"/>
   <polygon shape-rendering="crispEdges" fill="#0000ff" points="127.841,224.02 126.841,224.02 126.341,223.154 126.841,222.288 127.841,222.288 128.341,223.154 128.341,223.154"/>
   <polygon shape-rendering="crispEdges" fill="#0000ff" points="311.142,85.6441 310.142,85.6441 309.642,84.7781 310.142,83.9121 311.142,83.9121 311.642,84.7781 311.642,84.7781"/>
   <polygon shape-rendering="crispEdges" fill="#0000ff" points="307.376,81.544 306.376,81.544 305.876,80.678 306.376,79.8119 307.376,79.8119 307.876,80.678 307.876,80.678"/>
   <polygon shape-rendering="crispEdges" fill="#0000ff" points="124.309,219.745 123.309,219.745 122.809,218.879 123.309,218.013 124.309,218.013 124.809,218.879 124.809,218.879"/>
   <polygon shape-rendering="crispEdges" fill="#0000ff" points="127.838,223.806 126.838,223.806 126.338,222.94 126.838,222.074 127.838,222.074 128.338,222.94 128.338,222.94"/>
   <polygon shape-rendering="crispEdges" fill="#0000ff" points="310.92,85.5752 309.92,85.5752 309.42,84.7092 309.92,83.8432 310.92,83.8432 311.42,84.7092 311.42,84.7092"/>
   <polygon shape-rendering="crispEdges" fill="#0000ff" points="307.379,81.758 306.379,81.758 305.879,80.892 306.379,80.026 307.379,80.026 307.879,80.892 307.879,80.892"/>
   <polygon shape-rendering="crispEdges" fill="#0000ff" points="124.532,219.813 123.532,219.813 123.032,218.947 123.532,218.081 124.532,218.081 125.032,218.947 125.032,218.947"/>
   <polygon shape-rendering="crispEdges" fill="#0000ff" points="127.844,223.592 126.844,223.592 126.344,222.726 126.844,221.86 127.844,221.86 128.344,222.726 128.344,222.726"/>
   <polygon shape-rendering="crispEdges" fill="#0000ff" points="310.694,85.5165 309.694,85.5165 309.194,84.6504 309.694,83.7844 310.694,83.7844 311.194,84.6504 311.194,84.6504"/>
   <polygon shape-rendering="crispEdges" fill="#0000ff" points="307.371,81.9721 306.371,81.9721 305.871,81.1061 306.371,80.24 307.371,80.24 307.871,81.1061 307.871,81.1061"/>
   <polygon shape-rendering="crispEdges" fill="#0000ff" points="124.758,219.871 123.758,219.871 123.258,219.005 123.758,218.139 124.758,218.139 125.258,219.005 125.258,219.005"/>
   <polygon shape-rendering="crispEdges" fill="#0000ff" points="127.86,223.379 126.86,223.379 126.36,222.513 126.86,221.647 127.86,221.647 128.36,222.513 128.36,222.513"/>
   <polygon shape-rendering="crispEdges" fill="#0000ff" points="310.466,85.4673 309.466,85.4673 308.966,84.6013 309.466,83.7352 310.466,83.7352 310.966,84.6013 310.966,84.6013"/>
   <polygon shape-rendering="crispEdges" fill="#0000ff" points="307.356,82.1849 306.356,82.1849 305.856,81.3189 306.356,80.4529 307.356,80.4529 307.856,81.3189 307.856,81.3189"/>
   <polygon shape-rendering="crispEdges" fill="#0000ff" points="124.985,219.92 123.985,219.92 123.485,219.054 123.985,218.188 124.985,218.188 125.485,219.054 125.485,219.054"/>
   <polygon shape-rendering="crispEdges" fill="#0000ff" points="127.883,223.167 126.883,223.167 126.383,222.301 126.883,221.435 127.883,221.435 128.383,222.301 128.383,222.301"/>
   <polygon shape-rendering="crispEdges" fill="#0000ff" points="310.238,85.427 309.238,85.427 308.738,84.5609 309.238,83.6949 310.238,83.6949 310.738,84.5609 310.738,84.5609"/>
   <polygon shape-rendering="crispEdges" fill="#0000ff" points="307.332,82.3955 306.332,82.3955 305.832,81.5295 306.332,80.6634 307.332,80.6634 307.832,81.5295 307.832,81.5295"/>
   <polygon shape-rendering="crispEdges" fill="#0000ff" points="125.212,219.96 124.212,219.96 123.712,219.094 124.212,218.228 125.212,218.228 125.712,219.094 125.712,219.094"/>
   <polygon shape-rendering="crispEdges" fill="#0000ff" points="127.914,222.958 126.914,222.958 126.414,222.092 126.914,221.226 127.914,221.226 128.414,222.092 128.414,222.092"/>
   <polygon shape-rendering="crispEdges" fill="#0000ff" points="310.011,85.3948 309.011,85.3948 308.511,84.5288 309.011,83.6628 310.011,83.6628 310.511,84.5288 310.511,84.5288"/>
   <polygon shape-rendering="crispEdges" fill="#0000ff" points="307.303,82.6027 306.303,82.6027 305.803,81.7367 306.303,80.8707 307.303,80.8707 307.803,81.7367 307.803,81.7367"/>
   <polygon shape-rendering="crispEdges" fill="#0000ff" points="125.438,219.993 124.438,219.993 123.938,219.127 124.438,218.261 125.438,218.261 125.938,219.127 125.938,219.127"/>
   <polygon shape-rendering="crispEdges" fill="#0000ff" points="127.951,222.753 126.951,222.753 126.451,221.887 126.951,221.021 127.951,221.021 128.451,221.887 128.451,221.887"/>
   <polygon shape-rendering="crispEdges" fill="#0000ff" points="309.785,85.3701 308.785,85.3701 308.285,84.5041 308.785,83.6381 309.785,83.6381 310.285,84.5041 310.285,84.5041"/>
   <polygon shape-rendering="crispEdges" fill="#0000ff" points="307.268,82.8058 306.268,82.8058 305.768,81.9398 306.268,81.0738 307.268,81.0738 307.768,81.9398 307.768,81.9398"/>
   <polygon shape-rendering="crispEdges" fill="#0000ff" points="125.661,220.018 124.661,220.018 124.161,219.152 124.661,218.286 125.661,218.286 126.161,219.152 126.161,219.152"/>
   <polygon shape-rendering="crispEdges" fill="#0000ff" points="127.992,222.553 126.992,222.553 126.492,221.687 126.992,220.821 127.992,220.821 128.492,221.687 128.492,221.687"/>
   <polygon shape-rendering="crispEdges" fill="#0000ff" points="309.563,85.3522 308.563,85.3522 308.063,84.4862 308.563,83.6202 309.563,83.6202 310.063,84.4862 310.063,84.4862"/>
   <polygon shape-rendering="crispEdges" fill="#0000ff" points="307.228,83.0039 306.228,83.0039 305.728,82.1378 306.228,81.2718 307.228,81.2718 307.728,82.1378 307.728,82.1378"/>
   <polygon shape-rendering="crispEdges" fill="#0000ff" points="125.88,220.038 124.88,220.038 124.38,219.172 124.88,218.306 125.88,218.306 126.38,219.172 126.38,219.172"/>
   <polygon shape-rendering="crispEdges" fill="#0000ff" points="128.038,222.358 127.038,222.358 126.538,221.492 127.038,220.626 128.038,220.626 128.538,221.492 128.538,221.492"/>
   <polygon shape-rendering="crispEdges" fill="#0000ff" points="309.345,85.3404 308.345,85.3404 307.845,84.4743 308.345,83.6083 309.345,83.6083 309.845,84.4743 309.845,84.4743"/>
   <polygon shape-rendering="crispEdges" fill="#0000ff" points="307.184,83.1962 306.184,83.1962 305.684,82.3302 306.184,81.4642 307.184,81.4642 307.684,82.3302 307.684,82.3302"/>
   <polygon shape-rendering="crispEdges" fill="#0000ff" points="126.095,220.051 125.095,220.051 124.595,219.185 125.095,218.319 126.095,218.319 126.595,219.185 126.595,219.185"/>
   <polygon shape-rendering="crispEdges" fill="#0000ff" points="128.087,222.169 127.087,222.169 126.587,221.303 127.087,220.437 128.087,220.437 128.587,221.303 128.587,221.303"/>
   <polygon shape-rendering="crispEdges" fill="#0000ff" points="309.132,85.3339 308.132,85.3339 307.632,84.4678 308.132,83.6018 309.132,83.6018 309.632,84.4678 309.632,84.4678"/>
   <polygon shape-rendering="crispEdges" fill="#0000ff" points="307.138,83.3822 306.138,83.3822 305.638,82.5162 306.138,81.6501 307.138,81.6501 307.638,82.5162 307.638,82.5162"/>
   <polygon shape-rendering="crispEdges" fill="#0000ff" points="126.304,220.06 125.304,220.06 124.804,219.194 125.304,218.327 126.304,218.327 126.804,219.194"/>
   <polygon shape-rendering="crispEdges" fill="#0000ff" points="128.139,221.987 127.139,221.987 126.639,221.121 127.139,220.254 128.139,220.254 128.639,221.121 128.639,221.121"/>
   <polygon shape-rendering="crispEdges" fill="#0000ff" points="308.924,85.332 307.924,85.332 307.424,84.466 307.924,83.6 308.924,83.6 309.424,84.466 309.424,84.466"/>
   <polygon shape-rendering="crispEdges" fill="#0000ff" points="307.09,83.5613 306.09,83.5613 305.59,82.6952 306.09,81.8292 307.09,81.8292 307.59,82.6952 307.59,82.6952"/>
   <polygon shape-rendering="crispEdges" fill="#0000ff" points="126.507,220.064 125.507,220.064 125.007,219.198 125.507,218.332 126.507,218.332 127.007,219.198"/>
   <polygon shape-rendering="crispEdges" fill="#0000ff" points="128.192,221.811 127.192,221.811 126.692,220.945 127.192,220.079 128.192,220.079 128.692,220.945 128.692,220.945"/>
   <polygon shape-rendering="crispEdges" fill="#0000ff" points="308.724,85.3341 307.724,85.3341 307.224,84.4681 307.724,83.6021 308.724,83.6021 309.224,84.4681 309.224,84.4681"/>
   <polygon shape-rendering="crispEdges" fill="#0000ff" points="307.041,83.7329 306.041,83.7329 305.541,82.8669 306.041,82.0009 307.041,82.0009 307.541,82.8669 307.541,82.8669"/>
   <polygon shape-rendering="crispEdges" fill="#0000ff" points="126.703,220.064 125.703,220.064 125.203,219.198 125.703,218.332 126.703,218.332 127.203,219.198"/>
   <polygon shape-rendering="crispEdges" fill="#0000ff" points="128.245,221.644 127.245,221.644 126.745,220.778 127.245,219.912 128.245,219.912 128.745,220.778 128.745,220.778"/>
   <polygon shape-rendering="crispEdges" fill="#0000ff" points="308.53,85.3395 307.53,85.3395 307.03,84.4734 307.53,83.6074 308.53,83.6074 309.03,84.4734 309.03,84.4734"/>
   <polygon shape-rendering="crispEdges" fill="#0000ff" points="306.992,83.8968 305.992,83.8968 305.492,83.0308 305.992,82.1647 306.992,82.1647 307.492,83.0308 307.492,83.0308"/>
   <polygon shape-rendering="crispEdges" fill="#0000ff" points="126.892,220.061 125.892,220.061 125.392,219.195 125.892,218.329 126.892,218.329 127.392,219.195"/>
   <polygon shape-rendering="crispEdges" fill="#0000ff" points="128.298,221.484 127.298,221.484 126.798,220.618 127.298,219.752 128.298,219.752 128.798,220.618 128.798,220.618"/>
   <polygon shape-rendering="crispEdges" fill="#0000ff" points="308.345,85.3473 307.345,85.3473 306.845,84.4813 307.345,83.6153 308.345,83.6153 308.845,84.4813 308.845,84.4813"/>
   <polygon shape-rendering="crispEdges" fill="#0000ff" points="306.943,84.0525 305.943,84.0525 305.443,83.1865 305.943,82.3204 306.943,82.3204 307.443,83.1865 307.443,83.1865"/>
   <polygon shape-rendering="crispEdges" fill="#0000ff" points="127.072,220.057 126.072,220.057 125.572,219.191 126.072,218.325 127.072,218.325 127.572,219.191"/>
   <polygon shape-rendering="crispEdges" fill="#0000ff" points="128.35,221.333 127.35,221.333 126.85,220.467 127.35,219.601 128.35,219.601 128.85,220.467 128.85,220.467"/>
   <polygon shape-rendering="crispEdges" fill="#0000ff" points="308.168,85.3571 307.168,85.3571 306.668,84.491 307.168,83.625 308.168,83.625 308.668,84.491 308.668,84.491"/>
   <polygon shape-rendering="crispEdges" fill="#0000ff" points="306.896,84.1998 305.896,84.1998 305.396,83.3338 305.896,82.4677 306.896,82.4677 307.396,83.3338 307.396,83.3338"/>
   <polygon shape-rendering="crispEdges" fill="#0000ff" points="127.244,220.05 126.244,220.05 125.744,219.184 126.244,218.318 127.244,218.318 127.744,219.184"/>
   <polygon shape-rendering="crispEdges" fill="#0000ff" points="128.4,221.19 127.4,221.19 126.9,220.324 127.4,219.458 128.4,219.458 128.9,220.324 128.9,220.324"/>
   <polygon shape-rendering="crispEdges" fill="#0000ff" points="308,85.3679 307,85.3679 306.5,84.5019 307,83.6359 308,83.6359 308.5,84.5019 308.5,84.5019"/>
   <polygon shape-rendering="crispEdges" fill="#0000ff" points="306.85,84.3384 305.85,84.3384 305.35,83.4724 305.85,82.6064 306.85,82.6064 307.35,83.4724 307.35,83.4724"/>
   <polygon shape-rendering="crispEdges" fill="#0000ff" points="127.407,220.043 126.407,220.043 125.907,219.177 126.407,218.311 127.407,218.311 127.907,219.177"/>
   <polygon shape-rendering="crispEdges" fill="#0000ff" points="128.447,221.055 127.447,221.055 126.947,220.189 127.447,219.323 128.447,219.323 128.947,220.189 128.947,220.189"/>
   <polygon shape-rendering="crispEdges" fill="#0000ff" points="307.84,85.3793 306.84,85.3793 306.34,84.5133 306.84,83.6472 307.84,83.6472 308.34,84.5133 308.34,84.5133"/>
   <polygon shape-rendering="crispEdges" fill="#0000ff" points="306.808,84.4682 305.808,84.4682 305.308,83.6022 305.808,82.7362 306.808,82.7362 307.308,83.6022 307.308,83.6022"/>
   <polygon shape-rendering="crispEdges" fill="#0000ff" points="127.56,220.035 126.56,220.035 126.06,219.169 126.56,218.303 127.56,218.303 128.06,219.169"/>
   <polygon shape-rendering="crispEdges" fill="#0000ff" points="128.491,220.93 127.491,220.93 126.991,220.064 127.491,219.198 128.491,219.198 128.991,220.064 128.991,220.064"/>
   <polygon shape-rendering="crispEdges" fill="#0000ff" points="307.691,85.3904 306.691,85.3904 306.191,84.5244 306.691,83.6584 307.691,83.6584 308.191,84.5244 308.191,84.5244"/>
   <polygon shape-rendering="crispEdges" fill="#0000ff" points="305.77,84.5892 305.27,83.7231 305.77,82.8571 306.77,82.8571 307.27,83.7231 307.27,83.7231"/>
   <polygon shape-rendering="crispEdges" fill="#0000ff" points="127.704,220.028 126.704,220.028 126.204,219.162 126.704,218.296 127.704,218.296 128.204,219.162"/>
   <polygon shape-rendering="crispEdges" fill="#0000ff" points="128.531,220.813 127.531,220.813 127.031,219.947 127.531,219.081 128.531,219.081 129.031,219.947 129.031,219.947"/>
   <polygon shape-rendering="crispEdges" fill="#0000ff" points="307.551,85.4007 306.551,85.4007 306.051,84.5347 306.551,83.6687 307.551,83.6687 308.051,84.5347 308.051,84.5347"/>
   <polygon shape-rendering="crispEdges" fill="#0000ff" points="305.735,84.7012 305.235,83.8351 305.735,82.9691 306.735,82.9691 307.235,83.8351 307.235,83.8351"/>
   <polygon shape-rendering="crispEdges" fill="#0000ff" points="127.837,220.022 126.837,220.022 126.337,219.156 126.837,218.289 127.837,218.289 128.337,219.156"/>
   <polygon shape-rendering="crispEdges" fill="#0000ff" points="128.566,220.705 127.566,220.705 127.066,219.839 127.566,218.973 128.566,218.973 129.066,219.839 129.066,219.839"/>
   <polygon shape-rendering="crispEdges" fill="#0000ff" points="307.422,85.4095 306.422,85.4095 305.922,84.5435 306.422,83.6775 307.422,83.6775 307.922,84.5435 307.922,84.5435"/>
   <polygon shape-rendering="crispEdges" fill="#0000ff" points="305.706,84.8042 305.206,83.9382 305.706,83.0722 306.706,83.0722 307.206,83.9382 307.206,83.9382"/>
   <polygon shape-rendering="crispEdges" fill="#0000ff" points="127.96,220.017 126.96,220.017 126.46,219.151 126.96,218.285 127.96,218.285 128.46,219.151"/>
   <polygon shape-rendering="crispEdges" fill="#0000ff" points="128.596,220.606 127.596,220.606 127.096,219.74 127.596,218.874 128.596,218.874 129.096,219.74 129.096,219.74"/>
   <polygon shape-rendering="crispEdges" fill="#0000ff" points="307.302,85.4162 306.302,85.4162 305.802,84.5502 306.302,83.6842 307.302,83.6842 307.802,84.5502 307.802,84.5502"/>
   <polygon shape-rendering="crispEdges" fill="#0000ff" points="305.682,84.8984 305.182,84.0324 305.682,83.1663 306.682,83.1663 307.182,84.0324 307.182,84.0324"/>
   <polygon shape-rendering="crispEdges" fill="#0000ff" points="128.073,220.015 127.073,220.015 126.573,219.149 127.073,218.283 128.073,218.283 128.573,219.149"/>
   <polygon shape-rendering="crispEdges" fill="#0000ff" points="128.62,220.516 127.62,220.516 127.12,219.65 127.62,218.784 128.62,218.784 129.12,219.65 129.12,219.65"/>
   <polygon shape-rendering="crispEdges" fill="#0000ff" points="307.193,85.4201 306.193,85.4201 305.693,84.5541 306.193,83.6881 307.193,83.6881 307.693,84.5541 307.693,84.5541"/>
   <polygon shape-rendering="crispEdges" fill="#0000ff" points="305.664,84.9838 305.164,84.1178 305.664,83.2518 306.664,83.2518 307.164,84.1178 307.164,84.1178"/>
   <polygon shape-rendering="crispEdges" fill="#0000ff" points="128.176,220.015 127.176,220.015 126.676,219.149 127.176,218.283 128.176,218.283 128.676,219.149"/>
   <polygon shape-rendering="crispEdges" fill="#0000ff" points="128.637,220.434 127.637,220.434 127.137,219.568 127.637,218.702 128.637,218.702 129.137,219.568 129.137,219.568"/>
   <polygon shape-rendering="crispEdges" fill="#0000ff" points="307.095,85.4207 306.095,85.4207 305.595,84.5547 306.095,83.6887 307.095,83.6887 307.595,84.5547 307.595,84.5547"/>
   <polygon shape-rendering="crispEdges" fill="#0000ff" points="305.653,85.0606 305.153,84.1946 305.653,83.3286 306.653,83.3286 307.153,84.1946 307.153,84.1946"/>
   <polygon shape-rendering="crispEdges" fill="#0000ff" points="128.268,220.019 127.268,220.019 126.768,219.153 127.268,218.287 128.268,218.287 128.768,219.153 128.768,219.153"/>
   <polygon shape-rendering="crispEdges" fill="#0000ff" points="128.647,220.36 127.647,220.36 127.147,219.494 127.647,218.628 128.647,218.628 129.147,219.494 129.147,219.494"/>
   <polygon shape-rendering="crispEdges" fill="#0000ff" points="307.006,85.4174 306.006,85.4174 305.506,84.5514 306.006,83.6854 307.006,83.6854 307.506,84.5514 307.506,84.5514"/>
   <polygon shape-rendering="crispEdges" fill="#0000ff" points="305.649,85.129 305.149,84.263 305.649,83.3969 306.649,83.3969 307.149,84.263 307.149,84.263"/>
   <polygon shape-rendering="crispEdges" fill="#0000ff" points="128.35,220.027 127.35,220.027 126.85,219.161 127.35,218.295 128.35,218.295 128.85,219.161 128.85,219.161"/>
   <polygon shape-rendering="crispEdges" fill="#0000ff" points="128.65,220.295 127.65,220.295 127.15,219.429 127.65,218.563 128.65,218.563 129.15,219.429 129.15,219.429"/>
   <polygon shape-rendering="crispEdges" fill="#0000ff" points="306.928,85.4097 305.928,85.4097 305.428,84.5436 305.928,83.6776 306.928,83.6776 307.428,84.5436 307.428,84.5436"/>
   <polygon shape-rendering="crispEdges" fill="#0000ff" points="305.653,85.1892 305.153,84.3232 305.653,83.4572 306.653,83.4572 307.153,84.3232 307.153,84.3232"/>
   <polygon shape-rendering="crispEdges" fill="#0000ff" points="128.422,220.04 127.422,220.04 126.922,219.174 127.422,218.308 128.422,218.308 128.922,219.174 128.922,219.174"/>
   <polygon shape-rendering="crispEdges" fill="#0000ff" points="128.644,220.238 127.644,220.238 127.144,219.372 127.644,218.506 128.644,218.506 129.144,219.372 129.144,219.372"/>
   <polygon shape-rendering="crispEdges" fill="#0000ff" points="306.86,85.3969 305.86,85.3969 305.36,84.5309 305.86,83.6648 306.86,83.6648 307.36,84.5309 307.36,84.5309"/>
   <polygon shape-rendering="crispEdges" fill="#0000ff" points="305.665,85.2415 305.165,84.3755 305.665,83.5095 306.665,83.5095 307.165,84.3755 307.165,84.3755"/>
   <polygon shape-rendering="crispEdges" fill="#0000ff" points="128.483,220.057 127.483,220.057 126.983,219.191 127.483,218.325 128.483,218.325 128.983,219.191 128.983,219.191"/>
   <polygon shape-rendering="crispEdges" fill="#0000ff" points="128.63,220.188 127.63,220.188 127.13,219.322 127.63,218.456 128.63,218.456 129.13,219.322 129.13,219.322"/>
   <polygon shape-rendering="crispEdges" fill="#0000ff" points="306.802,85.3786 305.802,85.3786 305.302,84.5126 305.802,83.6466 306.802,83.6466 307.302,84.5126 307.302,84.5126"/>
   <polygon shape-rendering="crispEdges" fill="#0000ff" points="305.686,85.2862 305.186,84.4202 305.686,83.5542 306.686,83.5542 307.186,84.4202 307.186,84.4202"/>
   <polygon shape-rendering="crispEdges" fill="#0000ff" points="128.534,220.08 127.534,220.08 127.034,219.214 127.534,218.348 128.534,218.348 129.034,219.214 129.034,219.214"/>
   <polygon shape-rendering="crispEdges" fill="#0000ff" points="128.608,220.145 127.608,220.145 127.108,219.279 127.608,218.413 128.608,218.413 129.108,219.279 129.108,219.279"/>
   <polygon shape-rendering="crispEdges" fill="#0000ff" points="306.754,85.3544 305.754,85.3544 305.254,84.4884 305.754,83.6223 306.754,83.6223 307.254,84.4884 307.254,84.4884"/>
   <polygon shape-rendering="crispEdges" fill="#0000ff" points="306.715,85.3237 305.715,85.3237 305.215,84.4577 305.715,83.5917 306.715,83.5917 307.215,84.4577 307.215,84.4577"/>
   <polygon shape-rendering="crispEdges" fill="#0000ff" points="128.576,220.11 127.576,220.11 127.076,219.244 127.576,218.378 128.576,218.378 129.076,219.244 129.076,219.244"/>
  </g>
 </g>
</svg>
