<?xml version='1.0' encoding='UTF-8' standalone='no'?>
<svg viewBox="0 0 419 314" width="419pt" height="314pt" xmlns="http://www.w3.org/2000/svg" xmlns:xlink="http://www.w3.org/1999/xlink">
 <title>Figure 1</title>
 <desc>
Creator: GL2PS 1.4.2, (C) 1999-2020 C. Geuzaine
For: Octave
CreationDate: Tue Nov 28 00:43:19 2023
</desc>
 <defs/>
 <polygon points="0,0 419,0 419,314 0,314" fill="#ffffff"/>
 <g>
  <polygon points="0,314 419,314 419,0 0,0" shape-rendering="crispEdges" fill="#ffffff"/>
  <clipPath id="cp00419314">
   <polygon points="0,314 419,314 419,0 0,0"/>
  </clipPath>
  <g clip-path="url(#cp00419314)">
   <polygon shape-rendering="crispEdges" points="194.653,252.706 193.653,252.706 193.153,251.84 193.653,250.974 194.653,250.974 195.153,251.84 195.153,251.84" fill="#0000ff"/>
   <polygon shape-rendering="crispEdges" points="206.286,249.774 205.286,249.774 204.786,248.908 205.286,248.042 206.286,248.042 206.786,248.908 206.786,248.908" fill="#0000ff"/>
   <polygon shape-rendering="crispEdges" points="216.442,244.995 215.442,244.995 214.942,244.129 215.442,243.263 216.442,243.263 216.942,244.129 216.942,244.129" fill="#0000ff"/>
   <polygon shape-rendering="crispEdges" points="224.994,239.17 223.994,239.17 223.494,238.304 223.994,237.438 224.994,237.438 225.494,238.304 225.494,238.304" fill="#0000ff"/>
   <polygon shape-rendering="crispEdges" points="232.132,232.858 231.132,232.858 230.632,231.992 231.132,231.126 232.132,231.126 232.632,231.992 232.632,231.992" fill="#0000ff"/>
   <polygon shape-rendering="crispEdges" points="238.115,226.382 237.115,226.382 236.615,225.516 237.115,224.65 238.115,224.65 238.615,225.516 238.615,225.516" fill="#0000ff"/>
   <polygon shape-rendering="crispEdges" points="165.938,244.041 164.938,244.041 164.438,243.175 164.938,242.309 165.938,242.309 166.438,243.175 166.438,243.175" fill="#ff00ff"/>
   <polygon shape-rendering="crispEdges" points="169.391,244.832 168.391,244.832 167.891,243.966 168.391,243.1 169.391,243.1 169.891,243.966 169.891,243.966" fill="#ff00ff"/>
   <polygon shape-rendering="crispEdges" points="210.273,211.803 209.273,211.803 208.773,210.937 209.273,210.071 210.273,210.071 210.773,210.937 210.773,210.937" fill="#ff00ff"/>
   <polygon shape-rendering="crispEdges" points="206.371,210.381 205.371,210.381 204.871,209.515 205.371,208.649 206.371,208.649 206.871,209.515 206.871,209.515" fill="#ff00ff"/>
   <polygon shape-rendering="crispEdges" points="161.81,242.103 160.81,242.103 160.31,241.237 160.81,240.371 161.81,240.371 162.31,241.237 162.31,241.237" fill="#ff00ff"/>
   <polygon shape-rendering="crispEdges" points="273.188,140.275 272.188,140.275 271.688,139.409 272.188,138.543 273.188,138.543 273.688,139.409 273.688,139.409" fill="#0000ff"/>
   <polygon shape-rendering="crispEdges" points="272.469,144.324 271.469,144.324 270.969,143.458 271.469,142.592 272.469,142.592 272.969,143.458 272.969,143.458" fill="#0000ff"/>
   <polygon shape-rendering="crispEdges" points="172.167,244.988 171.167,244.988 170.667,244.122 171.167,243.256 172.167,243.256 172.667,244.122 172.667,244.122" fill="#ff00ff"/>
   <polygon shape-rendering="crispEdges" points="273.825,136.354 272.825,136.354 272.325,135.487 272.825,134.621 273.825,134.621 274.325,135.487 274.325,135.487" fill="#0000ff"/>
   <polygon shape-rendering="crispEdges" points="271.661,148.505 270.661,148.505 270.161,147.639 270.661,146.773 271.661,146.773 272.161,147.639 272.161,147.639" fill="#0000ff"/>
   <polygon shape-rendering="crispEdges" points="274.387,132.555 273.387,132.555 272.887,131.689 273.387,130.823 274.387,130.823 274.887,131.689 274.887,131.689" fill="#0000ff"/>
   <polygon shape-rendering="crispEdges" points="203.182,209.895 202.182,209.895 201.682,209.029 202.182,208.163 203.182,208.163 203.682,209.029 203.682,209.029" fill="#ff00ff"/>
   <polygon shape-rendering="crispEdges" points="243.174,219.918 242.174,219.918 241.674,219.052 242.174,218.186 243.174,218.186 243.674,219.052 243.674,219.052" fill="#0000ff"/>
   <polygon shape-rendering="crispEdges" points="270.752,152.824 269.752,152.824 269.252,151.958 269.752,151.092 270.752,151.092 271.252,151.958 271.252,151.958" fill="#0000ff"/>
   <polygon shape-rendering="crispEdges" points="274.882,128.876 273.882,128.876 273.382,128.01 273.882,127.144 274.882,127.144 275.382,128.01 275.382,128.01" fill="#0000ff"/>
   <polygon shape-rendering="crispEdges" points="214.674,214.834 213.674,214.834 213.174,213.968 213.674,213.102 214.674,213.102 215.174,213.968 215.174,213.968" fill="#ff00ff"/>
   <polygon shape-rendering="crispEdges" points="275.316,125.313 274.316,125.313 273.816,124.447 274.316,123.581 275.316,123.581 275.816,124.447 275.816,124.447" fill="#0000ff"/>
   <polygon shape-rendering="crispEdges" points="269.733,157.286 268.733,157.286 268.233,156.42 268.733,155.554 269.733,155.554 270.233,156.42 270.233,156.42" fill="#0000ff"/>
   <polygon shape-rendering="crispEdges" points="275.693,121.861 274.693,121.861 274.193,120.995 274.693,120.129 275.693,120.129 276.193,120.995 276.193,120.995" fill="#0000ff"/>
   <polygon shape-rendering="crispEdges" points="174.385,244.806 173.385,244.806 172.885,243.94 173.385,243.074 174.385,243.074 174.885,243.94 174.885,243.94" fill="#ff00ff"/>
   <polygon shape-rendering="crispEdges" points="268.59,161.896 267.59,161.896 267.09,161.03 267.59,160.164 268.59,160.164 269.09,161.03 269.09,161.03" fill="#0000ff"/>
   <polygon shape-rendering="crispEdges" points="200.637,209.915 199.637,209.915 199.137,209.049 199.637,208.183 200.637,208.183 201.137,209.049 201.137,209.049" fill="#ff00ff"/>
   <polygon shape-rendering="crispEdges" points="276.019,118.517 275.019,118.517 274.519,117.651 275.019,116.785 276.019,116.785 276.519,117.651 276.519,117.651" fill="#0000ff"/>
   <polygon shape-rendering="crispEdges" points="276.298,115.279 275.298,115.279 274.798,114.413 275.298,113.547 276.298,113.547 276.798,114.413 276.798,114.413" fill="#0000ff"/>
   <polygon shape-rendering="crispEdges" points="267.307,166.66 266.307,166.66 265.807,165.794 266.307,164.928 267.307,164.928 267.807,165.794 267.807,165.794" fill="#0000ff"/>
   <polygon shape-rendering="crispEdges" points="176.171,244.448 175.171,244.448 174.671,243.582 175.171,242.716 176.171,242.716 176.671,243.582 176.671,243.582" fill="#ff00ff"/>
   <polygon shape-rendering="crispEdges" points="276.533,112.144 275.533,112.144 275.033,111.278 275.533,110.412 276.533,110.412 277.033,111.278 277.033,111.278" fill="#0000ff"/>
   <polygon shape-rendering="crispEdges" points="157.446,238.295 156.446,238.295 155.946,237.429 156.446,236.563 157.446,236.563 157.946,237.429 157.946,237.429" fill="#ff00ff"/>
   <polygon shape-rendering="crispEdges" points="198.603,210.2 197.603,210.2 197.103,209.334 197.603,208.468 198.603,208.468 199.103,209.334 199.103,209.334" fill="#ff00ff"/>
   <polygon shape-rendering="crispEdges" points="276.73,109.108 275.73,109.108 275.23,108.242 275.73,107.376 276.73,107.376 277.23,108.242 277.23,108.242" fill="#0000ff"/>
   <polygon shape-rendering="crispEdges" points="265.868,171.586 264.868,171.586 264.368,170.72 264.868,169.854 265.868,169.854 266.368,170.72 266.368,170.72" fill="#0000ff"/>
   <polygon shape-rendering="crispEdges" points="177.624,244.003 176.624,244.003 176.124,243.137 176.624,242.271 177.624,242.271 178.124,243.137" fill="#ff00ff"/>
   <polygon shape-rendering="crispEdges" points="276.89,106.17 275.89,106.17 275.39,105.304 275.89,104.438 276.89,104.438 277.39,105.304 277.39,105.304" fill="#0000ff"/>
   <polygon shape-rendering="crispEdges" points="196.962,210.62 195.962,210.62 195.462,209.754 195.962,208.888 196.962,208.888 197.462,209.754 197.462,209.754" fill="#ff00ff"/>
   <polygon shape-rendering="crispEdges" points="277.017,103.326 276.017,103.326 275.517,102.46 276.017,101.594 277.017,101.594 277.517,102.46 277.517,102.46" fill="#0000ff"/>
   <polygon shape-rendering="crispEdges" points="264.252,176.678 263.252,176.678 262.752,175.812 263.252,174.946 264.252,174.946 264.752,175.812 264.752,175.812" fill="#0000ff"/>
   <polygon shape-rendering="crispEdges" points="247.492,213.557 246.492,213.557 245.992,212.691 246.492,211.825 247.492,211.825 247.992,212.691 247.992,212.691" fill="#0000ff"/>
   <polygon shape-rendering="crispEdges" points="218.625,220.148 217.625,220.148 217.125,219.282 217.625,218.416 218.625,218.416 219.125,219.282 219.125,219.282" fill="#ff00ff"/>
   <polygon shape-rendering="crispEdges" points="178.824,243.518 177.824,243.518 177.324,242.652 177.824,241.786 178.824,241.786 179.324,242.652" fill="#ff00ff"/>
   <polygon shape-rendering="crispEdges" points="277.114,100.576 276.114,100.576 275.614,99.7096 276.114,98.8436 277.114,98.8436 277.614,99.7096 277.614,99.7096" fill="#0000ff"/>
   <polygon shape-rendering="crispEdges" points="195.621,211.104 194.621,211.104 194.121,210.238 194.621,209.372 195.621,209.372 196.121,210.238 196.121,210.238" fill="#ff00ff"/>
   <polygon shape-rendering="crispEdges" points="277.183,97.9155 276.183,97.9155 275.683,97.0495 276.183,96.1835 277.183,96.1835 277.683,97.0495 277.683,97.0495" fill="#0000ff"/>
   <polygon shape-rendering="crispEdges" points="179.826,243.021 178.826,243.021 178.326,242.155 178.826,241.289 179.826,241.289 180.326,242.155" fill="#ff00ff"/>
   <polygon shape-rendering="crispEdges" points="262.432,181.945 261.432,181.945 260.932,181.079 261.432,180.213 262.432,180.213 262.932,181.079 262.932,181.079" fill="#0000ff"/>
   <polygon shape-rendering="crispEdges" points="277.227,95.3441 276.227,95.3441 275.727,94.478 276.227,93.612 277.227,93.612 277.727,94.478 277.727,94.478" fill="#0000ff"/>
   <polygon shape-rendering="crispEdges" points="194.511,211.614 193.511,211.614 193.011,210.748 193.511,209.882 194.511,209.882 195.011,210.748 195.011,210.748" fill="#ff00ff"/>
   <polygon shape-rendering="crispEdges" points="180.674,242.526 179.674,242.526 179.174,241.66 179.674,240.794 180.674,240.794 181.174,241.66" fill="#ff00ff"/>
   <polygon shape-rendering="crispEdges" points="277.249,92.8594 276.249,92.8594 275.749,91.9934 276.249,91.1273 277.249,91.1273 277.749,91.9934 277.749,91.9934" fill="#0000ff"/>
   <polygon shape-rendering="crispEdges" points="193.58,212.128 192.58,212.128 192.08,211.262 192.58,210.396 193.58,210.396 194.08,211.262 194.08,211.262" fill="#ff00ff"/>
   <polygon shape-rendering="crispEdges" points="277.25,90.4598 276.25,90.4598 275.75,89.5938 276.25,88.7278 277.25,88.7278 277.75,89.5938 277.75,89.5938" fill="#0000ff"/>
   <polygon shape-rendering="crispEdges" points="181.398,242.041 180.398,242.041 179.898,241.175 180.398,240.309 181.398,240.309 181.898,241.175" fill="#ff00ff"/>
   <polygon shape-rendering="crispEdges" points="260.379,187.392 259.379,187.392 258.879,186.526 259.379,185.66 260.379,185.66 260.879,186.526 260.879,186.526" fill="#0000ff"/>
   <polygon shape-rendering="crispEdges" points="277.232,88.1438 276.232,88.1438 275.732,87.2777 276.232,86.4117 277.232,86.4117 277.732,87.2777 277.732,87.2777" fill="#0000ff"/>
   <polygon shape-rendering="crispEdges" points="192.791,212.634 191.791,212.634 191.291,211.768 191.791,210.902 192.791,210.902 193.291,211.768 193.291,211.768" fill="#ff00ff"/>
   <polygon shape-rendering="crispEdges" points="182.023,241.57 181.023,241.57 180.523,240.704 181.023,239.838 182.023,239.838 182.523,240.704" fill="#ff00ff"/>
   <polygon shape-rendering="crispEdges" points="251.21,207.348 250.21,207.348 249.71,206.482 250.21,205.616 251.21,205.616 251.71,206.482 251.71,206.482" fill="#0000ff"/>
   <polygon shape-rendering="crispEdges" points="154.16,232.168 153.16,232.168 152.66,231.302 153.16,230.436 154.16,230.436 154.66,231.302 154.66,231.302" fill="#ff00ff"/>
   <polygon shape-rendering="crispEdges" points="277.198,85.9097 276.198,85.9097 275.698,85.0436 276.198,84.1776 277.198,84.1776 277.698,85.0436 277.698,85.0436" fill="#0000ff"/>
   <polygon shape-rendering="crispEdges" points="182.567,241.115 181.567,241.115 181.067,240.249 181.567,239.383 182.567,239.383 183.067,240.249" fill="#ff00ff"/>
   <polygon shape-rendering="crispEdges" points="192.115,213.127 191.115,213.127 190.615,212.261 191.115,211.395 192.115,211.395 192.615,212.261 192.615,212.261" fill="#ff00ff"/>
   <polygon shape-rendering="crispEdges" points="277.149,83.7561 276.149,83.7561 275.649,82.89 276.149,82.024 277.149,82.024 277.649,82.89 277.649,82.89" fill="#0000ff"/>
   <polygon shape-rendering="crispEdges" points="183.043,240.677 182.043,240.677 181.543,239.811 182.043,238.945 183.043,238.945 183.543,239.811" fill="#ff00ff"/>
   <polygon shape-rendering="crispEdges" points="258.053,193.026 257.053,193.026 256.553,192.16 257.053,191.294 258.053,191.294 258.553,192.16 258.553,192.16" fill="#0000ff"/>
   <polygon shape-rendering="crispEdges" points="277.087,81.6816 276.087,81.6816 275.587,80.8156 276.087,79.9496 277.087,79.9496 277.587,80.8156 277.587,80.8156" fill="#0000ff"/>
   <polygon shape-rendering="crispEdges" points="191.53,213.604 190.53,213.604 190.03,212.738 190.53,211.872 191.53,211.872 192.03,212.738 192.03,212.738" fill="#ff00ff"/>
   <polygon shape-rendering="crispEdges" points="183.465,240.255 182.465,240.255 181.965,239.389 182.465,238.523 183.465,238.523 183.965,239.389" fill="#ff00ff"/>
   <polygon shape-rendering="crispEdges" points="277.014,79.6851 276.014,79.6851 275.514,78.8191 276.014,77.9531 277.014,77.9531 277.514,78.8191 277.514,78.8191" fill="#0000ff"/>
   <polygon shape-rendering="crispEdges" points="191.02,214.063 190.02,214.063 189.52,213.197 190.02,212.331 191.02,212.331 191.52,213.197 191.52,213.197" fill="#ff00ff"/>
   <polygon shape-rendering="crispEdges" points="183.839,239.85 182.839,239.85 182.339,238.984 182.839,238.117 183.839,238.117 184.339,238.984" fill="#ff00ff"/>
   <polygon shape-rendering="crispEdges" points="276.93,77.7653 275.93,77.7653 275.43,76.8993 275.93,76.0333 276.93,76.0333 277.43,76.8993 277.43,76.8993" fill="#0000ff"/>
   <polygon shape-rendering="crispEdges" points="220.35,227.449 219.35,227.449 218.85,226.583 219.35,225.716 220.35,225.716 220.85,226.583 220.85,226.583" fill="#ff00ff"/>
   <polygon shape-rendering="crispEdges" points="190.572,214.505 189.572,214.505 189.072,213.639 189.572,212.773 190.572,212.773 191.072,213.639 191.072,213.639" fill="#ff00ff"/>
   <polygon shape-rendering="crispEdges" points="184.173,239.459 183.173,239.459 182.672,238.593 183.173,237.727 184.173,237.727 184.672,238.593" fill="#ff00ff"/>
   <polygon shape-rendering="crispEdges" points="276.838,75.9211 275.838,75.9211 275.338,75.0551 275.838,74.1891 276.838,74.1891 277.338,75.0551 277.338,75.0551" fill="#0000ff"/>
   <polygon shape-rendering="crispEdges" points="190.176,214.929 189.176,214.929 188.676,214.063 189.176,213.197 190.176,213.197 190.676,214.063 190.676,214.063" fill="#ff00ff"/>
   <polygon shape-rendering="crispEdges" points="184.472,239.084 183.472,239.084 182.972,238.218 183.472,237.352 184.472,237.352 184.972,238.218" fill="#ff00ff"/>
   <polygon shape-rendering="crispEdges" points="254.437,201.313 253.437,201.313 252.937,200.447 253.437,199.581 254.437,199.581 254.937,200.447 254.937,200.447" fill="#0000ff"/>
   <polygon shape-rendering="crispEdges" points="276.738,74.1514 275.738,74.1514 275.238,73.2854 275.738,72.4193 276.738,72.4193 277.238,73.2854 277.238,73.2854" fill="#0000ff"/>
   <polygon shape-rendering="crispEdges" points="189.823,215.336 188.823,215.336 188.323,214.47 188.823,213.604 189.823,213.604 190.323,214.47 190.323,214.47" fill="#ff00ff"/>
   <polygon shape-rendering="crispEdges" points="184.742,238.722 183.742,238.722 183.242,237.856 183.742,236.99 184.742,236.99 185.242,237.856" fill="#ff00ff"/>
   <polygon shape-rendering="crispEdges" points="255.409,198.849 254.409,198.849 253.909,197.983 254.409,197.117 255.409,197.117 255.909,197.983 255.909,197.983" fill="#0000ff"/>
   <polygon shape-rendering="crispEdges" points="184.986,238.373 183.986,238.373 183.486,237.507 183.986,236.641 184.986,236.641 185.486,237.507" fill="#ff00ff"/>
   <polygon shape-rendering="crispEdges" points="276.632,72.4553 275.632,72.4553 275.132,71.5892 275.632,70.7232 276.632,70.7232 277.132,71.5892 277.132,71.5892" fill="#0000ff"/>
   <polygon shape-rendering="crispEdges" points="189.508,215.727 188.508,215.727 188.008,214.861 188.508,213.995 189.508,213.995 190.008,214.861 190.008,214.861" fill="#ff00ff"/>
   <polygon shape-rendering="crispEdges" points="185.207,238.036 184.207,238.036 183.707,237.17 184.207,236.304 185.207,236.304 185.707,237.17" fill="#ff00ff"/>
   <polygon shape-rendering="crispEdges" points="189.226,216.104 188.226,216.104 187.726,215.238 188.226,214.372 189.226,214.372 189.726,215.238 189.726,215.238" fill="#ff00ff"/>
   <polygon shape-rendering="crispEdges" points="276.522,70.8317 275.522,70.8317 275.022,69.9657 275.522,69.0996 276.522,69.0996 277.022,69.9657 277.022,69.9657" fill="#0000ff"/>
   <polygon shape-rendering="crispEdges" points="185.408,237.71 184.408,237.71 183.908,236.844 184.408,235.978 185.908,236.844" fill="#ff00ff"/>
   <polygon shape-rendering="crispEdges" points="188.971,216.466 187.971,216.466 187.471,215.6 187.971,214.734 188.971,214.734 189.471,215.6 189.471,215.6" fill="#ff00ff"/>
   <polygon shape-rendering="crispEdges" points="185.592,237.394 184.592,237.394 184.092,236.528 184.592,235.662 185.592,235.662 186.092,236.528 186.092,236.528" fill="#ff00ff"/>
   <polygon shape-rendering="crispEdges" points="185.759,237.089 184.759,237.089 184.259,236.223 184.759,235.357 185.759,235.357 186.259,236.223 186.259,236.223" fill="#ff00ff"/>
   <polygon shape-rendering="crispEdges" points="276.408,69.2798 275.408,69.2798 274.908,68.4138 275.408,67.5478 276.408,67.5478 276.908,68.4138 276.908,68.4138" fill="#0000ff"/>
   <polygon shape-rendering="crispEdges" points="188.74,216.816 187.74,216.816 187.24,215.95 187.74,215.084 188.74,215.084 189.24,215.95 189.24,215.95" fill="#ff00ff"/>
   <polygon shape-rendering="crispEdges" points="185.912,236.792 184.912,236.792 184.412,235.926 184.912,235.06 185.912,235.06 186.412,235.926 186.412,235.926" fill="#ff00ff"/>
   <polygon shape-rendering="crispEdges" points="186.984,227.828 185.984,227.828 185.484,226.962 185.984,226.096 186.984,226.096 187.484,226.962 187.484,226.962" fill="#ff00ff"/>
   <polygon shape-rendering="crispEdges" points="187.008,227.996 186.008,227.996 185.508,227.13 186.008,226.264 187.008,226.264 187.508,227.13 187.508,227.13" fill="#ff00ff"/>
   <polygon shape-rendering="crispEdges" points="186.936,227.491 185.936,227.491 185.436,226.625 185.936,225.759 186.936,225.759 187.436,226.625 187.436,226.625" fill="#ff00ff"/>
   <polygon shape-rendering="crispEdges" points="186.96,227.659 185.96,227.659 185.46,226.793 185.96,225.927 186.96,225.927 187.46,226.793 187.46,226.793" fill="#ff00ff"/>
   <polygon shape-rendering="crispEdges" points="187.032,228.165 186.032,228.165 185.532,227.299 186.032,226.433 187.032,226.433 187.532,227.299 187.532,227.299" fill="#ff00ff"/>
   <polygon shape-rendering="crispEdges" points="187.055,228.334 186.055,228.334 185.555,227.468 186.055,226.602 187.055,226.602 187.555,227.468 187.555,227.468" fill="#ff00ff"/>
   <polygon shape-rendering="crispEdges" points="186.911,227.322 185.911,227.322 185.411,226.456 185.911,225.59 186.911,225.59 187.411,226.456 187.411,226.456" fill="#ff00ff"/>
   <polygon shape-rendering="crispEdges" points="187.078,228.504 186.078,228.504 185.578,227.638 186.078,226.772 187.078,226.772 187.578,227.638 187.578,227.638" fill="#ff00ff"/>
   <polygon shape-rendering="crispEdges" points="188.531,217.153 187.531,217.153 187.031,216.287 187.531,215.421 188.531,215.421 189.031,216.287 189.031,216.287" fill="#ff00ff"/>
   <polygon shape-rendering="crispEdges" points="186.887,227.154 185.887,227.154 185.387,226.288 185.887,225.422 186.887,225.422 187.387,226.288 187.387,226.288" fill="#ff00ff"/>
   <polygon shape-rendering="crispEdges" points="187.1,228.674 186.1,228.674 185.6,227.808 186.1,226.942 187.1,226.942 187.6,227.808 187.6,227.808" fill="#ff00ff"/>
   <polygon shape-rendering="crispEdges" points="186.052,236.504 185.052,236.504 184.552,235.638 185.052,234.772 186.052,234.772 186.552,235.638 186.552,235.638" fill="#ff00ff"/>
   <polygon shape-rendering="crispEdges" points="186.863,226.985 185.863,226.985 185.363,226.119 185.863,225.253 186.863,225.253 187.363,226.119 187.363,226.119" fill="#ff00ff"/>
   <polygon shape-rendering="crispEdges" points="187.121,228.844 186.121,228.844 185.621,227.978 186.121,227.112 187.121,227.112 187.621,227.978 187.621,227.978" fill="#ff00ff"/>
   <polygon shape-rendering="crispEdges" points="187.142,229.015 186.142,229.015 185.642,228.149 186.142,227.283 187.142,227.283 187.642,228.149 187.642,228.149" fill="#ff00ff"/>
   <polygon shape-rendering="crispEdges" points="186.84,226.816 185.84,226.816 185.34,225.95 185.84,225.084 186.84,225.084 187.34,225.95 187.34,225.95" fill="#ff00ff"/>
   <polygon shape-rendering="crispEdges" points="187.161,229.187 186.161,229.187 185.661,228.321 186.161,227.455 187.161,227.455 187.661,228.321 187.661,228.321" fill="#ff00ff"/>
   <polygon shape-rendering="crispEdges" points="186.817,226.647 185.817,226.647 185.317,225.781 185.817,224.915 186.817,224.915 187.317,225.781 187.317,225.781" fill="#ff00ff"/>
   <polygon shape-rendering="crispEdges" points="187.179,229.359 186.179,229.359 185.679,228.493 186.179,227.627 187.179,227.627 187.679,228.493 187.679,228.493" fill="#ff00ff"/>
   <polygon shape-rendering="crispEdges" points="186.794,226.477 185.794,226.477 185.294,225.611 185.794,224.745 186.794,224.745 187.294,225.611 187.294,225.611" fill="#ff00ff"/>
   <polygon shape-rendering="crispEdges" points="187.196,229.533 186.196,229.533 185.696,228.667 186.196,227.801 187.196,227.801 187.696,228.667 187.696,228.667" fill="#ff00ff"/>
   <polygon shape-rendering="crispEdges" points="276.292,67.7989 275.292,67.7989 274.792,66.9328 275.292,66.0668 276.292,66.0668 276.792,66.9328 276.792,66.9328" fill="#0000ff"/>
   <polygon shape-rendering="crispEdges" points="186.772,226.307 185.772,226.307 185.272,225.441 185.772,224.575 186.772,224.575 187.272,225.441 187.272,225.441" fill="#ff00ff"/>
   <polygon shape-rendering="crispEdges" points="187.212,229.707 186.212,229.707 185.712,228.841 186.212,227.975 187.212,227.975 187.712,228.841 187.712,228.841" fill="#ff00ff"/>
   <polygon shape-rendering="crispEdges" points="186.181,236.224 185.181,236.224 184.681,235.358 185.181,234.492 186.181,234.492 186.681,235.358 186.681,235.358" fill="#ff00ff"/>
   <polygon shape-rendering="crispEdges" points="186.751,226.137 185.751,226.137 185.251,225.271 185.751,224.405 186.751,224.405 187.251,225.271 187.251,225.271" fill="#ff00ff"/>
   <polygon shape-rendering="crispEdges" points="187.226,229.882 186.226,229.882 185.726,229.016 186.226,228.15 187.226,228.15 187.726,229.016 187.726,229.016" fill="#ff00ff"/>
   <polygon shape-rendering="crispEdges" points="186.731,225.965 185.731,225.965 185.231,225.099 185.731,224.233 186.731,224.233 187.231,225.099 187.231,225.099" fill="#ff00ff"/>
   <polygon shape-rendering="crispEdges" points="187.239,230.058 186.239,230.058 185.739,229.192 186.239,228.326 187.239,228.326 187.739,229.192 187.739,229.192" fill="#ff00ff"/>
   <polygon shape-rendering="crispEdges" points="187.25,230.236 186.25,230.236 185.75,229.37 186.25,228.504 187.25,228.504 187.75,229.37 187.75,229.37" fill="#ff00ff"/>
   <polygon shape-rendering="crispEdges" points="188.341,217.479 187.341,217.479 186.841,216.613 187.341,215.747 188.341,215.747 188.841,216.613 188.841,216.613" fill="#ff00ff"/>
   <polygon shape-rendering="crispEdges" points="186.712,225.794 185.712,225.794 185.212,224.928 185.712,224.062 186.712,224.062 187.212,224.928 187.212,224.928" fill="#ff00ff"/>
   <polygon shape-rendering="crispEdges" points="187.259,230.415 186.259,230.415 185.759,229.549 186.259,228.683 187.259,228.683 187.759,229.549 187.759,229.549" fill="#ff00ff"/>
   <polygon shape-rendering="crispEdges" points="186.298,235.951 185.298,235.951 184.798,235.085 185.298,234.219 186.298,234.219 186.798,235.085 186.798,235.085" fill="#ff00ff"/>
   <polygon shape-rendering="crispEdges" points="186.694,225.621 185.694,225.621 185.194,224.755 185.694,223.889 186.694,223.889 187.194,224.755 187.194,224.755" fill="#ff00ff"/>
   <polygon shape-rendering="crispEdges" points="187.266,230.595 186.266,230.595 185.766,229.729 186.266,228.863 187.266,228.863 187.766,229.729 187.766,229.729" fill="#ff00ff"/>
   <polygon shape-rendering="crispEdges" points="186.677,225.447 185.677,225.447 185.177,224.581 185.677,223.715 186.677,223.715 187.177,224.581 187.177,224.581" fill="#ff00ff"/>
   <polygon shape-rendering="crispEdges" points="187.271,230.777 186.271,230.777 185.771,229.911 186.271,229.044 187.271,229.044 187.771,229.911 187.771,229.911" fill="#ff00ff"/>
   <polygon shape-rendering="crispEdges" points="186.662,225.273 185.662,225.273 185.162,224.407 185.662,223.541 186.662,223.541 187.162,224.407 187.162,224.407" fill="#ff00ff"/>
   <polygon shape-rendering="crispEdges" points="187.274,230.96 186.274,230.96 185.774,230.094 186.274,229.228 187.274,229.228 187.774,230.094 187.774,230.094" fill="#ff00ff"/>
   <polygon shape-rendering="crispEdges" points="186.406,235.685 185.406,235.685 184.906,234.819 185.406,233.953 186.406,233.953 186.906,234.819 186.906,234.819" fill="#ff00ff"/>
   <polygon shape-rendering="crispEdges" points="186.648,225.097 185.648,225.097 185.148,224.231 185.648,223.365 186.648,223.365 187.148,224.231 187.148,224.231" fill="#ff00ff"/>
   <polygon shape-rendering="crispEdges" points="187.275,231.145 186.275,231.145 185.775,230.279 186.275,229.413 187.275,229.413 187.775,230.279 187.775,230.279" fill="#ff00ff"/>
   <polygon shape-rendering="crispEdges" points="188.168,217.794 187.168,217.794 186.668,216.928 187.168,216.062 188.168,216.062 188.668,216.928 188.668,216.928" fill="#ff00ff"/>
   <polygon shape-rendering="crispEdges" points="187.273,231.331 186.273,231.331 185.773,230.465 186.273,229.599 187.273,229.599 187.773,230.465 187.773,230.465" fill="#ff00ff"/>
   <polygon shape-rendering="crispEdges" points="186.505,235.426 185.505,235.426 185.005,234.56 185.505,233.694 186.505,233.694 187.005,234.56 187.005,234.56" fill="#ff00ff"/>
   <polygon shape-rendering="crispEdges" points="186.636,224.921 185.636,224.921 185.136,224.055 185.636,223.189 186.636,223.189 187.136,224.055 187.136,224.055" fill="#ff00ff"/>
   <polygon shape-rendering="crispEdges" points="187.268,231.52 186.268,231.52 185.768,230.654 186.268,229.788 187.268,229.788 187.768,230.654 187.768,230.654" fill="#ff00ff"/>
   <polygon shape-rendering="crispEdges" points="186.625,224.743 185.625,224.743 185.125,223.877 185.625,223.011 186.625,223.011 187.125,223.877 187.125,223.877" fill="#ff00ff"/>
   <polygon shape-rendering="crispEdges" points="187.261,231.711 186.261,231.711 185.761,230.845 186.261,229.979 187.261,229.979 187.761,230.845 187.761,230.845" fill="#ff00ff"/>
   <polygon shape-rendering="crispEdges" points="186.595,235.173 185.595,235.173 185.095,234.307 185.595,233.441 186.595,233.441 187.095,234.307 187.095,234.307" fill="#ff00ff"/>
   <polygon shape-rendering="crispEdges" points="276.174,66.388 275.174,66.388 274.674,65.522 275.174,64.6559 276.174,64.6559 276.674,65.522 276.674,65.522" fill="#0000ff"/>
   <polygon shape-rendering="crispEdges" points="186.617,224.563 185.617,224.563 185.117,223.697 185.617,222.831 186.617,222.831 187.117,223.697 187.117,223.697" fill="#ff00ff"/>
   <polygon shape-rendering="crispEdges" points="187.25,231.904 186.25,231.904 185.75,231.038 186.25,230.172 187.25,230.172 187.75,231.038 187.75,231.038" fill="#ff00ff"/>
   <polygon shape-rendering="crispEdges" points="187.237,232.099 186.237,232.099 185.737,231.233 186.237,230.367 187.237,230.367 187.737,231.233 187.737,231.233" fill="#ff00ff"/>
   <polygon shape-rendering="crispEdges" points="186.678,234.925 185.678,234.925 185.178,234.059 185.678,233.193 186.678,233.193 187.178,234.059 187.178,234.059" fill="#ff00ff"/>
   <polygon shape-rendering="crispEdges" points="188.009,218.099 187.009,218.099 186.509,217.233 187.009,216.367 188.009,216.367 188.509,217.233 188.509,217.233" fill="#ff00ff"/>
   <polygon shape-rendering="crispEdges" points="186.61,224.383 185.61,224.383 185.11,223.517 185.61,222.651 186.61,222.651 187.11,223.517 187.11,223.517" fill="#ff00ff"/>
   <polygon shape-rendering="crispEdges" points="187.22,232.296 186.22,232.296 185.72,231.43 186.22,230.564 187.22,230.564 187.72,231.43 187.72,231.43" fill="#ff00ff"/>
   <polygon shape-rendering="crispEdges" points="186.753,234.683 185.753,234.683 185.253,233.817 185.753,232.951 186.753,232.951 187.253,233.817 187.253,233.817" fill="#ff00ff"/>
   <polygon shape-rendering="crispEdges" points="187.199,232.497 186.199,232.497 185.699,231.631 186.199,230.765 187.199,230.765 187.699,231.631 187.699,231.631" fill="#ff00ff"/>
   <polygon shape-rendering="crispEdges" points="186.605,224.201 185.605,224.201 185.105,223.334 185.605,222.468 186.605,222.468 187.105,223.334 187.105,223.334" fill="#ff00ff"/>
   <polygon shape-rendering="crispEdges" points="187.175,232.7 186.175,232.7 185.675,231.834 186.175,230.968 187.175,230.968 187.675,231.834 187.675,231.834" fill="#ff00ff"/>
   <polygon shape-rendering="crispEdges" points="186.822,234.446 185.822,234.446 185.322,233.58 185.822,232.714 186.822,232.714 187.322,233.58 187.322,233.58" fill="#ff00ff"/>
   <polygon shape-rendering="crispEdges" points="187.147,232.906 186.147,232.906 185.647,232.04 186.147,231.174 187.147,231.174 187.647,232.04 187.647,232.04" fill="#ff00ff"/>
   <polygon shape-rendering="crispEdges" points="186.884,234.214 185.884,234.214 185.384,233.348 185.884,232.482 186.884,232.482 187.384,233.348 187.384,233.348" fill="#ff00ff"/>
   <polygon shape-rendering="crispEdges" points="187.115,233.115 186.115,233.115 185.615,232.249 186.115,231.383 187.115,231.383 187.615,232.249 187.615,232.249" fill="#ff00ff"/>
   <polygon shape-rendering="crispEdges" points="186.941,233.986 185.941,233.986 185.441,233.12 185.941,232.254 186.941,232.254 187.441,233.12 187.441,233.12" fill="#ff00ff"/>
   <polygon shape-rendering="crispEdges" points="187.079,233.327 186.079,233.327 185.579,232.461 186.079,231.595 187.079,231.595 187.579,232.461 187.579,232.461" fill="#ff00ff"/>
   <polygon shape-rendering="crispEdges" points="187.038,233.543 186.038,233.543 185.538,232.677 186.038,231.811 187.038,231.811 187.538,232.677 187.538,232.677" fill="#ff00ff"/>
   <polygon shape-rendering="crispEdges" points="186.992,233.763 185.992,233.763 185.492,232.897 185.992,232.031 186.992,232.031 187.492,232.897 187.492,232.897" fill="#ff00ff"/>
   <polygon shape-rendering="crispEdges" points="186.603,224.017 185.603,224.017 185.103,223.151 185.603,222.285 186.603,222.285 187.103,223.151 187.103,223.151" fill="#ff00ff"/>
   <polygon shape-rendering="crispEdges" points="187.865,218.396 186.865,218.396 186.365,217.53 186.865,216.664 187.865,216.664 188.365,217.53 188.365,217.53" fill="#ff00ff"/>
   <polygon shape-rendering="crispEdges" points="186.603,223.831 185.603,223.831 185.103,222.965 185.603,222.099 186.603,222.099 187.103,222.965 187.103,222.965" fill="#ff00ff"/>
   <polygon shape-rendering="crispEdges" points="186.606,223.643 185.606,223.643 185.106,222.777 185.606,221.911 186.606,221.911 187.106,222.777 187.106,222.777" fill="#ff00ff"/>
   <polygon shape-rendering="crispEdges" points="187.733,218.683 186.733,218.683 186.233,217.817 186.733,216.951 187.733,216.951 188.233,217.817 188.233,217.817" fill="#ff00ff"/>
   <polygon shape-rendering="crispEdges" points="186.611,223.454 185.611,223.454 185.111,222.588 185.611,221.722 186.611,221.722 187.111,222.588 187.111,222.588" fill="#ff00ff"/>
   <polygon shape-rendering="crispEdges" points="186.62,223.262 185.62,223.262 185.12,222.396 185.62,221.53 186.62,221.53 187.12,222.396 187.12,222.396" fill="#ff00ff"/>
   <polygon shape-rendering="crispEdges" points="276.056,65.0465 275.056,65.0465 274.556,64.1805 275.056,63.3145 276.056,63.3145 276.556,64.1805 276.556,64.1805" fill="#0000ff"/>
   <polygon shape-rendering="crispEdges" points="187.611,218.963 186.611,218.963 186.111,218.097 186.611,217.231 187.611,217.231 188.111,218.097 188.111,218.097" fill="#ff00ff"/>
   <polygon shape-rendering="crispEdges" points="186.631,223.068 185.631,223.068 185.131,222.202 185.631,221.336 186.631,221.336 187.131,222.202 187.131,222.202" fill="#ff00ff"/>
   <polygon shape-rendering="crispEdges" points="186.645,222.872 185.645,222.872 185.145,222.006 185.645,221.14 186.645,221.14 187.145,222.006 187.145,222.006" fill="#ff00ff"/>
   <polygon shape-rendering="crispEdges" points="187.501,219.235 186.501,219.235 186.001,218.369 186.501,217.503 187.501,217.503 188.001,218.369 188.001,218.369" fill="#ff00ff"/>
   <polygon shape-rendering="crispEdges" points="186.663,222.673 185.663,222.673 185.163,221.806 185.663,220.94 186.663,220.94 187.163,221.806 187.163,221.806" fill="#ff00ff"/>
   <polygon shape-rendering="crispEdges" points="186.684,222.471 185.684,222.471 185.184,221.605 185.684,220.739 186.684,220.739 187.184,221.605 187.184,221.605" fill="#ff00ff"/>
   <polygon shape-rendering="crispEdges" points="257.256,195.461 256.256,195.461 255.756,194.595 256.256,193.729 257.256,193.729 257.756,194.595 257.756,194.595" fill="#0000ff"/>
   <polygon shape-rendering="crispEdges" points="187.399,219.5 186.399,219.5 185.899,218.634 186.399,217.768 187.399,217.768 187.899,218.634 187.899,218.634" fill="#ff00ff"/>
   <polygon shape-rendering="crispEdges" points="186.709,222.266 185.709,222.266 185.209,221.4 185.709,220.534 186.709,220.534 187.209,221.4 187.209,221.4" fill="#ff00ff"/>
   <polygon shape-rendering="crispEdges" points="187.306,219.758 186.306,219.758 185.806,218.892 186.306,218.026 187.306,218.026 187.806,218.892 187.806,218.892" fill="#ff00ff"/>
   <polygon shape-rendering="crispEdges" points="186.738,222.058 185.738,222.058 185.238,221.192 185.738,220.326 186.738,220.326 187.238,221.192 187.238,221.192" fill="#ff00ff"/>
   <polygon shape-rendering="crispEdges" points="252.387,204.863 251.387,204.863 250.887,203.997 251.387,203.131 252.387,203.131 252.887,203.997 252.887,203.997" fill="#0000ff"/>
   <polygon shape-rendering="crispEdges" points="187.221,220.01 186.221,220.01 185.721,219.144 186.221,218.278 187.221,218.278 187.721,219.144 187.721,219.144" fill="#ff00ff"/>
   <polygon shape-rendering="crispEdges" points="186.771,221.847 185.771,221.847 185.271,220.981 185.771,220.115 186.771,220.115 187.271,220.981 187.271,220.981" fill="#ff00ff"/>
   <polygon shape-rendering="crispEdges" points="186.809,221.632 185.809,221.632 185.309,220.766 185.809,219.9 186.809,219.9 187.309,220.766 187.309,220.766" fill="#ff00ff"/>
   <polygon shape-rendering="crispEdges" points="187.144,220.257 186.144,220.257 185.644,219.391 186.144,218.525 187.144,218.525 187.644,219.391 187.644,219.391" fill="#ff00ff"/>
   <polygon shape-rendering="crispEdges" points="186.851,221.414 185.851,221.414 185.351,220.548 185.851,219.682 186.851,219.682 187.351,220.548 187.351,220.548" fill="#ff00ff"/>
   <polygon shape-rendering="crispEdges" points="187.073,220.498 186.073,220.498 185.573,219.632 186.073,218.766 187.073,218.766 187.573,219.632 187.573,219.632" fill="#ff00ff"/>
   <polygon shape-rendering="crispEdges" points="187.009,220.734 186.009,220.734 185.509,219.868 186.009,219.001 187.009,219.001 187.509,219.868 187.509,219.868" fill="#ff00ff"/>
   <polygon shape-rendering="crispEdges" points="186.951,220.965 185.951,220.965 185.451,220.099 185.951,219.233 186.951,219.233 187.451,220.099 187.451,220.099" fill="#ff00ff"/>
   <polygon shape-rendering="crispEdges" points="186.898,221.191 185.898,221.191 185.398,220.325 185.898,219.459 186.898,219.459 187.398,220.325 187.398,220.325" fill="#ff00ff"/>
   <polygon shape-rendering="crispEdges" points="275.938,63.7738 274.938,63.7738 274.438,62.9077 274.938,62.0417 275.938,62.0417 276.438,62.9077 276.438,62.9077" fill="#0000ff"/>
   <polygon shape-rendering="crispEdges" points="275.821,62.5691 274.821,62.5691 274.321,61.7031 274.821,60.837 275.821,60.837 276.321,61.7031 276.321,61.7031" fill="#0000ff"/>
   <polygon shape-rendering="crispEdges" points="275.706,61.4319 274.706,61.4319 274.206,60.5658 274.706,59.6998 275.706,59.6998 276.206,60.5658 276.206,60.5658" fill="#0000ff"/>
   <polygon shape-rendering="crispEdges" points="275.594,60.3616 274.594,60.3616 274.094,59.4955 274.594,58.6295 275.594,58.6295 276.094,59.4955 276.094,59.4955" fill="#0000ff"/>
   <polygon shape-rendering="crispEdges" points="274.486,59.3577 273.986,58.4916 274.486,57.6256 275.486,57.6256 275.986,58.4916 275.986,58.4916" fill="#0000ff"/>
   <polygon shape-rendering="crispEdges" points="275.382,58.4197 274.382,58.4197 273.882,57.5536 274.382,56.6876 275.382,56.6876 275.882,57.5536 275.882,57.5536" fill="#0000ff"/>
   <polygon shape-rendering="crispEdges" points="274.283,57.5472 273.783,56.6812 274.283,55.8151 275.783,56.6812" fill="#0000ff"/>
   <polygon shape-rendering="crispEdges" points="275.283,55.8151 275.783,56.6812 275.783,56.6812" fill="#0000ff"/>
   <polygon shape-rendering="crispEdges" points="274.189,56.7397 273.689,55.8737 274.189,55.0077 275.689,55.8737" fill="#0000ff"/>
   <polygon shape-rendering="crispEdges" points="275.189,55.0077 275.689,55.8737 275.689,55.8737" fill="#0000ff"/>
   <polygon shape-rendering="crispEdges" points="274.101,55.997 273.601,55.131 274.101,54.265 275.601,55.131" fill="#0000ff"/>
   <polygon shape-rendering="crispEdges" points="275.101,54.265 275.601,55.131 275.601,55.131" fill="#0000ff"/>
   <polygon shape-rendering="crispEdges" points="259.733,189.794 258.733,189.794 258.233,188.928 258.733,188.062 259.733,188.062 260.233,188.928 260.233,188.928" fill="#0000ff"/>
   <polygon shape-rendering="crispEdges" points="274.02,55.3187 273.52,54.4527 274.02,53.5867 275.52,54.4527" fill="#0000ff"/>
   <polygon shape-rendering="crispEdges" points="275.02,53.5867 275.52,54.4527 275.52,54.4527" fill="#0000ff"/>
   <polygon shape-rendering="crispEdges" points="273.946,54.7044 273.446,53.8384 273.946,52.9724 275.446,53.8384" fill="#0000ff"/>
   <polygon shape-rendering="crispEdges" points="274.946,52.9724 275.446,53.8384 275.446,53.8384" fill="#0000ff"/>
   <polygon shape-rendering="crispEdges" points="273.879,54.1539 273.379,53.2879 273.879,52.4219 275.379,53.2879" fill="#0000ff"/>
   <polygon shape-rendering="crispEdges" points="274.879,52.4219 275.379,53.2879 275.379,53.2879" fill="#0000ff"/>
   <polygon shape-rendering="crispEdges" points="248.911,211.062 247.911,211.062 247.411,210.196 247.911,209.33 248.911,209.33 249.411,210.196 249.411,210.196" fill="#0000ff"/>
   <polygon shape-rendering="crispEdges" points="273.819,53.667 273.319,52.801 273.819,51.9349 275.319,52.801" fill="#0000ff"/>
   <polygon shape-rendering="crispEdges" points="274.819,51.9349 275.319,52.801 275.319,52.801" fill="#0000ff"/>
   <polygon shape-rendering="crispEdges" points="273.768,53.2433 273.268,52.3773 273.768,51.5113 275.268,52.3773" fill="#0000ff"/>
   <polygon shape-rendering="crispEdges" points="274.768,51.5113 275.268,52.3773 275.268,52.3773" fill="#0000ff"/>
   <polygon shape-rendering="crispEdges" points="273.725,52.8829 273.225,52.0168 273.725,51.1508 275.225,52.0168" fill="#0000ff"/>
   <polygon shape-rendering="crispEdges" points="274.725,51.1508 275.225,52.0168 275.225,52.0168" fill="#0000ff"/>
   <polygon shape-rendering="crispEdges" points="273.69,52.5854 273.19,51.7194 273.69,50.8533 275.19,51.7194" fill="#0000ff"/>
   <polygon shape-rendering="crispEdges" points="274.69,50.8533 275.19,51.7194 275.19,51.7194" fill="#0000ff"/>
   <polygon shape-rendering="crispEdges" points="273.664,52.3507 273.164,51.4847 273.664,50.6187 275.164,51.4847" fill="#0000ff"/>
   <polygon shape-rendering="crispEdges" points="274.664,50.6187 275.164,51.4847 275.164,51.4847" fill="#0000ff"/>
   <polygon shape-rendering="crispEdges" points="273.647,52.1789 273.147,51.3128 273.647,50.4468 275.147,51.3128" fill="#0000ff"/>
   <polygon shape-rendering="crispEdges" points="274.647,50.4468 275.147,51.3128 275.147,51.3128" fill="#0000ff"/>
   <polygon shape-rendering="crispEdges" points="273.638,52.0697 273.138,51.2036 273.638,50.3376 275.138,51.2036" fill="#0000ff"/>
   <polygon shape-rendering="crispEdges" points="274.638,50.3376 275.138,51.2036 275.138,51.2036" fill="#0000ff"/>
   <polygon shape-rendering="crispEdges" points="273.639,52.0231 273.139,51.1571 273.639,50.291 274.639,50.291 275.139,51.1571 275.139,51.1571" fill="#0000ff"/>
   <polygon shape-rendering="crispEdges" points="274.649,52.0392 273.649,52.0392 273.149,51.1732 273.649,50.3071 274.649,50.3071 275.149,51.1732 275.149,51.1732" fill="#0000ff"/>
   <polygon shape-rendering="crispEdges" points="274.668,52.1179 273.668,52.1179 273.168,51.2519 273.668,50.3859 274.668,50.3859 275.168,51.2519 275.168,51.2519" fill="#0000ff"/>
   <polygon shape-rendering="crispEdges" points="274.696,52.2593 273.696,52.2593 273.196,51.3933 273.696,50.5273 274.696,50.5273 275.196,51.3933 275.196,51.3933" fill="#0000ff"/>
   <polygon shape-rendering="crispEdges" points="274.732,52.4634 273.732,52.4634 273.232,51.5974 273.732,50.7314 274.732,50.7314 275.232,51.5974 275.232,51.5974" fill="#0000ff"/>
   <polygon shape-rendering="crispEdges" points="274.778,52.7304 273.778,52.7304 273.278,51.8644 273.778,50.9984 274.778,50.9984 275.278,51.8644 275.278,51.8644" fill="#0000ff"/>
   <polygon shape-rendering="crispEdges" points="261.918,184.309 260.918,184.309 260.418,183.443 260.918,182.577 261.918,182.577 262.418,183.443 262.418,183.443" fill="#0000ff"/>
   <polygon shape-rendering="crispEdges" points="274.832,53.0603 273.832,53.0603 273.332,52.1943 273.832,51.3283 274.832,51.3283 275.332,52.1943 275.332,52.1943" fill="#0000ff"/>
   <polygon shape-rendering="crispEdges" points="274.894,53.4534 273.894,53.4534 273.394,52.5873 273.894,51.7213 274.894,51.7213 275.394,52.5873 275.394,52.5873" fill="#0000ff"/>
   <polygon shape-rendering="crispEdges" points="274.965,53.9097 273.965,53.9097 273.465,53.0436 273.965,52.1776 274.965,52.1776 275.465,53.0436 275.465,53.0436" fill="#0000ff"/>
   <polygon shape-rendering="crispEdges" points="275.043,54.4295 274.043,54.4295 273.543,53.5634 274.043,52.6974 275.043,52.6974 275.543,53.5634 275.543,53.5634" fill="#0000ff"/>
   <polygon shape-rendering="crispEdges" points="275.128,55.013 274.128,55.013 273.628,54.147 274.128,53.2809 275.128,53.2809 275.628,54.147 275.628,54.147" fill="#0000ff"/>
   <polygon shape-rendering="crispEdges" points="275.221,55.6605 274.221,55.6605 273.721,54.7945 274.221,53.9285 275.221,53.9285 275.721,54.7945 275.721,54.7945" fill="#0000ff"/>
   <polygon shape-rendering="crispEdges" points="275.32,56.3723 274.32,56.3723 273.82,55.5063 274.32,54.6403 275.32,54.6403 275.82,55.5063 275.82,55.5063" fill="#0000ff"/>
   <polygon shape-rendering="crispEdges" points="275.425,57.1487 274.425,57.1487 273.925,56.2827 274.425,55.4167 275.425,55.4167 275.925,56.2827 275.925,56.2827" fill="#0000ff"/>
   <polygon shape-rendering="crispEdges" points="275.536,57.9901 274.536,57.9901 274.036,57.1241 274.536,56.2581 275.536,56.2581 276.036,57.1241 276.036,57.1241" fill="#0000ff"/>
   <polygon shape-rendering="crispEdges" points="275.652,58.8969 274.652,58.8969 274.152,58.0308 274.652,57.1648 275.652,57.1648 276.152,58.0308 276.152,58.0308" fill="#0000ff"/>
   <polygon shape-rendering="crispEdges" points="275.772,59.8694 274.772,59.8694 274.272,59.0034 274.772,58.1373 275.772,58.1373 276.272,59.0034 276.272,59.0034" fill="#0000ff"/>
   <polygon shape-rendering="crispEdges" points="275.896,60.9082 274.896,60.9082 274.396,60.0421 274.896,59.1761 275.896,59.1761 276.396,60.0421 276.396,60.0421" fill="#0000ff"/>
   <polygon shape-rendering="crispEdges" points="263.853,179.002 262.853,179.002 262.353,178.136 262.853,177.27 263.853,177.27 264.353,178.136 264.353,178.136" fill="#0000ff"/>
   <polygon shape-rendering="crispEdges" points="276.023,62.0136 275.023,62.0136 274.523,61.1476 275.023,60.2816 276.023,60.2816 276.523,61.1476 276.523,61.1476" fill="#0000ff"/>
   <polygon shape-rendering="crispEdges" points="244.883,217.432 243.883,217.432 243.383,216.566 243.883,215.7 244.883,215.7 245.383,216.566 245.383,216.566" fill="#0000ff"/>
   <polygon shape-rendering="crispEdges" points="276.152,63.1864 275.152,63.1864 274.652,62.3204 275.152,61.4543 276.152,61.4543 276.652,62.3204 276.652,62.3204" fill="#0000ff"/>
   <polygon shape-rendering="crispEdges" points="276.283,64.427 275.283,64.427 274.783,63.561 275.283,62.6949 276.283,62.6949 276.783,63.561 276.783,63.561" fill="#0000ff"/>
   <polygon shape-rendering="crispEdges" points="276.414,65.736 275.414,65.736 274.914,64.87 275.414,64.004 276.414,64.004 276.914,64.87 276.914,64.87" fill="#0000ff"/>
   <polygon shape-rendering="crispEdges" points="276.545,67.1141 275.545,67.1141 275.045,66.2481 275.545,65.3821 276.545,65.3821 277.045,66.2481 277.045,66.2481" fill="#0000ff"/>
   <polygon shape-rendering="crispEdges" points="276.675,68.562 275.675,68.562 275.175,67.696 275.675,66.83 276.675,66.83 277.175,67.696 277.175,67.696" fill="#0000ff"/>
   <polygon shape-rendering="crispEdges" points="276.803,70.0804 275.803,70.0804 275.303,69.2144 275.803,68.3484 276.803,68.3484 277.303,69.2144 277.303,69.2144" fill="#0000ff"/>
   <polygon shape-rendering="crispEdges" points="265.571,173.867 264.571,173.867 264.071,173.001 264.571,172.135 265.571,172.135 266.071,173.001 266.071,173.001" fill="#0000ff"/>
   <polygon shape-rendering="crispEdges" points="276.927,71.6702 275.927,71.6702 275.427,70.8041 275.927,69.9381 276.927,69.9381 277.427,70.8041 277.427,70.8041" fill="#0000ff"/>
   <polygon shape-rendering="crispEdges" points="277.047,73.332 276.047,73.332 275.547,72.466 276.047,71.6 277.047,71.6 277.547,72.466 277.547,72.466" fill="#0000ff"/>
   <polygon shape-rendering="crispEdges" points="277.161,75.0669 276.161,75.0669 275.661,74.2009 276.161,73.3348 277.161,73.3348 277.661,74.2009 277.661,74.2009" fill="#0000ff"/>
   <polygon shape-rendering="crispEdges" points="277.268,76.8757 276.268,76.8757 275.768,76.0097 276.268,75.1437 277.268,75.1437 277.768,76.0097 277.768,76.0097" fill="#0000ff"/>
   <polygon shape-rendering="crispEdges" points="267.1,168.898 266.1,168.898 265.6,168.032 266.1,167.166 267.1,167.166 267.6,168.032 267.6,168.032" fill="#0000ff"/>
   <polygon shape-rendering="crispEdges" points="277.367,78.7596 276.367,78.7596 275.867,77.8935 276.367,77.0275 277.367,77.0275 277.867,77.8935 277.867,77.8935" fill="#0000ff"/>
   <polygon shape-rendering="crispEdges" points="277.457,80.7194 276.457,80.7194 275.957,79.8534 276.457,78.9874 277.457,78.9874 277.957,79.8534 277.957,79.8534" fill="#0000ff"/>
   <polygon shape-rendering="crispEdges" points="277.535,82.7564 276.535,82.7564 276.035,81.8904 276.535,81.0244 277.535,81.0244 278.035,81.8904 278.035,81.8904" fill="#0000ff"/>
   <polygon shape-rendering="crispEdges" points="240.175,223.935 239.175,223.935 238.675,223.069 239.175,222.203 240.175,222.203 240.675,223.069 240.675,223.069" fill="#0000ff"/>
   <polygon shape-rendering="crispEdges" points="268.462,164.09 267.462,164.09 266.962,163.224 267.462,162.358 268.462,162.358 268.962,163.224 268.962,163.224" fill="#0000ff"/>
   <polygon shape-rendering="crispEdges" points="277.6,84.8718 276.6,84.8718 276.1,84.0058 276.6,83.1397 277.6,83.1397 278.1,84.0058 278.1,84.0058" fill="#0000ff"/>
   <polygon shape-rendering="crispEdges" points="277.651,87.0667 276.651,87.0667 276.151,86.2007 276.651,85.3347 277.651,85.3347 278.151,86.2007 278.151,86.2007" fill="#0000ff"/>
   <polygon shape-rendering="crispEdges" points="277.686,89.3427 276.686,89.3427 276.186,88.4767 276.686,87.6106 277.686,87.6106 278.186,88.4767 278.186,88.4767" fill="#0000ff"/>
   <polygon shape-rendering="crispEdges" points="269.676,159.434 268.676,159.434 268.176,158.568 268.676,157.702 269.676,157.702 270.176,158.568 270.176,158.568" fill="#0000ff"/>
   <polygon shape-rendering="crispEdges" points="277.703,91.701 276.703,91.701 276.203,90.835 276.703,89.969 277.703,89.969 278.203,90.835 278.203,90.835" fill="#0000ff"/>
   <polygon shape-rendering="crispEdges" points="277.7,94.1433 276.7,94.1433 276.2,93.2772 276.7,92.4112 277.7,92.4112 278.2,93.2772 278.2,93.2772" fill="#0000ff"/>
   <polygon shape-rendering="crispEdges" points="270.759,154.927 269.759,154.927 269.259,154.061 269.759,153.195 270.759,153.195 271.259,154.061 271.259,154.061" fill="#0000ff"/>
   <polygon shape-rendering="crispEdges" points="277.675,96.671 276.675,96.671 276.175,95.805 276.675,94.939 277.675,94.939 278.175,95.805 278.175,95.805" fill="#0000ff"/>
   <polygon shape-rendering="crispEdges" points="277.625,99.286 276.625,99.286 276.125,98.42 276.625,97.554 277.625,97.554 278.125,98.42 278.125,98.42" fill="#0000ff"/>
   <polygon shape-rendering="crispEdges" points="271.725,150.562 270.725,150.562 270.225,149.696 270.725,148.83 271.725,148.83 272.225,149.696 272.225,149.696" fill="#0000ff"/>
   <polygon shape-rendering="crispEdges" points="277.549,101.99 276.549,101.99 276.049,101.124 276.549,100.258 277.549,100.258 278.049,101.124 278.049,101.124" fill="#0000ff"/>
   <polygon shape-rendering="crispEdges" points="277.443,104.785 276.443,104.785 275.943,103.919 276.443,103.053 277.443,103.053 277.943,103.919 277.943,103.919" fill="#0000ff"/>
   <polygon shape-rendering="crispEdges" points="272.585,146.335 271.585,146.335 271.085,145.469 271.585,144.603 272.585,144.603 273.085,145.469 273.085,145.469" fill="#0000ff"/>
   <polygon shape-rendering="crispEdges" points="277.305,107.673 276.305,107.673 275.805,106.807 276.305,105.941 277.305,105.941 277.805,106.807 277.805,106.807" fill="#0000ff"/>
   <polygon shape-rendering="crispEdges" points="277.132,110.657 276.132,110.657 275.632,109.791 276.132,108.925 277.132,108.925 277.632,109.791 277.632,109.791" fill="#0000ff"/>
   <polygon shape-rendering="crispEdges" points="273.349,142.239 272.349,142.239 271.849,141.373 272.349,140.507 273.349,140.507 273.849,141.373 273.849,141.373" fill="#0000ff"/>
   <polygon shape-rendering="crispEdges" points="276.921,113.738 275.921,113.738 275.421,112.872 275.921,112.006 276.921,112.006 277.421,112.872 277.421,112.872" fill="#0000ff"/>
   <polygon shape-rendering="crispEdges" points="274.027,138.271 273.027,138.271 272.527,137.405 273.027,136.539 274.027,136.539 274.527,137.405 274.527,137.405" fill="#0000ff"/>
   <polygon shape-rendering="crispEdges" points="276.668,116.919 275.668,116.919 275.168,116.053 275.668,115.187 276.668,115.187 277.168,116.053 277.168,116.053" fill="#0000ff"/>
   <polygon shape-rendering="crispEdges" points="274.626,134.426 273.626,134.426 273.126,133.56 273.626,132.694 274.626,132.694 275.126,133.56 275.126,133.56" fill="#0000ff"/>
   <polygon shape-rendering="crispEdges" points="276.369,120.203 275.369,120.203 274.869,119.336 275.369,118.47 276.369,118.47 276.869,119.336 276.869,119.336" fill="#0000ff"/>
   <polygon shape-rendering="crispEdges" points="276.02,123.592 275.02,123.592 274.52,122.726 275.02,121.86 276.02,121.86 276.52,122.726 276.52,122.726" fill="#0000ff"/>
   <polygon shape-rendering="crispEdges" points="275.154,130.7 274.154,130.7 273.654,129.834 274.154,128.968 275.154,128.968 275.654,129.834 275.654,129.834" fill="#0000ff"/>
   <polygon shape-rendering="crispEdges" points="275.617,127.09 274.617,127.09 274.117,126.224 274.617,125.358 275.617,125.358 276.117,126.224 276.117,126.224" fill="#0000ff"/>
   <polygon shape-rendering="crispEdges" points="234.62,230.5 233.62,230.5 233.12,229.634 233.62,228.768 234.62,228.768 235.12,229.634 235.12,229.634" fill="#0000ff"/>
   <polygon shape-rendering="crispEdges" points="228.003,236.989 227.003,236.989 226.503,236.123 227.003,235.257 228.003,235.257 228.503,236.123 228.503,236.123" fill="#0000ff"/>
   <polygon shape-rendering="crispEdges" points="220.067,243.14 219.067,243.14 218.567,242.274 219.067,241.408 220.067,241.408 220.567,242.274 220.567,242.274" fill="#0000ff"/>
   <polygon shape-rendering="crispEdges" points="210.572,248.487 209.572,248.487 209.072,247.621 209.572,246.755 210.572,246.755 211.072,247.621 211.072,247.621" fill="#0000ff"/>
   <polygon shape-rendering="crispEdges" points="199.479,252.296 198.479,252.296 197.979,251.43 198.479,250.564 199.479,250.564 199.979,251.43 199.979,251.43" fill="#0000ff"/>
   <polygon shape-rendering="crispEdges" points="187.273,253.723 186.273,253.723 185.773,252.857 186.273,251.991 187.273,251.991 187.773,252.857 187.773,252.857" fill="#0000ff"/>
  </g>
 </g>
</svg>
