<?xml version='1.0' encoding='UTF-8' standalone='no'?>
<svg xmlns:xlink="http://www.w3.org/1999/xlink" viewBox="0 0 419 314" height="314pt" xmlns="http://www.w3.org/2000/svg" width="419pt">
 <title>Figure 1</title>
 <desc>
Creator: GL2PS 1.4.2, (C) 1999-2020 C. Geuzaine
For: Octave
CreationDate: Wed Dec 13 23:58:50 2023
</desc>
 <defs/>
 <polygon points="0,0 419,0 419,314 0,314" fill="#ffffff"/>
 <g>
  <polygon points="0,314 419,314 419,0 0,0" shape-rendering="crispEdges" fill="#ffffff"/>
  <clipPath id="cp00419314">
   <polygon points="0,314 419,314 419,0 0,0"/>
  </clipPath>
  <g clip-path="url(#cp00419314)">
   <polygon points="248.841,253.488 247.841,253.488 247.341,252.622 247.841,251.756 248.841,251.756 249.341,252.622 249.341,252.622" shape-rendering="crispEdges" fill="#0000ff"/>
   <polygon points="236.612,252.073 235.612,252.073 235.112,251.207 235.612,250.341 236.612,250.341 237.112,251.207 237.112,251.207" shape-rendering="crispEdges" fill="#0000ff"/>
   <polygon points="225.46,248.288 224.46,248.288 223.96,247.422 224.46,246.556 225.46,246.556 225.96,247.422 225.96,247.422" shape-rendering="crispEdges" fill="#0000ff"/>
   <polygon points="215.885,242.97 214.885,242.97 214.385,242.104 214.885,241.238 215.885,241.238 216.385,242.104 216.385,242.104" shape-rendering="crispEdges" fill="#0000ff"/>
   <polygon points="207.862,236.85 206.862,236.85 206.362,235.984 206.862,235.118 207.862,235.118 208.362,235.984 208.362,235.984" shape-rendering="crispEdges" fill="#0000ff"/>
   <polygon points="254.889,208.196 253.889,208.196 253.389,207.33 253.889,206.464 254.889,206.464 255.389,207.33 255.389,207.33" shape-rendering="crispEdges" fill="#ff0000"/>
   <polygon points="160.576,130.591 159.576,130.591 159.076,129.725 159.576,128.858 160.576,128.858 161.076,129.725 161.076,129.725" shape-rendering="crispEdges" fill="#0000ff"/>
   <polygon points="161.105,134.317 160.105,134.317 159.605,133.451 160.105,132.585 161.105,132.585 161.605,133.451 161.605,133.451" shape-rendering="crispEdges" fill="#0000ff"/>
   <polygon points="160.111,126.98 159.111,126.98 158.611,126.114 159.111,125.248 160.111,125.248 160.611,126.114 160.611,126.114" shape-rendering="crispEdges" fill="#0000ff"/>
   <polygon points="161.704,138.163 160.704,138.163 160.204,137.297 160.704,136.431 161.704,136.431 162.204,137.297 162.204,137.297" shape-rendering="crispEdges" fill="#0000ff"/>
   <polygon points="159.704,123.482 158.704,123.482 158.204,122.616 158.704,121.75 159.704,121.75 160.204,122.616 160.204,122.616" shape-rendering="crispEdges" fill="#0000ff"/>
   <polygon points="162.379,142.133 161.379,142.133 160.879,141.267 161.379,140.401 162.379,140.401 162.879,141.267 162.879,141.267" shape-rendering="crispEdges" fill="#0000ff"/>
   <polygon points="159.351,120.093 158.351,120.093 157.851,119.227 158.351,118.361 159.351,118.361 159.851,119.227 159.851,119.227" shape-rendering="crispEdges" fill="#0000ff"/>
   <polygon points="163.139,146.231 162.139,146.231 161.639,145.365 162.139,144.499 163.139,144.499 163.639,145.365 163.639,145.365" shape-rendering="crispEdges" fill="#0000ff"/>
   <polygon points="159.046,116.81 158.046,116.81 157.546,115.944 158.046,115.078 159.046,115.078 159.546,115.944 159.546,115.944" shape-rendering="crispEdges" fill="#0000ff"/>
   <polygon points="201.159,230.391 200.159,230.391 199.659,229.525 200.159,228.659 201.159,228.659 201.659,229.525 201.659,229.525" shape-rendering="crispEdges" fill="#0000ff"/>
   <polygon points="163.992,150.463 162.992,150.463 162.492,149.597 162.992,148.731 163.992,148.731 164.492,149.597 164.492,149.597" shape-rendering="crispEdges" fill="#0000ff"/>
   <polygon points="158.787,113.63 157.787,113.63 157.287,112.764 157.787,111.898 158.787,111.898 159.287,112.764 159.287,112.764" shape-rendering="crispEdges" fill="#0000ff"/>
   <polygon points="158.569,110.551 157.569,110.551 157.069,109.685 157.569,108.818 158.569,108.818 159.069,109.685 159.069,109.685" shape-rendering="crispEdges" fill="#0000ff"/>
   <polygon points="164.948,154.832 163.948,154.832 163.448,153.966 163.948,153.1 164.948,153.1 165.448,153.966 165.448,153.966" shape-rendering="crispEdges" fill="#0000ff"/>
   <polygon points="158.388,107.569 157.388,107.569 156.888,106.703 157.388,105.837 158.388,105.837 158.888,106.703 158.888,106.703" shape-rendering="crispEdges" fill="#0000ff"/>
   <polygon points="158.242,104.682 157.242,104.682 156.742,103.816 157.242,102.95 158.242,102.95 158.742,103.816 158.742,103.816" shape-rendering="crispEdges" fill="#0000ff"/>
   <polygon points="166.019,159.344 165.019,159.344 164.519,158.478 165.019,157.612 166.019,157.612 166.519,158.478 166.519,158.478" shape-rendering="crispEdges" fill="#0000ff"/>
   <polygon points="158.128,101.889 157.128,101.889 156.628,101.023 157.128,100.157 158.128,100.157 158.628,101.023 158.628,101.023" shape-rendering="crispEdges" fill="#0000ff"/>
   <polygon points="158.043,99.1873 157.043,99.1873 156.543,98.3213 157.043,97.4552 158.043,97.4552 158.543,98.3213 158.543,98.3213" shape-rendering="crispEdges" fill="#0000ff"/>
   <polygon points="167.218,164.006 166.218,164.006 165.718,163.14 166.218,162.274 167.218,162.274 167.718,163.14 167.718,163.14" shape-rendering="crispEdges" fill="#0000ff"/>
   <polygon points="157.985,96.5744 156.985,96.5744 156.485,95.7084 156.985,94.8424 157.985,94.8424 158.485,95.7084 158.485,95.7084" shape-rendering="crispEdges" fill="#0000ff"/>
   <polygon points="157.95,94.0488 156.95,94.0488 156.45,93.1828 156.95,92.3168 157.95,92.3168 158.45,93.1828 158.45,93.1828" shape-rendering="crispEdges" fill="#0000ff"/>
   <polygon points="168.561,168.822 167.561,168.822 167.061,167.956 167.561,167.09 168.561,167.09 169.061,167.956 169.061,167.956" shape-rendering="crispEdges" fill="#0000ff"/>
   <polygon points="157.938,91.6088 156.938,91.6088 156.438,90.7428 156.938,89.8768 157.938,89.8768 158.438,90.7428 158.438,90.7428" shape-rendering="crispEdges" fill="#0000ff"/>
   <polygon points="195.523,223.853 194.523,223.853 194.023,222.987 194.523,222.121 195.523,222.121 196.023,222.987 196.023,222.987" shape-rendering="crispEdges" fill="#0000ff"/>
   <polygon points="157.946,89.2528 156.946,89.2528 156.446,88.3867 156.946,87.5207 157.946,87.5207 158.446,88.3867 158.446,88.3867" shape-rendering="crispEdges" fill="#0000ff"/>
   <polygon points="157.972,86.9791 156.972,86.9791 156.472,86.1131 156.972,85.2471 157.972,85.2471 158.472,86.1131 158.472,86.1131" shape-rendering="crispEdges" fill="#0000ff"/>
   <polygon points="170.067,173.8 169.067,173.8 168.567,172.934 169.067,172.068 170.067,172.068 170.567,172.934 170.567,172.934" shape-rendering="crispEdges" fill="#0000ff"/>
   <polygon points="260.429,214.103 259.429,214.103 258.929,213.237 259.429,212.371 260.429,212.371 260.929,213.237 260.929,213.237" shape-rendering="crispEdges" fill="#ff0000"/>
   <polygon points="158.014,84.7864 157.014,84.7864 156.514,83.9204 157.014,83.0544 158.014,83.0544 158.514,83.9204 158.514,83.9204" shape-rendering="crispEdges" fill="#0000ff"/>
   <polygon points="158.071,82.6733 157.071,82.6733 156.571,81.8073 157.071,80.9413 158.071,80.9413 158.571,81.8073 158.571,81.8073" shape-rendering="crispEdges" fill="#0000ff"/>
   <polygon points="158.14,80.6385 157.14,80.6385 156.64,79.7725 157.14,78.9065 158.14,78.9065 158.64,79.7725 158.64,79.7725" shape-rendering="crispEdges" fill="#0000ff"/>
   <polygon points="171.758,178.945 170.758,178.945 170.258,178.079 170.758,177.213 171.758,177.213 172.258,178.079 172.258,178.079" shape-rendering="crispEdges" fill="#0000ff"/>
   <polygon points="158.221,78.6809 157.221,78.6809 156.721,77.8149 157.221,76.9489 158.221,76.9489 158.721,77.8149 158.721,77.8149" shape-rendering="crispEdges" fill="#0000ff"/>
   <polygon points="158.311,76.7992 157.311,76.7992 156.811,75.9332 157.311,75.0672 158.311,75.0672 158.811,75.9332 158.811,75.9332" shape-rendering="crispEdges" fill="#0000ff"/>
   <polygon points="190.743,217.375 189.743,217.375 189.243,216.509 189.743,215.643 190.743,215.643 191.243,216.509 191.243,216.509" shape-rendering="crispEdges" fill="#0000ff"/>
   <polygon points="158.41,74.9925 157.41,74.9925 156.91,74.1264 157.41,73.2604 158.41,73.2604 158.91,74.1264 158.91,74.1264" shape-rendering="crispEdges" fill="#0000ff"/>
   <polygon points="158.517,73.2596 157.517,73.2596 157.017,72.3936 157.517,71.5275 158.517,71.5275 159.017,72.3936 159.017,72.3936" shape-rendering="crispEdges" fill="#0000ff"/>
   <polygon points="158.629,71.5997 157.629,71.5997 157.129,70.7337 157.629,69.8677 158.629,69.8677 159.129,70.7337 159.129,70.7337" shape-rendering="crispEdges" fill="#0000ff"/>
   <polygon points="173.661,184.264 172.661,184.264 172.161,183.398 172.661,182.532 173.661,182.532 174.161,183.398 174.161,183.398" shape-rendering="crispEdges" fill="#0000ff"/>
   <polygon points="158.746,70.0119 157.746,70.0119 157.246,69.1459 157.746,68.2798 158.746,68.2798 159.246,69.1459 159.246,69.1459" shape-rendering="crispEdges" fill="#0000ff"/>
   <polygon points="158.867,68.4953 157.867,68.4953 157.367,67.6292 157.867,66.7632 158.867,66.7632 159.367,67.6292 159.367,67.6292" shape-rendering="crispEdges" fill="#0000ff"/>
   <polygon points="158.99,67.0491 157.99,67.0491 157.49,66.1831 157.99,65.317 158.99,65.317 159.49,66.1831 159.49,66.1831" shape-rendering="crispEdges" fill="#0000ff"/>
   <polygon points="159.114,65.6727 158.114,65.6727 157.614,64.8066 158.114,63.9406 159.114,63.9406 159.614,64.8066 159.614,64.8066" shape-rendering="crispEdges" fill="#0000ff"/>
   <polygon points="159.24,64.3652 158.24,64.3652 157.74,63.4992 158.24,62.6331 159.24,62.6331 159.74,63.4992 159.74,63.4992" shape-rendering="crispEdges" fill="#0000ff"/>
   <polygon points="159.365,63.1261 158.365,63.1261 157.865,62.2601 158.365,61.394 159.365,61.394 159.865,62.2601 159.865,62.2601" shape-rendering="crispEdges" fill="#0000ff"/>
   <polygon points="186.649,211.027 185.649,211.027 185.149,210.161 185.649,209.295 186.649,209.295 187.149,210.161 187.149,210.161" shape-rendering="crispEdges" fill="#0000ff"/>
   <polygon points="175.809,189.762 174.809,189.762 174.309,188.896 174.809,188.03 175.809,188.03 176.309,188.896 176.309,188.896" shape-rendering="crispEdges" fill="#0000ff"/>
   <polygon points="159.488,61.9547 158.488,61.9547 157.988,61.0887 158.488,60.2227 159.488,60.2227 159.988,61.0887 159.988,61.0887" shape-rendering="crispEdges" fill="#0000ff"/>
   <polygon points="159.61,60.8506 158.61,60.8506 158.11,59.9845 158.61,59.1185 159.61,59.1185 160.11,59.9845 160.11,59.9845" shape-rendering="crispEdges" fill="#0000ff"/>
   <polygon points="159.729,59.8131 158.729,59.8131 158.229,58.947 158.729,58.081 159.729,58.081 160.229,58.947 160.229,58.947" shape-rendering="crispEdges" fill="#0000ff"/>
   <polygon points="159.845,58.8417 158.845,58.8417 158.345,57.9757 158.845,57.1096 159.845,57.1096 160.345,57.9757 160.345,57.9757" shape-rendering="crispEdges" fill="#0000ff"/>
   <polygon points="159.956,57.9361 158.956,57.9361 158.456,57.07 158.956,56.204 159.956,56.204 160.456,57.07 160.456,57.07" shape-rendering="crispEdges" fill="#0000ff"/>
   <polygon points="160.063,57.0957 159.063,57.0957 158.563,56.2297 159.063,55.3637 160.063,55.3637 160.563,56.2297 160.563,56.2297" shape-rendering="crispEdges" fill="#0000ff"/>
   <polygon points="160.165,56.3203 159.165,56.3203 158.665,55.4543 159.165,54.5882 160.165,54.5882 160.665,55.4543 160.665,55.4543" shape-rendering="crispEdges" fill="#0000ff"/>
   <polygon points="160.26,55.6094 159.26,55.6094 158.76,54.7434 159.26,53.8773 160.26,53.8773 160.76,54.7434 160.76,54.7434" shape-rendering="crispEdges" fill="#0000ff"/>
   <polygon points="160.349,54.9627 159.349,54.9627 158.849,54.0967 159.349,53.2307 160.349,53.2307 160.849,54.0967 160.849,54.0967" shape-rendering="crispEdges" fill="#0000ff"/>
   <polygon points="160.432,54.38 159.432,54.38 158.932,53.514 159.432,52.648 160.432,52.648 160.932,53.514 160.932,53.514" shape-rendering="crispEdges" fill="#0000ff"/>
   <polygon points="261.085,220.124 260.085,220.124 259.585,219.258 260.085,218.392 261.085,218.392 261.585,219.258 261.585,219.258" shape-rendering="crispEdges" fill="#ff0000"/>
   <polygon points="160.507,53.861 159.507,53.861 159.007,52.995 159.507,52.129 160.507,52.129 161.007,52.995 161.007,52.995" shape-rendering="crispEdges" fill="#0000ff"/>
   <polygon points="178.242,195.445 177.242,195.445 176.742,194.579 177.242,193.713 178.242,193.713 178.742,194.579 178.742,194.579" shape-rendering="crispEdges" fill="#0000ff"/>
   <polygon points="160.575,53.4054 159.575,53.4054 159.075,52.5394 159.575,51.6734 160.575,51.6734 161.075,52.5394 161.075,52.5394" shape-rendering="crispEdges" fill="#0000ff"/>
   <polygon points="160.634,53.0131 159.634,53.0131 159.134,52.1471 159.634,51.281 160.634,51.281 161.134,52.1471 161.134,52.1471" shape-rendering="crispEdges" fill="#0000ff"/>
   <polygon points="183.116,204.847 182.116,204.847 181.616,203.981 182.116,203.115 183.116,203.115 183.616,203.981 183.616,203.981" shape-rendering="crispEdges" fill="#0000ff"/>
   <polygon points="160.686,52.6839 159.686,52.6839 159.186,51.8178 159.686,50.9518 160.686,50.9518 161.186,51.8178 161.186,51.8178" shape-rendering="crispEdges" fill="#0000ff"/>
   <polygon points="160.729,52.4176 159.729,52.4176 159.229,51.5515 159.729,50.6855 160.729,50.6855 161.229,51.5515 161.229,51.5515" shape-rendering="crispEdges" fill="#0000ff"/>
   <polygon points="159.763,52.2141 159.263,51.3481 159.763,50.4821 161.263,51.3481" shape-rendering="crispEdges" fill="#0000ff"/>
   <polygon points="159.789,52.0734 159.289,51.2074 159.789,50.3413 161.289,51.2074" shape-rendering="crispEdges" fill="#0000ff"/>
   <polygon points="159.806,51.9953 159.306,51.1293 159.806,50.2633 161.306,51.1293" shape-rendering="crispEdges" fill="#0000ff"/>
   <polygon points="160.814,51.9799 159.814,51.9799 159.314,51.1139 159.814,50.2479 160.814,50.2479 161.314,51.1139 161.314,51.1139" shape-rendering="crispEdges" fill="#0000ff"/>
   <polygon points="160.813,52.0272 159.813,52.0272 159.313,51.1612 159.813,50.2951 160.813,50.2951 161.313,51.1612 161.313,51.1612" shape-rendering="crispEdges" fill="#0000ff"/>
   <polygon points="160.802,52.1371 159.802,52.1371 159.302,51.2711 159.802,50.4051 160.802,50.4051 161.302,51.2711 161.302,51.2711" shape-rendering="crispEdges" fill="#0000ff"/>
   <polygon points="160.783,52.3098 159.783,52.3098 159.283,51.4437 159.783,50.5777 160.783,50.5777 161.283,51.4437 161.283,51.4437" shape-rendering="crispEdges" fill="#0000ff"/>
   <polygon points="160.755,52.5452 159.755,52.5452 159.255,51.6792 159.755,50.8131 160.755,50.8131 161.255,51.6792 161.255,51.6792" shape-rendering="crispEdges" fill="#0000ff"/>
   <polygon points="160.718,52.8436 159.718,52.8436 159.218,51.9775 159.718,51.1115 160.718,51.1115 161.218,51.9775 161.218,51.9775" shape-rendering="crispEdges" fill="#0000ff"/>
   <polygon points="160.673,53.205 159.673,53.205 159.173,52.3389 159.673,51.4729 160.673,51.4729 161.173,52.3389 161.173,52.3389" shape-rendering="crispEdges" fill="#0000ff"/>
   <polygon points="160.619,53.6296 159.619,53.6296 159.119,52.7635 159.619,51.8975 160.619,51.8975 161.119,52.7635 161.119,52.7635" shape-rendering="crispEdges" fill="#0000ff"/>
   <polygon points="160.557,54.1176 159.557,54.1176 159.057,53.2515 159.557,52.3855 160.557,52.3855 161.057,53.2515 161.057,53.2515" shape-rendering="crispEdges" fill="#0000ff"/>
   <polygon points="160.487,54.6692 159.487,54.6692 158.987,53.8032 159.487,52.9371 160.487,52.9371 160.987,53.8032 160.987,53.8032" shape-rendering="crispEdges" fill="#0000ff"/>
   <polygon points="160.41,55.2847 159.41,55.2847 158.91,54.4186 159.41,53.5526 160.41,53.5526 160.91,54.4186 160.91,54.4186" shape-rendering="crispEdges" fill="#0000ff"/>
   <polygon points="160.326,55.9643 159.326,55.9643 158.826,55.0983 159.326,54.2323 160.326,54.2323 160.826,55.0983 160.826,55.0983" shape-rendering="crispEdges" fill="#0000ff"/>
   <polygon points="160.235,56.7084 159.235,56.7084 158.735,55.8424 159.235,54.9764 160.235,54.9764 160.735,55.8424 160.735,55.8424" shape-rendering="crispEdges" fill="#0000ff"/>
   <polygon points="160.138,57.5173 159.138,57.5173 158.638,56.6513 159.138,55.7853 160.138,55.7853 160.638,56.6513 160.638,56.6513" shape-rendering="crispEdges" fill="#0000ff"/>
   <polygon points="180.042,198.849 179.042,198.849 178.542,197.983 179.042,197.117 180.042,197.117 180.542,197.983 180.542,197.983" shape-rendering="crispEdges" fill="#0000ff"/>
   <polygon points="160.035,58.3914 159.035,58.3914 158.535,57.5254 159.035,56.6594 160.035,56.6594 160.535,57.5254 160.535,57.5254" shape-rendering="crispEdges" fill="#0000ff"/>
   <polygon points="181.011,201.315 180.011,201.315 179.511,200.449 180.011,199.583 181.011,199.583 181.511,200.449 181.511,200.449" shape-rendering="crispEdges" fill="#0000ff"/>
   <polygon points="159.927,59.3311 158.927,59.3311 158.427,58.4651 158.927,57.599 159.927,57.599 160.427,58.4651 160.427,58.4651" shape-rendering="crispEdges" fill="#0000ff"/>
   <polygon points="159.814,60.3368 158.814,60.3368 158.314,59.4708 158.814,58.6048 159.814,58.6048 160.314,59.4708 160.314,59.4708" shape-rendering="crispEdges" fill="#0000ff"/>
   <polygon points="159.698,61.409 158.698,61.409 158.198,60.543 158.698,59.677 159.698,59.677 160.198,60.543 160.198,60.543" shape-rendering="crispEdges" fill="#0000ff"/>
   <polygon points="159.579,62.5483 158.579,62.5483 158.079,61.6823 158.579,60.8163 159.579,60.8163 160.079,61.6823 160.079,61.6823" shape-rendering="crispEdges" fill="#0000ff"/>
   <polygon points="159.457,63.7552 158.457,63.7552 157.957,62.8892 158.457,62.0231 159.457,62.0231 159.957,62.8892 159.957,62.8892" shape-rendering="crispEdges" fill="#0000ff"/>
   <polygon points="159.334,65.0302 158.334,65.0302 157.834,64.1642 158.334,63.2982 159.334,63.2982 159.834,64.1642 159.834,64.1642" shape-rendering="crispEdges" fill="#0000ff"/>
   <polygon points="159.21,66.3741 158.21,66.3741 157.71,65.5081 158.21,64.6421 159.21,64.6421 159.71,65.5081 159.71,65.5081" shape-rendering="crispEdges" fill="#0000ff"/>
   <polygon points="159.086,67.7875 158.086,67.7875 157.586,66.9215 158.086,66.0554 159.086,66.0554 159.586,66.9215 159.586,66.9215" shape-rendering="crispEdges" fill="#0000ff"/>
   <polygon points="177.354,193.04 176.354,193.04 175.854,192.174 176.354,191.308 177.354,191.308 177.854,192.174 177.854,192.174" shape-rendering="crispEdges" fill="#0000ff"/>
   <polygon points="259.513,224.146 258.513,224.146 258.013,223.28 258.513,222.414 259.513,222.414 260.013,223.28 260.013,223.28" shape-rendering="crispEdges" fill="#ff0000"/>
   <polygon points="158.964,69.2711 157.964,69.2711 157.464,68.4051 157.964,67.539 158.964,67.539 159.464,68.4051 159.464,68.4051" shape-rendering="crispEdges" fill="#0000ff"/>
   <polygon points="158.843,70.8257 157.843,70.8257 157.343,69.9597 157.843,69.0937 158.843,69.0937 159.343,69.9597 159.343,69.9597" shape-rendering="crispEdges" fill="#0000ff"/>
   <polygon points="158.726,72.4522 157.726,72.4522 157.226,71.5862 157.726,70.7201 158.726,70.7201 159.226,71.5862 159.226,71.5862" shape-rendering="crispEdges" fill="#0000ff"/>
   <polygon points="158.614,74.1513 157.614,74.1513 157.114,73.2853 157.614,72.4193 158.614,72.4193 159.114,73.2853 159.114,73.2853" shape-rendering="crispEdges" fill="#0000ff"/>
   <polygon points="184.18,207.371 183.18,207.371 182.68,206.505 183.18,205.639 184.18,205.639 184.68,206.505 184.68,206.505" shape-rendering="crispEdges" fill="#0000ff"/>
   <polygon points="158.507,75.9241 157.507,75.9241 157.007,75.0581 157.507,74.1921 158.507,74.1921 159.007,75.0581 159.007,75.0581" shape-rendering="crispEdges" fill="#0000ff"/>
   <polygon points="174.99,187.419 173.99,187.419 173.49,186.553 173.99,185.687 174.99,185.687 175.49,186.553 175.49,186.553" shape-rendering="crispEdges" fill="#0000ff"/>
   <polygon points="158.407,77.7716 157.407,77.7716 156.907,76.9055 157.407,76.0395 158.407,76.0395 158.907,76.9055 158.907,76.9055" shape-rendering="crispEdges" fill="#0000ff"/>
   <polygon points="158.316,79.6947 157.316,79.6947 156.816,78.8287 157.316,77.9626 158.316,77.9626 158.816,78.8287 158.816,78.8287" shape-rendering="crispEdges" fill="#0000ff"/>
   <polygon points="215.065,227.456 214.065,227.456 213.565,226.59 214.065,225.724 215.065,225.724 215.565,226.59 215.565,226.59" shape-rendering="crispEdges" fill="#ff00ff"/>
   <polygon points="158.235,81.6946 157.235,81.6946 156.735,80.8286 157.235,79.9625 158.235,79.9625 158.735,80.8286 158.735,80.8286" shape-rendering="crispEdges" fill="#0000ff"/>
   <polygon points="257.547,226.439 256.547,226.439 256.047,225.573 256.547,224.707 257.547,224.707 258.047,225.573 258.047,225.573" shape-rendering="crispEdges" fill="#ff0000"/>
   <polygon points="158.165,83.7725 157.165,83.7725 156.665,82.9065 157.165,82.0404 158.165,82.0404 158.665,82.9065 158.665,82.9065" shape-rendering="crispEdges" fill="#0000ff"/>
   <polygon points="172.903,181.982 171.903,181.982 171.403,181.116 171.903,180.25 172.903,180.25 173.403,181.116 173.403,181.116" shape-rendering="crispEdges" fill="#0000ff"/>
   <polygon points="158.108,85.9296 157.108,85.9296 156.608,85.0636 157.108,84.1976 158.108,84.1976 158.608,85.0636 158.608,85.0636" shape-rendering="crispEdges" fill="#0000ff"/>
   <polygon points="158.065,88.1673 157.065,88.1673 156.565,87.3013 157.065,86.4353 158.065,86.4353 158.565,87.3013 158.565,87.3013" shape-rendering="crispEdges" fill="#0000ff"/>
   <polygon points="248.401,233.53 247.401,233.53 246.901,232.664 247.401,231.798 248.401,231.798 248.901,232.664 248.901,232.664" shape-rendering="crispEdges" fill="#ff00ff"/>
   <polygon points="248.447,233.75 247.447,233.75 246.947,232.884 247.447,232.018 248.447,232.018 248.947,232.884 248.947,232.884" shape-rendering="crispEdges" fill="#ff00ff"/>
   <polygon points="248.498,233.974 247.498,233.974 246.998,233.108 247.498,232.242 248.498,232.242 248.998,233.108 248.998,233.108" shape-rendering="crispEdges" fill="#ff00ff"/>
   <polygon points="248.36,233.314 247.36,233.314 246.86,232.448 247.36,231.582 248.36,231.582 248.86,232.448 248.86,232.448" shape-rendering="crispEdges" fill="#ff00ff"/>
   <polygon points="248.554,234.201 247.554,234.201 247.054,233.335 247.554,232.469 248.554,232.469 249.054,233.335 249.054,233.335" shape-rendering="crispEdges" fill="#ff00ff"/>
   <polygon points="248.323,233.102 247.323,233.102 246.823,232.236 247.323,231.37 248.323,231.37 248.823,232.236 248.823,232.236" shape-rendering="crispEdges" fill="#ff00ff"/>
   <polygon points="248.617,234.434 247.617,234.434 247.117,233.568 247.617,232.702 248.617,232.702 249.117,233.568 249.117,233.568" shape-rendering="crispEdges" fill="#ff00ff"/>
   <polygon points="248.29,232.893 247.29,232.893 246.79,232.027 247.29,231.161 248.29,231.161 248.79,232.027 248.79,232.027" shape-rendering="crispEdges" fill="#ff00ff"/>
   <polygon points="248.685,234.671 247.685,234.671 247.185,233.805 247.685,232.939 248.685,232.939 249.185,233.805 249.185,233.805" shape-rendering="crispEdges" fill="#ff00ff"/>
   <polygon points="248.262,232.687 247.262,232.687 246.762,231.821 247.262,230.955 248.262,230.955 248.762,231.821 248.762,231.821" shape-rendering="crispEdges" fill="#ff00ff"/>
   <polygon points="255.825,227.674 254.825,227.674 254.325,226.808 254.825,225.942 255.825,225.942 256.325,226.808" shape-rendering="crispEdges" fill="#ff0000"/>
   <polygon points="248.237,232.484 247.237,232.484 246.737,231.618 247.237,230.752 248.237,230.752 248.737,231.618 248.737,231.618" shape-rendering="crispEdges" fill="#ff00ff"/>
   <polygon points="158.039,90.487 157.039,90.487 156.539,89.621 157.039,88.755 158.039,88.755 158.539,89.621 158.539,89.621" shape-rendering="crispEdges" fill="#0000ff"/>
   <polygon points="248.76,234.913 247.76,234.913 247.26,234.047 247.76,233.181 248.76,233.181 249.26,234.047 249.26,234.047" shape-rendering="crispEdges" fill="#ff00ff"/>
   <polygon points="248.486,220.948 247.486,220.948 246.986,220.082 247.486,219.216 248.486,219.216 248.986,220.082 248.986,220.082" shape-rendering="crispEdges" fill="#ff00ff"/>
   <polygon points="248.538,221.175 247.538,221.175 247.038,220.309 247.538,219.443 248.538,219.443 249.038,220.309 249.038,220.309" shape-rendering="crispEdges" fill="#ff00ff"/>
   <polygon points="248.427,220.717 247.427,220.717 246.927,219.851 247.427,218.985 248.427,218.985 248.927,219.851 248.927,219.851" shape-rendering="crispEdges" fill="#ff00ff"/>
   <polygon points="248.585,221.397 247.585,221.397 247.085,220.531 247.585,219.665 248.585,219.665 249.085,220.531 249.085,220.531" shape-rendering="crispEdges" fill="#ff00ff"/>
   <polygon points="248.216,232.284 247.216,232.284 246.716,231.418 247.216,230.552 248.216,230.552 248.716,231.418 248.716,231.418" shape-rendering="crispEdges" fill="#ff00ff"/>
   <polygon points="248.363,220.481 247.363,220.481 246.863,219.615 247.363,218.749 248.363,218.749 248.863,219.615 248.863,219.615" shape-rendering="crispEdges" fill="#ff00ff"/>
   <polygon points="248.627,221.616 247.627,221.616 247.127,220.75 247.627,219.884 248.627,219.884 249.127,220.75 249.127,220.75" shape-rendering="crispEdges" fill="#ff00ff"/>
   <polygon points="248.292,220.24 247.292,220.24 246.792,219.374 247.292,218.508 248.292,218.508 248.792,219.374 248.792,219.374" shape-rendering="crispEdges" fill="#ff00ff"/>
   <polygon points="248.665,221.831 247.665,221.831 247.165,220.965 247.665,220.099 248.665,220.099 249.165,220.965 249.165,220.965" shape-rendering="crispEdges" fill="#ff00ff"/>
   <polygon points="248.841,235.161 247.841,235.161 247.341,234.295 247.841,233.429 248.841,233.429 249.341,234.295 249.341,234.295" shape-rendering="crispEdges" fill="#ff00ff"/>
   <polygon points="248.199,232.087 247.199,232.087 246.699,231.221 247.199,230.355 248.199,230.355 248.699,231.221 248.699,231.221" shape-rendering="crispEdges" fill="#ff00ff"/>
   <polygon points="248.214,219.994 247.214,219.994 246.714,219.128 247.214,218.262 248.214,218.262 248.714,219.128 248.714,219.128" shape-rendering="crispEdges" fill="#ff00ff"/>
   <polygon points="248.697,222.042 247.697,222.042 247.197,221.176 247.697,220.31 248.697,220.31 249.197,221.176 249.197,221.176" shape-rendering="crispEdges" fill="#ff00ff"/>
   <polygon points="248.184,231.892 247.184,231.892 246.684,231.026 247.184,230.16 248.184,230.16 248.684,231.026 248.684,231.026" shape-rendering="crispEdges" fill="#ff00ff"/>
   <polygon points="248.726,222.25 247.726,222.25 247.226,221.384 247.726,220.518 248.726,220.518 249.226,221.384 249.226,221.384" shape-rendering="crispEdges" fill="#ff00ff"/>
   <polygon points="248.128,219.742 247.128,219.742 246.628,218.876 247.128,218.01 248.128,218.01 248.628,218.876 248.628,218.876" shape-rendering="crispEdges" fill="#ff00ff"/>
   <polygon points="248.93,235.415 247.93,235.415 247.43,234.549 247.93,233.683 248.93,233.683 249.43,234.549 249.43,234.549" shape-rendering="crispEdges" fill="#ff00ff"/>
   <polygon points="248.75,222.455 247.75,222.455 247.25,221.589 247.75,220.723 248.75,220.723 249.25,221.589 249.25,221.589" shape-rendering="crispEdges" fill="#ff00ff"/>
   <polygon points="248.173,231.699 247.173,231.699 246.673,230.833 247.173,229.967 248.173,229.967 248.673,230.833 248.673,230.833" shape-rendering="crispEdges" fill="#ff00ff"/>
   <polygon points="248.034,219.484 247.034,219.484 246.534,218.618 247.034,217.752 248.034,217.752 248.534,218.618 248.534,218.618" shape-rendering="crispEdges" fill="#ff00ff"/>
   <polygon points="248.771,222.657 247.771,222.657 247.271,221.791 247.771,220.925 248.771,220.925 249.271,221.791 249.271,221.791" shape-rendering="crispEdges" fill="#ff00ff"/>
   <polygon points="171.055,176.724 170.055,176.724 169.555,175.858 170.055,174.992 171.055,174.992 171.555,175.858 171.555,175.858" shape-rendering="crispEdges" fill="#0000ff"/>
   <polygon points="248.165,231.509 247.165,231.509 246.665,230.643 247.165,229.777 248.165,229.777 248.665,230.643 248.665,230.643" shape-rendering="crispEdges" fill="#ff00ff"/>
   <polygon points="249.028,235.675 248.028,235.675 247.528,234.809 248.028,233.943 249.028,233.943 249.528,234.809 249.528,234.809" shape-rendering="crispEdges" fill="#ff00ff"/>
   <polygon points="248.788,222.857 247.788,222.857 247.288,221.991 247.788,221.125 248.788,221.125 249.288,221.991 249.288,221.991" shape-rendering="crispEdges" fill="#ff00ff"/>
   <polygon points="248.159,231.32 247.159,231.32 246.659,230.454 247.159,229.588 248.159,229.588 248.659,230.454 248.659,230.454" shape-rendering="crispEdges" fill="#ff00ff"/>
   <polygon points="247.931,219.22 246.931,219.22 246.431,218.354 246.931,217.488 247.931,217.488 248.431,218.354 248.431,218.354" shape-rendering="crispEdges" fill="#ff00ff"/>
   <polygon points="248.802,223.054 247.802,223.054 247.302,222.188 247.802,221.322 248.802,221.322 249.302,222.188 249.302,222.188" shape-rendering="crispEdges" fill="#ff00ff"/>
   <polygon points="248.156,231.134 247.156,231.134 246.656,230.268 247.156,229.402 248.156,229.402 248.656,230.268 248.656,230.268" shape-rendering="crispEdges" fill="#ff00ff"/>
   <polygon points="248.812,223.248 247.812,223.248 247.312,222.382 247.812,221.516 248.812,221.516 249.312,222.382 249.312,222.382" shape-rendering="crispEdges" fill="#ff00ff"/>
   <polygon points="249.134,235.941 248.134,235.941 247.634,235.075 248.134,234.209 249.134,234.209 249.634,235.075 249.634,235.075" shape-rendering="crispEdges" fill="#ff00ff"/>
   <polygon points="247.818,218.948 246.818,218.948 246.318,218.082 246.818,217.216 247.818,217.216 248.318,218.082 248.318,218.082" shape-rendering="crispEdges" fill="#ff00ff"/>
   <polygon points="248.156,230.949 247.156,230.949 246.656,230.083 247.156,229.217 248.156,229.217 248.656,230.083 248.656,230.083" shape-rendering="crispEdges" fill="#ff00ff"/>
   <polygon points="248.82,223.44 247.82,223.44 247.32,222.574 247.82,221.708 248.82,221.708 249.32,222.574 249.32,222.574" shape-rendering="crispEdges" fill="#ff00ff"/>
   <polygon points="248.158,230.766 247.158,230.766 246.658,229.9 247.158,229.034 248.158,229.034 248.658,229.9 248.658,229.9" shape-rendering="crispEdges" fill="#ff00ff"/>
   <polygon points="248.825,223.63 247.825,223.63 247.325,222.764 247.825,221.898 248.825,221.898 249.325,222.764 249.325,222.764" shape-rendering="crispEdges" fill="#ff00ff"/>
   <polygon points="248.162,230.585 247.162,230.585 246.662,229.719 247.162,228.853 248.162,228.853 248.662,229.719 248.662,229.719" shape-rendering="crispEdges" fill="#ff00ff"/>
   <polygon points="247.695,218.669 246.695,218.669 246.195,217.803 246.695,216.937 247.695,216.937 248.195,217.803 248.195,217.803" shape-rendering="crispEdges" fill="#ff00ff"/>
   <polygon points="248.826,223.818 247.826,223.818 247.326,222.952 247.826,222.086 248.826,222.086 249.326,222.952 249.326,222.952" shape-rendering="crispEdges" fill="#ff00ff"/>
   <polygon points="249.25,236.214 248.25,236.214 247.75,235.348 248.25,234.482 249.25,234.482 249.75,235.348 249.75,235.348" shape-rendering="crispEdges" fill="#ff00ff"/>
   <polygon points="158.032,92.8902 157.032,92.8902 156.532,92.0242 157.032,91.1582 158.032,91.1582 158.532,92.0242 158.532,92.0242" shape-rendering="crispEdges" fill="#0000ff"/>
   <polygon points="248.169,230.405 247.169,230.405 246.669,229.539 247.169,228.673 248.169,228.673 248.669,229.539 248.669,229.539" shape-rendering="crispEdges" fill="#ff00ff"/>
   <polygon points="248.826,224.004 247.826,224.004 247.326,223.138 247.826,222.272 248.826,222.272 249.326,223.138 249.326,223.138" shape-rendering="crispEdges" fill="#ff00ff"/>
   <polygon points="248.823,224.188 247.823,224.188 247.323,223.322 247.823,222.456 248.823,222.456 249.323,223.322 249.323,223.322" shape-rendering="crispEdges" fill="#ff00ff"/>
   <polygon points="248.177,230.226 247.177,230.226 246.677,229.36 247.177,228.494 248.177,228.494 248.677,229.36 248.677,229.36" shape-rendering="crispEdges" fill="#ff00ff"/>
   <polygon points="247.561,218.383 246.561,218.383 246.061,217.516 246.561,216.65 247.561,216.65 248.061,217.516 248.061,217.516" shape-rendering="crispEdges" fill="#ff00ff"/>
   <polygon points="248.818,224.371 247.818,224.371 247.318,223.505 247.818,222.638 248.818,222.638 249.318,223.505 249.318,223.505" shape-rendering="crispEdges" fill="#ff00ff"/>
   <polygon points="248.187,230.049 247.187,230.049 246.687,229.183 247.187,228.317 248.187,228.317 248.687,229.183 248.687,229.183" shape-rendering="crispEdges" fill="#ff00ff"/>
   <polygon points="249.376,236.495 248.376,236.495 247.876,235.629 248.376,234.763 249.376,234.763 249.876,235.629 249.876,235.629" shape-rendering="crispEdges" fill="#ff00ff"/>
   <polygon points="248.81,224.552 247.81,224.552 247.31,223.686 247.81,222.82 248.81,222.82 249.31,223.686 249.31,223.686" shape-rendering="crispEdges" fill="#ff00ff"/>
   <polygon points="248.199,229.873 247.199,229.873 246.699,229.007 247.199,228.141 248.199,228.141 248.699,229.007 248.699,229.007" shape-rendering="crispEdges" fill="#ff00ff"/>
   <polygon points="248.801,224.731 247.801,224.731 247.301,223.865 247.801,222.999 248.801,222.999 249.301,223.865 249.301,223.865" shape-rendering="crispEdges" fill="#ff00ff"/>
   <polygon points="248.213,229.698 247.213,229.698 246.713,228.832 247.213,227.966 248.213,227.966 248.713,228.832 248.713,228.832" shape-rendering="crispEdges" fill="#ff00ff"/>
   <polygon points="248.79,224.909 247.79,224.909 247.29,224.043 247.79,223.177 248.79,223.177 249.29,224.043 249.29,224.043" shape-rendering="crispEdges" fill="#ff00ff"/>
   <polygon points="248.228,229.524 247.228,229.524 246.728,228.658 247.228,227.792 248.228,227.792 248.728,228.658 248.728,228.658" shape-rendering="crispEdges" fill="#ff00ff"/>
   <polygon points="247.413,218.087 246.413,218.087 245.913,217.221 246.413,216.355 247.413,216.355 247.913,217.221 247.913,217.221" shape-rendering="crispEdges" fill="#ff00ff"/>
   <polygon points="248.777,225.086 247.777,225.086 247.277,224.22 247.777,223.354 248.777,223.354 249.277,224.22 249.277,224.22" shape-rendering="crispEdges" fill="#ff00ff"/>
   <polygon points="187.833,213.603 186.833,213.603 186.333,212.737 186.833,211.87 187.833,211.87 188.333,212.737 188.333,212.737" shape-rendering="crispEdges" fill="#0000ff"/>
   <polygon points="248.244,229.35 247.244,229.35 246.744,228.484 247.244,227.618 248.744,228.484" shape-rendering="crispEdges" fill="#ff00ff"/>
   <polygon points="248.762,225.262 247.762,225.262 247.262,224.396 247.762,223.53 248.762,223.53 249.262,224.396 249.262,224.396" shape-rendering="crispEdges" fill="#ff00ff"/>
   <polygon points="249.513,236.785 248.513,236.785 248.013,235.919 248.513,235.052 249.513,235.052 250.013,235.919 250.013,235.919" shape-rendering="crispEdges" fill="#ff00ff"/>
   <polygon points="248.262,229.178 247.262,229.178 246.762,228.312 247.262,227.446 248.762,228.312" shape-rendering="crispEdges" fill="#ff00ff"/>
   <polygon points="248.746,225.437 247.746,225.437 247.246,224.571 247.746,223.705 248.746,223.705 249.246,224.571 249.246,224.571" shape-rendering="crispEdges" fill="#ff00ff"/>
   <polygon points="248.281,229.006 247.281,229.006 246.781,228.14 247.281,227.274 248.781,228.14" shape-rendering="crispEdges" fill="#ff00ff"/>
   <polygon points="248.729,225.611 247.729,225.611 247.229,224.745 247.729,223.879 248.729,223.879 249.229,224.745 249.229,224.745" shape-rendering="crispEdges" fill="#ff00ff"/>
   <polygon points="248.301,228.836 247.301,228.836 246.801,227.97 247.301,227.104 248.801,227.97" shape-rendering="crispEdges" fill="#ff00ff"/>
   <polygon points="254.458,228.322 253.458,228.322 254.958,227.456" shape-rendering="crispEdges" fill="#ff0000"/>
   <polygon points="252.958,227.456 253.458,226.59 254.458,226.59 254.958,227.456" shape-rendering="crispEdges" fill="#ff0000"/>
   <polygon points="248.71,225.784 247.71,225.784 247.21,224.918 247.71,224.052 248.71,224.052 249.21,224.918 249.21,224.918" shape-rendering="crispEdges" fill="#ff00ff"/>
   <polygon points="247.252,217.783 246.252,217.783 245.752,216.917 246.252,216.051 247.252,216.051 247.752,216.917 247.752,216.917" shape-rendering="crispEdges" fill="#ff00ff"/>
   <polygon points="248.322,228.665 247.322,228.665 246.822,227.799 247.322,226.933 248.822,227.799" shape-rendering="crispEdges" fill="#ff00ff"/>
   <polygon points="248.691,225.956 247.691,225.956 247.191,225.09 247.691,224.224 248.691,224.224 249.191,225.09 249.191,225.09" shape-rendering="crispEdges" fill="#ff00ff"/>
   <polygon points="248.343,228.495 247.343,228.495 246.843,227.629 247.343,226.763 248.843,227.629" shape-rendering="crispEdges" fill="#ff00ff"/>
   <polygon points="248.67,226.127 247.67,226.127 247.17,225.261 247.67,224.395 248.67,224.395 249.17,225.261 249.17,225.261" shape-rendering="crispEdges" fill="#ff00ff"/>
   <polygon points="248.366,228.326 247.366,228.326 246.866,227.46 247.366,226.594 248.866,227.46" shape-rendering="crispEdges" fill="#ff00ff"/>
   <polygon points="248.649,226.298 247.649,226.298 247.149,225.432 247.649,224.566 248.649,224.566 249.149,225.432 249.149,225.432" shape-rendering="crispEdges" fill="#ff00ff"/>
   <polygon points="248.389,228.157 247.389,228.157 246.889,227.291 247.389,226.425 248.889,227.291" shape-rendering="crispEdges" fill="#ff00ff"/>
   <polygon points="248.627,226.468 247.627,226.468 247.127,225.602 247.627,224.736 248.627,224.736 249.127,225.602 249.127,225.602" shape-rendering="crispEdges" fill="#ff00ff"/>
   <polygon points="158.046,95.3786 157.046,95.3786 156.546,94.5125 157.046,93.6465 158.046,93.6465 158.546,94.5125 158.546,94.5125" shape-rendering="crispEdges" fill="#0000ff"/>
   <polygon points="248.412,227.988 247.412,227.988 246.912,227.122 247.412,226.256 248.412,226.256 248.912,227.122" shape-rendering="crispEdges" fill="#ff00ff"/>
   <polygon points="249.663,237.082 248.663,237.082 248.163,236.216 248.663,235.35 249.663,235.35 250.163,236.216 250.163,236.216" shape-rendering="crispEdges" fill="#ff00ff"/>
   <polygon points="248.604,226.638 247.604,226.638 247.104,225.772 247.604,224.906 248.604,224.906 249.104,225.772 249.104,225.772" shape-rendering="crispEdges" fill="#ff00ff"/>
   <polygon points="248.58,226.807 247.58,226.807 247.08,225.941 247.58,225.075 248.58,225.075 249.08,225.941 249.08,225.941" shape-rendering="crispEdges" fill="#ff00ff"/>
   <polygon points="248.436,227.819 247.436,227.819 246.936,226.953 247.436,226.087 248.936,226.953" shape-rendering="crispEdges" fill="#ff00ff"/>
   <polygon points="248.557,226.976 247.557,226.976 247.057,226.11 247.557,225.244 248.557,225.244 249.057,226.11 249.057,226.11" shape-rendering="crispEdges" fill="#ff00ff"/>
   <polygon points="248.533,227.145 247.533,227.145 247.033,226.279 247.533,225.413 248.533,225.413 249.033,226.279 249.033,226.279" shape-rendering="crispEdges" fill="#ff00ff"/>
   <polygon points="248.508,227.314 247.508,227.314 247.008,226.448 247.508,225.582 248.508,225.582 249.008,226.448 249.008,226.448" shape-rendering="crispEdges" fill="#ff00ff"/>
   <polygon points="247.484,227.482 246.984,226.616 247.484,225.75 248.484,225.75 248.984,226.616 248.984,226.616" shape-rendering="crispEdges" fill="#ff00ff"/>
   <polygon points="248.46,227.651 247.46,227.651 246.96,226.785 247.46,225.919 248.46,225.919 248.96,226.785 248.96,226.785" shape-rendering="crispEdges" fill="#ff00ff"/>
   <polygon points="247.075,217.469 246.075,217.469 245.575,216.603 246.075,215.737 247.075,215.737 247.575,216.603 247.575,216.603" shape-rendering="crispEdges" fill="#ff00ff"/>
   <polygon points="248.827,237.389 248.327,236.523 248.827,235.657 249.827,235.657 250.327,236.523 250.327,236.523" shape-rendering="crispEdges" fill="#ff00ff"/>
   <polygon points="249.754,228.591 248.754,228.591 248.254,227.725 250.254,227.725" shape-rendering="crispEdges" fill="#ff0000"/>
   <polygon points="248.754,226.859 249.754,226.859 250.254,227.725 250.254,227.725" shape-rendering="crispEdges" fill="#ff0000"/>
   <polygon points="249.648,228.551 248.648,228.551 248.148,227.685 250.148,227.685" shape-rendering="crispEdges" fill="#ff0000"/>
   <polygon points="248.648,226.819 249.648,226.819 250.148,227.685 250.148,227.685" shape-rendering="crispEdges" fill="#ff0000"/>
   <polygon points="249.555,228.513 248.555,228.513 248.055,227.647 250.055,227.647" shape-rendering="crispEdges" fill="#ff0000"/>
   <polygon points="248.555,226.781 249.555,226.781 250.055,227.647 250.055,227.647" shape-rendering="crispEdges" fill="#ff0000"/>
   <polygon points="249.475,228.477 248.475,228.477 247.975,227.611 249.975,227.611" shape-rendering="crispEdges" fill="#ff0000"/>
   <polygon points="248.475,226.745 249.475,226.745 249.975,227.611 249.975,227.611" shape-rendering="crispEdges" fill="#ff0000"/>
   <polygon points="249.404,228.444 248.404,228.444 247.904,227.578 249.904,227.578" shape-rendering="crispEdges" fill="#ff0000"/>
   <polygon points="248.404,226.712 249.404,226.712 249.904,227.578 249.904,227.578" shape-rendering="crispEdges" fill="#ff0000"/>
   <polygon points="249.878,228.634 248.878,228.634 248.378,227.768 250.378,227.768" shape-rendering="crispEdges" fill="#ff0000"/>
   <polygon points="248.878,226.902 249.878,226.902 250.378,227.768 250.378,227.768" shape-rendering="crispEdges" fill="#ff0000"/>
   <polygon points="249.342,228.412 248.342,228.412 247.842,227.546 249.842,227.546" shape-rendering="crispEdges" fill="#ff0000"/>
   <polygon points="248.342,226.68 249.342,226.68 249.842,227.546 249.842,227.546" shape-rendering="crispEdges" fill="#ff0000"/>
   <polygon points="249.286,228.383 248.286,228.383 247.786,227.517 249.786,227.517" shape-rendering="crispEdges" fill="#ff0000"/>
   <polygon points="248.286,226.651 249.286,226.651 249.786,227.517 249.786,227.517" shape-rendering="crispEdges" fill="#ff0000"/>
   <polygon points="249.236,228.356 248.236,228.356 247.736,227.49 249.736,227.49" shape-rendering="crispEdges" fill="#ff0000"/>
   <polygon points="248.236,226.624 249.236,226.624 249.736,227.49 249.736,227.49" shape-rendering="crispEdges" fill="#ff0000"/>
   <polygon points="250.022,228.679 249.022,228.679 248.522,227.813 250.522,227.813" shape-rendering="crispEdges" fill="#ff0000"/>
   <polygon points="249.022,226.947 250.022,226.947 250.522,227.813 250.522,227.813" shape-rendering="crispEdges" fill="#ff0000"/>
   <polygon points="249.192,228.331 248.192,228.331 247.692,227.465 249.692,227.465" shape-rendering="crispEdges" fill="#ff0000"/>
   <polygon points="248.192,226.599 249.192,226.599 249.692,227.465 249.692,227.465" shape-rendering="crispEdges" fill="#ff0000"/>
   <polygon points="249.152,228.308 248.152,228.308 247.652,227.441 249.652,227.441" shape-rendering="crispEdges" fill="#ff0000"/>
   <polygon points="248.152,226.575 249.152,226.575 249.652,227.441 249.652,227.441" shape-rendering="crispEdges" fill="#ff0000"/>
   <polygon points="248.116,228.285 247.616,227.419 249.616,227.419" shape-rendering="crispEdges" fill="#ff0000"/>
   <polygon points="248.116,226.553 249.116,226.553 249.616,227.419 249.616,227.419" shape-rendering="crispEdges" fill="#ff0000"/>
   <polygon points="248.084,228.265 247.584,227.399 249.584,227.399" shape-rendering="crispEdges" fill="#ff0000"/>
   <polygon points="248.084,226.533 249.084,226.533 249.584,227.399 249.584,227.399" shape-rendering="crispEdges" fill="#ff0000"/>
   <polygon points="248.054,228.246 247.554,227.38 249.554,227.38" shape-rendering="crispEdges" fill="#ff0000"/>
   <polygon points="248.054,226.514 249.054,226.514 249.554,227.38 249.554,227.38" shape-rendering="crispEdges" fill="#ff0000"/>
   <polygon points="248.027,228.228 247.527,227.362 249.527,227.362" shape-rendering="crispEdges" fill="#ff0000"/>
   <polygon points="248.002,228.211 247.502,227.345 249.502,227.345" shape-rendering="crispEdges" fill="#ff0000"/>
   <polygon points="247.98,228.195 247.48,227.329 249.48,227.329" shape-rendering="crispEdges" fill="#ff0000"/>
   <polygon points="246.881,217.144 245.881,217.144 245.381,216.278 245.881,215.412 246.881,215.412 247.381,216.278 247.381,216.278" shape-rendering="crispEdges" fill="#ff00ff"/>
   <polygon points="250.192,228.726 249.192,228.726 248.692,227.86 250.692,227.86" shape-rendering="crispEdges" fill="#ff0000"/>
   <polygon points="249.192,226.994 250.192,226.994 250.692,227.86 250.692,227.86" shape-rendering="crispEdges" fill="#ff0000"/>
   <polygon points="248.832,228.081 247.832,228.081 247.332,227.214 249.332,227.214" shape-rendering="crispEdges" fill="#ff0000"/>
   <polygon points="247.813,228.065 247.313,227.199 249.313,227.199" shape-rendering="crispEdges" fill="#ff0000"/>
   <polygon points="247.797,228.051 247.297,227.185 249.297,227.185" shape-rendering="crispEdges" fill="#ff0000"/>
   <polygon points="250.395,228.773 249.395,228.773 248.895,227.907 250.895,227.907" shape-rendering="crispEdges" fill="#ff0000"/>
   <polygon points="249.395,227.041 250.395,227.041 250.895,227.907 250.895,227.907" shape-rendering="crispEdges" fill="#ff0000"/>
   <polygon points="247.766,228.023 247.266,227.157 249.266,227.157" shape-rendering="crispEdges" fill="#ff0000"/>
   <polygon points="248.752,228.01 247.752,228.01 247.254,227.145 247.754,226.279 249.252,227.144" shape-rendering="crispEdges" fill="#ff0000"/>
   <polygon points="248.738,227.997 247.738,227.997 247.24,227.131 249.238,227.131 249.238,227.131 248.738,226.264 249.237,227.128 249.237,227.128 247.737,227.995 247.237,227.128 247.74,226.265 249.238,227.131" shape-rendering="crispEdges" fill="#ff0000"/>
   <polygon points="247.233,227.125 247.734,227.992 249.234,227.126 247.733,226.259 247.229,227.122 247.729,226.256 248.729,226.256 247.724,226.251 247.223,227.115 247.723,226.249 249.223,227.115 247.723,227.981 249.224,227.117 247.725,227.984 247.225,227.118 249.227,227.12 249.229,227.122 249.229,227.122 247.729,227.988 249.233,227.125" shape-rendering="crispEdges" fill="#ff0000"/>
   <polygon points="247.72,227.979 247.22,227.113 249.222,227.114 249.222,227.114 248.722,226.248 247.72,226.247 249.22,227.113" shape-rendering="crispEdges" fill="#ff0000"/>
   <polygon points="247.743,228 247.243,227.134 247.743,226.268 248.743,226.268 249.243,227.134 249.243,227.134" shape-rendering="crispEdges" fill="#ff0000"/>
   <polygon points="247.746,228.004 247.246,227.138 247.746,226.272 249.246,227.138" shape-rendering="crispEdges" fill="#ff0000"/>
   <polygon points="247.75,228.007 247.25,227.141 247.75,226.275 248.75,226.275 249.25,227.141 249.25,227.141" shape-rendering="crispEdges" fill="#ff0000"/>
   <polygon points="247.759,228.015 247.259,227.149 247.759,226.283 248.759,226.283 249.259,227.149 249.259,227.149" shape-rendering="crispEdges" fill="#ff0000"/>
   <polygon points="247.763,228.02 247.263,227.153 247.763,226.287 249.263,227.153" shape-rendering="crispEdges" fill="#ff0000"/>
   <polygon points="247.769,228.024 247.269,227.158 247.769,226.292 248.769,226.292 249.269,227.158 249.269,227.158" shape-rendering="crispEdges" fill="#ff0000"/>
   <polygon points="247.774,228.029 247.274,227.163 247.774,226.297 248.774,226.297 249.274,227.163 249.274,227.163" shape-rendering="crispEdges" fill="#ff0000"/>
   <polygon points="247.78,228.035 247.28,227.169 247.78,226.303 248.78,226.303 249.28,227.169 249.28,227.169" shape-rendering="crispEdges" fill="#ff0000"/>
   <polygon points="247.786,228.04 247.286,227.174 247.786,226.308 248.786,226.308 249.286,227.174 249.286,227.174" shape-rendering="crispEdges" fill="#ff0000"/>
   <polygon points="253.402,228.652 252.402,228.652 253.902,227.786" shape-rendering="crispEdges" fill="#ff0000"/>
   <polygon points="251.902,227.786 252.402,226.92 253.402,226.92 253.902,227.786" shape-rendering="crispEdges" fill="#ff0000"/>
   <polygon points="247.793,228.046 247.293,227.18 247.793,226.314 248.793,226.314 249.293,227.18 249.293,227.18" shape-rendering="crispEdges" fill="#ff0000"/>
   <polygon points="247.801,228.053 247.301,227.187 247.801,226.321 248.801,226.321 249.301,227.187 249.301,227.187" shape-rendering="crispEdges" fill="#ff0000"/>
   <polygon points="247.809,228.06 247.309,227.194 247.809,226.328 248.809,226.328 249.309,227.194 249.309,227.194" shape-rendering="crispEdges" fill="#ff0000"/>
   <polygon points="247.817,228.067 247.317,227.201 247.817,226.335 248.817,226.335 249.317,227.201 249.317,227.201" shape-rendering="crispEdges" fill="#ff0000"/>
   <polygon points="250.638,228.818 249.638,228.818 249.138,227.952 251.138,227.952" shape-rendering="crispEdges" fill="#ff0000"/>
   <polygon points="249.638,227.086 250.638,227.086 251.138,227.952 251.138,227.952" shape-rendering="crispEdges" fill="#ff0000"/>
   <polygon points="248.826,228.075 247.826,228.075 247.326,227.209 247.826,226.343 248.826,226.343 249.326,227.209 249.326,227.209" shape-rendering="crispEdges" fill="#ff0000"/>
   <polygon points="247.836,228.083 247.336,227.217 247.836,226.351 248.836,226.351 249.336,227.217 249.336,227.217" shape-rendering="crispEdges" fill="#ff0000"/>
   <polygon points="247.847,228.092 247.347,227.226 247.847,226.359 248.847,226.359 249.347,227.226 249.347,227.226" shape-rendering="crispEdges" fill="#ff0000"/>
   <polygon points="247.858,228.101 247.358,227.235 247.858,226.369 248.858,226.369 249.358,227.235 249.358,227.235" shape-rendering="crispEdges" fill="#ff0000"/>
   <polygon points="247.87,228.111 247.37,227.245 247.87,226.379 248.87,226.379 249.37,227.245 249.37,227.245" shape-rendering="crispEdges" fill="#ff0000"/>
   <polygon points="247.883,228.121 247.383,227.255 247.883,226.389 248.883,226.389 249.383,227.255 249.383,227.255" shape-rendering="crispEdges" fill="#ff0000"/>
   <polygon points="247.897,228.132 247.397,227.266 247.897,226.4 248.897,226.4 249.397,227.266 249.397,227.266" shape-rendering="crispEdges" fill="#ff0000"/>
   <polygon points="248.913,228.144 247.913,228.144 247.413,227.278 247.913,226.412 248.913,226.412 249.413,227.278 249.413,227.278" shape-rendering="crispEdges" fill="#ff0000"/>
   <polygon points="248.929,228.156 247.929,228.156 247.429,227.29 247.929,226.424 248.929,226.424 249.429,227.29 249.429,227.29" shape-rendering="crispEdges" fill="#ff0000"/>
   <polygon points="248.947,228.17 247.947,228.17 247.447,227.304 247.947,226.438 248.947,226.438 249.447,227.304 249.447,227.304" shape-rendering="crispEdges" fill="#ff0000"/>
   <polygon points="248.967,228.184 247.967,228.184 247.467,227.318 247.967,226.452 248.967,226.452 249.467,227.318 249.467,227.318" shape-rendering="crispEdges" fill="#ff0000"/>
   <polygon points="249.006,237.706 248.506,236.84 249.006,235.974 250.006,235.974 250.506,236.84 250.506,236.84" shape-rendering="crispEdges" fill="#ff00ff"/>
   <polygon points="169.415,171.638 168.415,171.638 167.915,170.772 168.415,169.906 169.415,169.906 169.915,170.772 169.915,170.772" shape-rendering="crispEdges" fill="#0000ff"/>
   <polygon points="158.082,97.9537 157.082,97.9537 156.582,97.0877 157.082,96.2216 158.082,96.2216 158.582,97.0877 158.582,97.0877" shape-rendering="crispEdges" fill="#0000ff"/>
   <polygon points="248.988,228.199 247.988,228.199 247.488,227.333 247.988,226.467 248.988,226.467 249.488,227.333 249.488,227.333" shape-rendering="crispEdges" fill="#ff0000"/>
   <polygon points="250.935,228.857 249.935,228.857 249.435,227.991 251.435,227.991" shape-rendering="crispEdges" fill="#ff0000"/>
   <polygon points="249.011,228.215 248.011,228.215 247.511,227.349 248.011,226.483 249.011,226.483 249.511,227.349 249.511,227.349" shape-rendering="crispEdges" fill="#ff0000"/>
   <polygon points="249.037,228.232 248.037,228.232 247.537,227.366 248.037,226.5 249.037,226.5 249.537,227.366 249.537,227.366" shape-rendering="crispEdges" fill="#ff0000"/>
   <polygon points="249.065,228.251 248.065,228.251 247.565,227.385 248.065,226.519 249.065,226.519 249.565,227.385 249.565,227.385" shape-rendering="crispEdges" fill="#ff0000"/>
   <polygon points="249.095,228.27 248.095,228.27 247.595,227.404 248.095,226.538 249.095,226.538 249.595,227.404 249.595,227.404" shape-rendering="crispEdges" fill="#ff0000"/>
   <polygon points="249.129,228.291 248.129,228.291 247.629,227.425 248.129,226.559 249.129,226.559 249.629,227.425 249.629,227.425" shape-rendering="crispEdges" fill="#ff0000"/>
   <polygon points="249.166,228.314 248.166,228.314 247.666,227.448 248.166,226.582 249.166,226.582 249.666,227.448 249.666,227.448" shape-rendering="crispEdges" fill="#ff0000"/>
   <polygon points="249.207,228.338 248.207,228.338 247.707,227.472 248.207,226.606 249.207,226.606 249.707,227.472 249.707,227.472" shape-rendering="crispEdges" fill="#ff0000"/>
   <polygon points="249.253,228.364 248.253,228.364 247.753,227.498 248.253,226.632 249.253,226.632 249.753,227.498 249.753,227.498" shape-rendering="crispEdges" fill="#ff0000"/>
   <polygon points="246.667,216.809 245.667,216.809 245.167,215.943 245.667,215.077 246.667,215.077 247.167,215.943 247.167,215.943" shape-rendering="crispEdges" fill="#ff00ff"/>
   <polygon points="251.299,228.885 250.299,228.885 249.799,228.019 251.799,228.019" shape-rendering="crispEdges" fill="#ff0000"/>
   <polygon points="249.305,228.391 248.305,228.391 247.805,227.525 248.305,226.659 249.305,226.659 249.805,227.525 249.805,227.525" shape-rendering="crispEdges" fill="#ff0000"/>
   <polygon points="249.363,228.421 248.363,228.421 247.863,227.555 248.363,226.689 249.363,226.689 249.863,227.555 249.863,227.555" shape-rendering="crispEdges" fill="#ff0000"/>
   <polygon points="249.428,228.452 248.428,228.452 247.928,227.586 248.428,226.72 249.428,226.72 249.928,227.586 249.928,227.586" shape-rendering="crispEdges" fill="#ff0000"/>
   <polygon points="252.589,228.809 251.589,228.809 253.089,227.943" shape-rendering="crispEdges" fill="#ff0000"/>
   <polygon points="251.089,227.943 251.589,227.077 252.589,227.077 253.089,227.943" shape-rendering="crispEdges" fill="#ff0000"/>
   <polygon points="249.502,228.486 248.502,228.486 248.002,227.62 248.502,226.754 249.502,226.754 250.002,227.62 250.002,227.62" shape-rendering="crispEdges" fill="#ff0000"/>
   <polygon points="249.587,228.523 248.587,228.523 248.087,227.657 248.587,226.791 249.587,226.791 250.087,227.657 250.087,227.657" shape-rendering="crispEdges" fill="#ff0000"/>
   <polygon points="249.684,228.561 248.684,228.561 248.184,227.695 248.684,226.829 249.684,226.829 250.184,227.695 250.184,227.695" shape-rendering="crispEdges" fill="#ff0000"/>
   <polygon points="249.796,228.602 248.796,228.602 248.296,227.736 248.796,226.87 249.796,226.87 250.296,227.736 250.296,227.736" shape-rendering="crispEdges" fill="#ff0000"/>
   <polygon points="251.753,228.891 250.753,228.891 250.253,228.025 252.253,228.025" shape-rendering="crispEdges" fill="#ff0000"/>
   <polygon points="249.927,228.646 248.927,228.646 248.427,227.78 248.927,226.913 249.927,226.913 250.427,227.78 250.427,227.78" shape-rendering="crispEdges" fill="#ff0000"/>
   <polygon points="250.203,238.034 249.203,238.034 248.703,237.168 249.203,236.301 250.203,236.301 250.703,237.168 250.703,237.168" shape-rendering="crispEdges" fill="#ff00ff"/>
   <polygon points="250.08,228.691 249.08,228.691 248.58,227.825 249.08,226.959 250.08,226.959 250.58,227.825 250.58,227.825" shape-rendering="crispEdges" fill="#ff0000"/>
   <polygon points="251.956,228.87 250.956,228.87 252.456,228.004" shape-rendering="crispEdges" fill="#ff0000"/>
   <polygon points="250.956,227.138 251.956,227.138 252.456,228.004" shape-rendering="crispEdges" fill="#ff0000"/>
   <polygon points="250.261,228.737 249.261,228.737 248.761,227.871 249.261,227.005 250.261,227.005 250.761,227.871 250.761,227.871" shape-rendering="crispEdges" fill="#ff0000"/>
   <polygon points="250.479,228.782 249.479,228.782 248.979,227.916 249.479,227.05 250.479,227.05 250.979,227.916 250.979,227.916" shape-rendering="crispEdges" fill="#ff0000"/>
   <polygon points="251.458,228.879 250.458,228.879 249.958,228.013 251.958,228.013" shape-rendering="crispEdges" fill="#ff0000"/>
   <polygon points="250.458,227.147 251.458,227.147 251.958,228.013" shape-rendering="crispEdges" fill="#ff0000"/>
   <polygon points="250.741,228.825 249.741,228.825 249.241,227.959 249.741,227.093 250.741,227.093 251.241,227.959 251.241,227.959" shape-rendering="crispEdges" fill="#ff0000"/>
   <polygon points="251.062,228.86 250.062,228.86 249.562,227.994 250.062,227.128 251.062,227.128 251.562,227.994 251.562,227.994" shape-rendering="crispEdges" fill="#ff0000"/>
   <polygon points="246.432,216.461 245.432,216.461 244.932,215.595 245.432,214.729 246.432,214.729 246.932,215.595 246.932,215.595" shape-rendering="crispEdges" fill="#ff00ff"/>
   <polygon points="158.143,100.617 157.143,100.617 156.643,99.7514 157.143,98.8854 158.143,98.8854 158.643,99.7514 158.643,99.7514" shape-rendering="crispEdges" fill="#0000ff"/>
   <polygon points="252.327,228.855 251.327,228.855 250.827,227.989 251.327,227.123 252.327,227.123 252.827,227.989" shape-rendering="crispEdges" fill="#ff0000"/>
   <polygon points="250.419,238.372 249.419,238.372 248.919,237.506 249.419,236.64 250.419,236.64 250.919,237.506 250.919,237.506" shape-rendering="crispEdges" fill="#ff00ff"/>
   <polygon points="246.171,216.1 245.171,216.1 244.671,215.234 245.171,214.368 246.171,214.368 246.671,215.234 246.671,215.234" shape-rendering="crispEdges" fill="#ff00ff"/>
   <polygon points="158.232,103.372 157.232,103.372 156.732,102.506 157.232,101.64 158.232,101.64 158.732,102.506 158.732,102.506" shape-rendering="crispEdges" fill="#0000ff"/>
   <polygon points="253.059,228.743 252.059,228.743 251.559,227.877 252.059,227.011 253.059,227.011 253.559,227.877" shape-rendering="crispEdges" fill="#ff0000"/>
   <polygon points="250.657,238.723 249.657,238.723 249.157,237.857 249.657,236.991 250.657,236.991 251.157,237.857 251.157,237.857" shape-rendering="crispEdges" fill="#ff00ff"/>
   <polygon points="167.956,166.719 166.956,166.719 166.456,165.853 166.956,164.987 167.956,164.987 168.456,165.853 168.456,165.853" shape-rendering="crispEdges" fill="#0000ff"/>
   <polygon points="245.882,215.726 244.882,215.726 244.382,214.86 244.882,213.994 245.882,213.994 246.382,214.86 246.382,214.86" shape-rendering="crispEdges" fill="#ff00ff"/>
   <polygon points="250.921,239.088 249.921,239.088 249.421,238.222 249.921,237.356 250.921,237.356 251.421,238.222 251.421,238.222" shape-rendering="crispEdges" fill="#ff00ff"/>
   <polygon points="158.352,106.219 157.352,106.219 156.852,105.353 157.352,104.487 158.352,104.487 158.852,105.353 158.852,105.353" shape-rendering="crispEdges" fill="#0000ff"/>
   <polygon points="245.559,215.337 244.559,215.337 244.059,214.471 244.559,213.605 245.559,213.605 246.059,214.471 246.059,214.471" shape-rendering="crispEdges" fill="#ff00ff"/>
   <polygon points="254.004,228.494 253.004,228.494 252.504,227.628 253.004,226.762 254.004,226.762 254.504,227.628" shape-rendering="crispEdges" fill="#ff0000"/>
   <polygon points="158.505,109.16 157.505,109.16 157.005,108.294 157.505,107.428 158.505,107.428 159.005,108.294 159.005,108.294" shape-rendering="crispEdges" fill="#0000ff"/>
   <polygon points="251.213,239.466 250.213,239.466 249.713,238.6 250.213,237.734 251.213,237.734 251.713,238.6 251.713,238.6" shape-rendering="crispEdges" fill="#ff00ff"/>
   <polygon points="166.657,161.959 165.657,161.959 165.157,161.093 165.657,160.227 166.657,160.227 167.157,161.093 167.157,161.093" shape-rendering="crispEdges" fill="#0000ff"/>
   <polygon points="245.199,214.933 244.199,214.933 243.699,214.067 244.199,213.201 245.199,213.201 245.699,214.067 245.699,214.067" shape-rendering="crispEdges" fill="#ff00ff"/>
   <polygon points="158.695,112.199 157.695,112.199 157.195,111.333 157.695,110.467 158.695,110.467 159.195,111.333 159.195,111.333" shape-rendering="crispEdges" fill="#0000ff"/>
   <polygon points="251.539,239.859 250.539,239.859 250.039,238.992 250.539,238.126 251.539,238.126 252.039,238.992 252.039,238.992" shape-rendering="crispEdges" fill="#ff00ff"/>
   <polygon points="244.794,214.512 243.794,214.512 243.294,213.646 243.794,212.78 244.794,212.78 245.294,213.646 245.294,213.646" shape-rendering="crispEdges" fill="#ff00ff"/>
   <polygon points="165.501,157.352 164.501,157.352 164.001,156.486 164.501,155.62 165.501,155.62 166.001,156.486 166.001,156.486" shape-rendering="crispEdges" fill="#0000ff"/>
   <polygon points="158.924,115.338 157.924,115.338 157.424,114.472 157.924,113.606 158.924,113.606 159.424,114.472 159.424,114.472" shape-rendering="crispEdges" fill="#0000ff"/>
   <polygon points="255.226,227.992 254.226,227.992 253.726,227.126 254.226,226.26 255.226,226.26 255.726,227.126 255.726,227.126" shape-rendering="crispEdges" fill="#ff0000"/>
   <polygon points="251.904,240.267 250.904,240.267 250.404,239.401 250.904,238.535 251.904,238.535 252.404,239.401 252.404,239.401" shape-rendering="crispEdges" fill="#ff00ff"/>
   <polygon points="244.336,214.074 243.336,214.074 242.836,213.208 243.336,212.342 244.336,212.342 244.836,213.208 244.836,213.208" shape-rendering="crispEdges" fill="#ff00ff"/>
   <polygon points="159.198,118.579 158.198,118.579 157.698,117.713 158.198,116.847 159.198,116.847 159.698,117.713 159.698,117.713" shape-rendering="crispEdges" fill="#0000ff"/>
   <polygon points="164.471,152.893 163.471,152.893 162.971,152.027 163.471,151.161 164.471,151.161 164.971,152.027 164.971,152.027" shape-rendering="crispEdges" fill="#0000ff"/>
   <polygon points="159.519,121.925 158.519,121.925 158.019,121.059 158.519,120.193 159.519,120.193 160.019,121.059 160.019,121.059" shape-rendering="crispEdges" fill="#0000ff"/>
   <polygon points="163.555,148.576 162.555,148.576 162.055,147.71 162.555,146.844 163.555,146.844 164.055,147.71 164.055,147.71" shape-rendering="crispEdges" fill="#0000ff"/>
   <polygon points="159.893,125.379 158.893,125.379 158.393,124.513 158.893,123.647 159.893,123.647 160.393,124.513 160.393,124.513" shape-rendering="crispEdges" fill="#0000ff"/>
   <polygon points="252.315,240.692 251.315,240.692 250.815,239.826 251.315,238.96 252.315,238.96 252.815,239.826 252.815,239.826" shape-rendering="crispEdges" fill="#ff00ff"/>
   <polygon points="243.815,213.619 242.815,213.619 242.315,212.753 242.815,211.887 243.815,211.887 244.315,212.753 244.315,212.753" shape-rendering="crispEdges" fill="#ff00ff"/>
   <polygon points="162.741,144.395 161.741,144.395 161.241,143.529 161.741,142.663 162.741,142.663 163.241,143.529 163.241,143.529" shape-rendering="crispEdges" fill="#0000ff"/>
   <polygon points="160.324,128.944 159.324,128.944 158.824,128.078 159.324,127.212 160.324,127.212 160.824,128.078 160.824,128.078" shape-rendering="crispEdges" fill="#0000ff"/>
   <polygon points="216.672,220.192 215.672,220.192 215.172,219.326 215.672,218.46 216.672,218.46 217.172,219.326 217.172,219.326" shape-rendering="crispEdges" fill="#ff00ff"/>
   <polygon points="162.019,140.346 161.019,140.346 160.519,139.48 161.019,138.614 162.019,138.614 162.519,139.48 162.519,139.48" shape-rendering="crispEdges" fill="#0000ff"/>
   <polygon points="160.817,132.625 159.817,132.625 159.317,131.759 159.817,130.893 160.817,130.893 161.317,131.759 161.317,131.759" shape-rendering="crispEdges" fill="#0000ff"/>
   <polygon points="161.38,136.424 160.38,136.424 159.88,135.558 160.38,134.692 161.38,134.692 161.88,135.558 161.88,135.558" shape-rendering="crispEdges" fill="#0000ff"/>
   <polygon points="192.078,219.988 191.078,219.988 190.578,219.122 191.078,218.256 192.078,218.256 192.578,219.122 192.578,219.122" shape-rendering="crispEdges" fill="#0000ff"/>
   <polygon points="243.217,213.146 242.217,213.146 241.717,212.28 242.217,211.414 243.217,211.414 243.717,212.28 243.717,212.28" shape-rendering="crispEdges" fill="#ff00ff"/>
   <polygon points="252.781,241.134 251.781,241.134 251.281,240.268 251.781,239.402 252.781,239.402 253.281,240.268 253.281,240.268" shape-rendering="crispEdges" fill="#ff00ff"/>
   <polygon points="256.779,227.023 255.779,227.023 255.279,226.157 255.779,225.291 256.779,225.291 257.279,226.157 257.279,226.157" shape-rendering="crispEdges" fill="#ff0000"/>
   <polygon points="242.527,212.658 241.527,212.658 241.027,211.792 241.527,210.926 242.527,210.926 243.027,211.792 243.027,211.792" shape-rendering="crispEdges" fill="#ff00ff"/>
   <polygon points="253.312,241.593 252.312,241.593 251.812,240.727 252.312,239.861 253.312,239.861 253.812,240.727 253.812,240.727" shape-rendering="crispEdges" fill="#ff00ff"/>
   <polygon points="241.723,212.156 240.723,212.156 240.223,211.29 240.723,210.424 241.723,210.424 242.223,211.29 242.223,211.29" shape-rendering="crispEdges" fill="#ff00ff"/>
   <polygon points="253.923,242.069 252.923,242.069 252.423,241.203 252.923,240.337 253.923,240.337 254.423,241.203 254.423,241.203" shape-rendering="crispEdges" fill="#ff00ff"/>
   <polygon points="240.776,211.648 239.776,211.648 239.276,210.782 239.776,209.916 240.776,209.916 241.276,210.782 241.276,210.782" shape-rendering="crispEdges" fill="#ff00ff"/>
   <polygon points="254.632,242.559 253.632,242.559 253.132,241.693 253.632,240.827 254.632,240.827 255.132,241.693 255.132,241.693" shape-rendering="crispEdges" fill="#ff00ff"/>
   <polygon points="258.621,225.201 257.621,225.201 257.121,224.335 257.621,223.469 258.621,223.469 259.121,224.335 259.121,224.335" shape-rendering="crispEdges" fill="#ff0000"/>
   <polygon points="239.647,211.145 238.647,211.145 238.147,210.279 238.647,209.413 239.647,209.413 240.147,210.279 240.147,210.279" shape-rendering="crispEdges" fill="#ff00ff"/>
   <polygon points="255.463,243.06 254.463,243.06 253.963,242.194 254.463,241.328 255.463,241.328 255.963,242.194 255.963,242.194" shape-rendering="crispEdges" fill="#ff00ff"/>
   <polygon points="238.287,210.668 237.287,210.668 236.787,209.802 237.287,208.936 238.287,208.936 238.787,209.802 238.787,209.802" shape-rendering="crispEdges" fill="#ff00ff"/>
   <polygon points="220.545,214.902 219.545,214.902 219.045,214.036 219.545,213.17 220.545,213.17 221.045,214.036 221.045,214.036" shape-rendering="crispEdges" fill="#ff00ff"/>
   <polygon points="256.446,243.563 255.446,243.563 254.946,242.697 255.446,241.831 256.446,241.831 256.946,242.697 256.946,242.697" shape-rendering="crispEdges" fill="#ff00ff"/>
   <polygon points="197.054,226.481 196.054,226.481 195.554,225.615 196.054,224.749 197.054,224.749 197.554,225.615 197.554,225.615" shape-rendering="crispEdges" fill="#0000ff"/>
   <polygon points="236.626,210.256 235.626,210.256 235.126,209.39 235.626,208.524 236.626,208.524 237.126,209.39 237.126,209.39" shape-rendering="crispEdges" fill="#ff00ff"/>
   <polygon points="281.134,232.19 280.134,232.19 279.634,231.324 280.134,230.458 281.134,230.458 281.634,231.324 281.634,231.324" shape-rendering="crispEdges" fill="#ff00ff"/>
   <polygon points="257.625,244.054 256.625,244.054 256.125,243.188 256.625,242.322 257.625,242.322 258.125,243.188 258.125,243.188" shape-rendering="crispEdges" fill="#ff00ff"/>
   <polygon points="234.572,209.978 233.572,209.978 233.072,209.112 233.572,208.246 234.572,208.246 235.072,209.112 235.072,209.112" shape-rendering="crispEdges" fill="#ff00ff"/>
   <polygon points="224.911,211.879 223.911,211.879 223.411,211.013 223.911,210.147 224.911,210.147 225.411,211.013 225.411,211.013" shape-rendering="crispEdges" fill="#ff00ff"/>
   <polygon points="232.008,209.965 231.008,209.965 230.508,209.099 231.008,208.233 232.008,208.233 232.508,209.099 232.508,209.099" shape-rendering="crispEdges" fill="#ff00ff"/>
   <polygon points="228.809,210.457 227.809,210.457 227.309,209.591 227.809,208.725 228.809,208.725 229.309,209.591 229.309,209.591" shape-rendering="crispEdges" fill="#ff00ff"/>
   <polygon points="259.057,244.506 258.057,244.506 257.557,243.64 258.057,242.774 259.057,242.774 259.557,243.64 259.557,243.64" shape-rendering="crispEdges" fill="#ff00ff"/>
   <polygon points="260.357,221.906 259.357,221.906 258.857,221.04 259.357,220.174 260.357,220.174 260.857,221.04 260.857,221.04" shape-rendering="crispEdges" fill="#ff0000"/>
   <polygon points="260.82,244.871 259.82,244.871 259.32,244.005 259.82,243.139 260.82,243.139 261.32,244.005 261.32,244.005" shape-rendering="crispEdges" fill="#ff00ff"/>
   <polygon points="263.015,245.061 262.015,245.061 261.515,244.195 262.015,243.329 263.015,243.329 263.515,244.195 263.515,244.195" shape-rendering="crispEdges" fill="#ff00ff"/>
   <polygon points="277.757,238.352 276.757,238.352 276.257,237.486 276.757,236.62 277.757,236.62 278.257,237.486 278.257,237.486" shape-rendering="crispEdges" fill="#ff00ff"/>
   <polygon points="202.947,232.987 201.947,232.987 201.447,232.121 201.947,231.255 202.947,231.255 203.447,232.121 203.447,232.121" shape-rendering="crispEdges" fill="#0000ff"/>
   <polygon points="265.772,244.91 264.772,244.91 264.272,244.044 264.772,243.178 265.772,243.178 266.272,244.044 266.272,244.044" shape-rendering="crispEdges" fill="#ff00ff"/>
   <polygon points="273.349,242.178 272.349,242.178 271.849,241.311 272.349,240.445 273.349,240.445 273.849,241.311 273.849,241.311" shape-rendering="crispEdges" fill="#ff00ff"/>
   <polygon points="269.214,244.121 268.214,244.121 267.714,243.255 268.214,242.389 269.214,242.389 269.714,243.255 269.714,243.255" shape-rendering="crispEdges" fill="#ff00ff"/>
   <polygon points="260.652,216.565 259.652,216.565 259.152,215.699 259.652,214.833 260.652,214.833 261.152,215.699 261.152,215.699" shape-rendering="crispEdges" fill="#ff0000"/>
   <polygon points="209.989,239.332 208.989,239.332 208.489,238.465 208.989,237.599 209.989,237.599 210.489,238.465 210.489,238.465" shape-rendering="crispEdges" fill="#0000ff"/>
   <polygon points="218.444,245.187 217.444,245.187 216.944,244.321 217.444,243.455 218.444,243.455 218.944,244.321 218.944,244.321" shape-rendering="crispEdges" fill="#0000ff"/>
   <polygon points="256.923,210.108 255.923,210.108 255.423,209.242 255.923,208.376 256.923,208.376 257.423,209.242 257.423,209.242" shape-rendering="crispEdges" fill="#ff0000"/>
   <polygon points="248.216,206.816 247.216,206.816 246.716,205.95 247.216,205.084 248.216,205.084 248.716,205.95 248.716,205.95" shape-rendering="crispEdges" fill="#ff0000"/>
   <polygon points="228.511,249.994 227.511,249.994 227.011,249.128 227.511,248.262 228.511,248.262 229.011,249.128 229.011,249.128" shape-rendering="crispEdges" fill="#0000ff"/>
   <polygon points="240.082,252.943 239.082,252.943 238.582,252.077 239.082,251.211 240.082,251.211 240.582,252.077 240.582,252.077" shape-rendering="crispEdges" fill="#0000ff"/>
  </g>
 </g>
</svg>
